<?xml version="1.0" encoding="utf-8"?>
<!-- Generator: Adobe Illustrator 27.9.2, SVG Export Plug-In . SVG Version: 6.00 Build 0)  -->
<svg version="1.1" id="Calque_1" xmlns="http://www.w3.org/2000/svg" xmlns:xlink="http://www.w3.org/1999/xlink" x="0px" y="0px"
	 viewBox="0 0 411.4 726.8" style="enable-background:new 0 0 411.4 726.8;" xml:space="preserve">
<style type="text/css">
	.st0{fill:#985D23;}
	.st1{fill:#72451D;}
	.st2{fill:#2C5B38;}
	.st3{fill:#542F14;}
	.st4{fill:#91581F;}
	.st5{fill:#B2722A;}
</style>
<g>
	<path class="st0" d="M218.6,6.3c0,18.7,0,37.3,0,56c-0.1,55.7-0.1,111.5-0.3,167.2c-0.3,73.5-0.9,146.9-1.6,220.4l-1.7,195
		c-0.4-1.2-0.7-2.4-0.8-3.6c-1.2,6.3-4.4,12.5-9,17c-1.8,1.7-3.8,3.2-5.9,4.3c-1.8,0.9-3.7,1.6-5.7,2.1c-1.1,0.2-2.2,0.4-3.3,0.4
		c1.7-219.9,2.5-439.9,2.6-659.8l-0.7,5c0.1-2.6,0.1-5.3,0.2-8C200.9-1.9,211.8-0.2,218.6,6.3z"/>
</g>
<path class="st1" d="M197.3,4.9c4.8,13-0.1,27.1,3.2,40.3c0.9,3.7,2.4,7.2,2.5,11.1c0.1,3.6-0.4,7.3-0.7,10.9
	c-0.4,3.7-0.8,7.5-1.5,11.2c-0.7,3.6-1.8,7.1-2.6,10.6c-0.9,3.8-1,7.4,0,11.2c1,3.6,2.6,7.4,1.5,11.2c-0.4,1.4,1.8,2,2.2,0.6
	c0.9-3.2,0.2-6.4-0.7-9.5c-1-3.6-2-6.9-1.3-10.6c0.6-3.6,1.9-7,2.6-10.5c0.8-3.7,1.3-7.5,1.8-11.2c0.4-3.8,0.9-7.6,1.1-11.4
	c0.1-3.6-0.5-7-1.5-10.5c-1.1-3.5-1.9-6.9-2.1-10.6c-0.2-3.5-0.1-7.1,0-10.6c0.3-7.6,0.6-15.4-2.1-22.7C198.9,3,196.7,3.6,197.3,4.9
	L197.3,4.9z"/>
<path class="st1" d="M209,20c3,8.1,0.7,16.6-0.6,24.8c-0.7,4-1.2,8.1-0.9,12.2c0.3,4.4,1.6,8.7,2.5,13.1c0.9,4.6,1.1,8.9,0,13.4
	c-1,4.1-2.4,8.2-2.3,12.5c0.1,4.6,1.8,9,2.1,13.5c0.4,4.8-0.3,9.6-0.8,14.3c-1,8.7-1.5,18.3,4.3,25.6c0.9,1.1,2.5-0.5,1.6-1.6
	c-5.1-6.4-4.6-15.3-3.8-23c0.5-4.7,1.2-9.4,1-14.1c-0.2-4.5-1.7-8.8-2.1-13.3c-0.4-4.4,0.9-8.6,2-12.8c1-4.2,1.3-8.3,0.6-12.6
	c-0.7-4.4-2.1-8.6-2.7-13c-0.6-4.2-0.2-8.4,0.4-12.5c1.4-8.9,4.1-18.2,0.8-27C210.7,18,208.5,18.6,209,20L209,20z"/>
<path class="st1" d="M203.9,195.5c-0.4-9-0.8-18.1-1.2-27.1c-0.2-4.5-0.5-9.1-0.4-13.6c0.2-4.2,0.7-8.3,0.9-12.4
	c0.3-4.6,0.1-9.3-1.4-13.7c-0.5-1.4-2.6-0.8-2.2,0.6c2.7,8,0.8,16.5,0.4,24.7c-0.2,4.3,0.1,8.7,0.3,13c0.2,4.5,0.4,8.9,0.6,13.4
	c0.2,5.1,0.4,10.1,0.7,15.2C201.7,197,204,197,203.9,195.5L203.9,195.5z"/>
<path class="st1" d="M210.4,167.2c1.2,5.4-0.6,10.8-2,15.9c-0.7,2.6-1.3,5.2-1.6,7.8c-0.3,2.8,0,5.5,0.4,8.2
	c1,5.7,2.7,11.2,2.3,17.1c-0.5,5.8-2.2,11.6-1.4,17.4c0.7,5.7,3.8,12.3,0.7,17.7c-0.7,1.3,1.2,2.4,1.9,1.1
	c2.8-4.8,1.3-10.3,0.3-15.4c-0.6-3-0.9-5.9-0.7-8.9c0.2-3,0.8-6,1.2-9.1c0.4-2.9,0.6-5.9,0.2-8.8c-0.3-2.9-1-5.7-1.6-8.5
	c-0.6-2.9-1.2-5.8-1.1-8.8c0-2.9,0.7-5.7,1.4-8.5c1.6-5.9,3.6-11.8,2.3-18C212.3,165.2,210.1,165.8,210.4,167.2L210.4,167.2z"/>
<path class="st1" d="M198,213.6c-0.4,8.5-0.8,17-1.2,25.6c-0.2,4.1-0.5,8.2-0.4,12.3c0.1,4.1,0.8,8,1.8,11.9c1,3.9,2,7.9,2.6,11.9
	c0.7,4.2,1.2,8.4,1.6,12.6c0.4,4.1,0.7,8.1,0.9,12.2c0.2,4.2,0,8.2-1.8,12.1c-0.9,1.9-1.9,3.8-2.5,5.9c-0.6,1.9-0.9,4-1,6
	c-0.2,4.4,0.7,8.8,1.5,13.1c0.3,1.4,2.5,0.8,2.2-0.6c-0.8-3.8-1.5-7.7-1.5-11.6c0-2,0.2-3.9,0.8-5.9c0.5-1.9,1.4-3.6,2.2-5.4
	c1.6-3.6,2.4-7.1,2.3-11c0-4-0.5-8.1-0.8-12.1c-0.7-8.1-1.6-16.2-3.6-24.1c-1-4-2.1-8-2.5-12.1c-0.3-4.1-0.1-8.1,0.1-12.2
	c0.5-9.5,0.9-19,1.4-28.5C200.3,212.1,198.1,212.1,198,213.6L198,213.6z"/>
<path class="st1" d="M208.3,266c2.8,8.7,0.7,17.7-1.1,26.3c-0.9,4.4-1.7,8.8-2,13.2c-0.3,4.7,0.5,9.2,1.6,13.8
	c1.2,4.9,2.6,9.7,2.5,14.8c-0.1,5.1-1.1,10.1-1.8,15.2c-1.3,9.9-0.3,19.8,0.6,29.6c1,11,2,22.2-0.7,33c-0.4,1.4,1.8,2,2.2,0.6
	c4.9-19.6-1.8-39.5-0.2-59.3c0.4-5.2,1.5-10.2,2-15.4c0.5-5,0-9.8-1.2-14.7c-1.2-4.8-2.6-9.6-2.7-14.6c-0.1-4.6,0.7-9.2,1.5-13.7
	c1.9-9.7,4.7-19.9,1.5-29.6C210.1,264,207.9,264.6,208.3,266L208.3,266z"/>
<path class="st1" d="M201.5,418.4c-1.8-10.3-2.3-20.8-1.3-31.2c0.4-4.9,1.9-9.9,0.8-14.8c-1-4.6-3.6-8.7-2.6-13.6
	c0.6-2.7,1.7-5.3,2.8-7.8c1.2-2.9,2.3-5.7,3.5-8.6c0.5-1.3-1.6-1.9-2.2-0.6c-1,2.5-2.1,5.1-3.1,7.6c-1,2.4-2,4.8-2.8,7.2
	c-0.7,2.3-0.9,4.6-0.6,6.9c0.4,2.3,1.3,4.5,2,6.8c0.8,2.4,1.2,4.8,1,7.4c-0.2,2.6-0.7,5.2-1,7.8c-0.6,5.3-0.8,10.6-0.6,15.9
	c0.2,5.9,0.8,11.8,1.9,17.5C199.6,420.5,201.8,419.9,201.5,418.4L201.5,418.4z"/>
<path class="st1" d="M202.6,425.8c-4.5,4.9-7.6,11.1-8.6,17.7c-0.5,3.3-0.6,6.6-0.1,9.8c0.5,3.9,1.7,7.6,2.7,11.4
	c1.1,3.9,1.8,7.8,1.9,11.8c0.1,4.2-0.2,8.3-0.5,12.5c-0.6,8.3-0.9,16.7-0.8,25c0.1,9.4,0.5,18.8,1.4,28.2c0.1,1.4,2.4,1.4,2.2,0
	c-1.5-16.3-1.8-32.7-0.9-49c0.5-7.9,1.5-15.9,0.1-23.7c-1.3-7.2-4.4-14.1-4.2-21.5c0.2-7.6,3.2-15,8.4-20.6
	C205.2,426.3,203.6,424.7,202.6,425.8L202.6,425.8z"/>
<path class="st1" d="M208,437.2c-1,4.5-2,9-2.9,13.5c-0.9,4.3-1.2,8.4-0.4,12.7c0.4,2.2,0.7,4.3,0.3,6.6c-0.3,2-0.9,4-1.1,6
	c-0.4,4.2,1,8.2,2.2,12.2c1.2,4,2.1,8.7-0.3,12.5c-0.8,1.2,1.2,2.4,1.9,1.1c4.6-7.3-0.9-15.2-1.6-22.7c-0.4-4.2,1.6-8.2,1.3-12.4
	c-0.2-2.2-0.8-4.4-1-6.6c-0.2-2.3,0-4.7,0.4-7c0.9-5.2,2.1-10.3,3.2-15.4C210.4,436.4,208.3,435.8,208,437.2L208,437.2z"/>
<path class="st1" d="M207.5,520.8c0.9,11.5,1.7,23,1.3,34.5c-0.5,11.2-2.2,22.3-2.5,33.5c-0.2,6.3,0.1,12.5,1.1,18.7
	c0.2,1.4,2.4,0.8,2.2-0.6c-1.9-11-1-22.2,0-33.3c0.5-5.5,1.1-11.1,1.4-16.6c0.3-5.6,0.3-11.3,0-17c-0.3-6.4-0.7-12.8-1.2-19.2
	C209.7,519.4,207.4,519.4,207.5,520.8L207.5,520.8z"/>
<path class="st1" d="M200.8,622.4c-1.5-4.9-2.5-9.9-3-14.9c-0.5-5.2-0.2-10.3,0.2-15.5c0.2-2.6,0.4-5.2,0.3-7.7
	c-0.1-2.5-0.5-5-0.6-7.6c-0.1-2.5,0.9-4.7,1.8-7c0.8-2.2,1.3-4.5,1.5-6.8c0.5-5.4-0.6-10.9-1.6-16.2c-0.3-1.4-2.4-0.8-2.2,0.6
	c0.9,4.8,1.9,9.6,1.6,14.5c-0.1,2.4-0.6,4.8-1.4,7.1c-0.8,2.3-1.8,4.4-1.9,6.9c-0.1,2.5,0.4,5,0.6,7.5c0.1,2.6,0,5.2-0.2,7.7
	c-0.4,5.1-0.7,10.2-0.3,15.3c0.4,5.7,1.5,11.3,3.2,16.7C199.1,624.3,201.2,623.8,200.8,622.4L200.8,622.4z"/>
<path class="st2" d="M134.8,716.8c-11.8-8.5-21.1-20.5-26.4-34.1c-1.5-3.9-2.7-7.9-3.5-12c-0.8,0.5-1.7,1-2.5,1.5
	c6.4,8.2,16.8,13,27.2,12.7c1,0,1.7-0.9,1.4-1.9c-2.7-11.6-5.4-23.2-8.1-34.8c-0.8,0.5-1.7,1-2.5,1.5c8.2,7.1,17.3,13.1,27,17.9
	c2.4,1.2,4.8,2.3,7.3,3.3c2.5,1.1,5.1,2.3,7.9,2.4c4.6,0.2,7.8-3.3,8.9-7.4c1.6-5.9-1.2-11.9,0.1-17.7c-1-0.1-2-0.3-2.9-0.4
	c0.1,9,7.6,16.1,16,18.1c9.3,2.2,18.4-2.3,24.1-9.6c3.4-4.3,5.7-9.4,6.8-14.7c-1-0.1-2-0.3-2.9-0.4c1,8.6,7.6,14.9,15.4,18
	c9.4,3.7,19.5,1.7,28.5-2.2c5.7-2.5,11.1-5.8,16.4-9.1c-0.7-0.6-1.5-1.1-2.2-1.7c-2.7,9.1-5.4,18.2-8.1,27.4
	c-0.3,0.9,0.5,1.9,1.4,1.9c13.9-0.5,27.6-4.6,39.4-11.9c-0.7-0.3-1.5-0.6-2.2-0.9c3.4,17.1-1.3,35.6-12.1,49.3
	c-1.5,1.9-3.1,3.7-4.9,5.4c-0.4,0.4-0.9,0.8-1.3,1.2c-0.5,0.6-0.6,1.3-0.7,2c-0.4,1.5-0.8,3-1.2,4.5c-0.5,1.9,2.4,2.7,2.9,0.8
	c0.3-1.3,0.7-2.6,1-3.8c0.1-0.5,0.2-1.2,0.4-1.6c0.2-0.5,1-1,1.4-1.3c1.5-1.5,3-3.2,4.3-4.9c2.8-3.5,5.2-7.3,7.2-11.3
	c4-8,6.4-16.8,6.9-25.8c0.3-5.1-0.1-10.2-1.1-15.3c-0.2-0.9-1.4-1.4-2.2-0.9c-11.4,7.1-24.5,11.1-37.9,11.5c0.5,0.6,1,1.3,1.4,1.9
	c2.7-9.1,5.4-18.2,8.1-27.4c0.4-1.2-1.1-2.4-2.2-1.7c-8.5,5.3-17.4,10.8-27.5,12.5c-7.9,1.3-16.5-0.5-22.5-5.9
	c-3.1-2.8-5.4-6.5-5.9-10.6c-0.2-1.5-2.6-2.2-2.9-0.4c-1.7,8.2-6.5,16.2-14,20.3c-7.1,3.8-15.7,2.9-21.8-2.5
	c-3.2-2.8-5.3-6.6-5.3-10.9c0-1.6-2.6-2.1-2.9-0.4c-1.1,5.1,0.7,10.1,0.3,15.2c-0.2,3.4-2,7.8-6,7.8c-2.5,0-4.9-1.2-7.1-2.1
	c-2.3-1-4.6-2-6.8-3.1c-4.5-2.2-8.9-4.7-13.1-7.4c-4.7-3.1-9.2-6.4-13.5-10.1c-1.1-1-2.9-0.1-2.5,1.5c2.7,11.6,5.4,23.2,8.1,34.8
	c0.5-0.6,1-1.3,1.4-1.9c-9.7,0.3-19.1-4.1-25.1-11.8c-1-1.3-2.8,0.2-2.5,1.5c3.1,14.9,10.7,28.8,21.5,39.6c3,3,6.3,5.8,9.8,8.3
	C134.9,720.5,136.4,717.9,134.8,716.8L134.8,716.8z"/>
<g>
	<path d="M410,150.5c-12.8-20.5-28.2-39.3-45.8-56c6.8-2.1,12-8.5,12.2-15.7c10-2.5,17.6-11.9,18.1-22.2c7.5,0.3,14.6-6.5,13.8-14.3
		c-0.1-0.7-0.4-1.3-1.1-1.5c-13.6-3.5-27.7-4.2-41.7-4c-14.8,0.2-29.6,1.1-44.4,1.7c-29.9,1.2-59.9,2.5-89.8,3.7L141.2,46
		c-15,0.6-29.9,1.2-44.9,1.9c-7.2,0.3-14.3,0.5-21.5,0.9c-6.3,0.4-12.7,1-18.8,2.7c-10.6,3-18.5,9.8-25.8,17.7
		c-6.7,7.1-13.1,15.2-22.1,19.6c-2.2,1.1-4.6,1.8-7.1,2.3c-1,0.2-1.3,1.4-0.9,2.2c5.3,11.1,12.8,21,21.2,29.9
		c4.3,4.6,8.9,9,13.5,13.2c4.6,4.3,9.2,8.7,14.2,12.6c5,3.9,10.4,6,16.7,6.7c7,0.8,14.3,0.4,21.3,0.5c14.8,0.1,29.6,0.2,44.4,0.3
		c29.8,0.1,59.5,0.1,89.3-0.1c29.6-0.2,59.2-0.5,88.8-0.9c29.8-0.4,59.5-1,89.2-1.7c3.3-0.1,6.6-0.2,9.8-0.2c0.3,0.1,0.6,0.1,0.9,0
		c0.1,0,0.2,0,0.3,0C411.9,153.5,411.9,150.6,410,150.5z M321.9,152.4c-29.2,0.5-58.4,0.8-87.6,1c-29.2,0.2-58.4,0.3-87.6,0.2
		c-14.7,0-29.3-0.1-44-0.2c-7.3,0-14.7-0.1-22-0.2c-6.8-0.1-13.9,0.4-20.5-1.5c-2.9-0.9-5.5-2.3-8-4c-1.2-0.9-2.4-1.8-3.5-2.8
		c-0.2-0.2-0.4-0.3-0.6-0.5c-0.5-0.4-1-0.9-1.5-1.3c-0.8-0.7-1.6-1.4-2.4-2.1c-4.5-4.1-9-8.2-13.4-12.4
		c-8.9-8.6-17.3-17.9-23.7-28.5c-1.2-2.1-2.4-4.2-3.5-6.3c7.7-2,13.6-6.6,19.1-12c0.4-0.4,0.8-0.8,1.2-1.2
		c7.6-7.8,14.4-16.8,23.6-22.2c11.5-6.6,25.4-6.4,38.2-7c15-0.6,29.9-1.2,44.9-1.9c29.8-1.2,59.6-2.5,89.4-3.7
		c29.8-1.2,59.6-2.5,89.4-3.7c14.7-0.6,29.5-1.2,44.2-1.8c13.5-0.5,27.2-0.9,40.6,1.1c0.7,0.1,1.5,0.2,2.2,0.3
		c0.4,0.1,0.7,0.1,1.1,0.2c2.7,0.5,5.4,1,8,1.7c-0.1,5.9-5.9,11.2-12,10c-0.9-0.2-1.9,0.4-1.9,1.5c0.3,10.1-7.2,19.3-17,21.3
		c-0.6,0.1-1.1,0.8-1.1,1.4c0.4,7.1-5.2,13.8-12.3,14.5c-1.2,0.1-2.1,1.6-1.1,2.6c17.8,16.5,33.5,35.3,46.5,55.8
		C378.3,151.3,350.1,151.9,321.9,152.4z"/>
	<path class="st3" d="M406.5,150.6c-28.2,0.7-56.4,1.3-84.6,1.8c-29.2,0.5-58.4,0.8-87.6,1c-29.2,0.2-58.4,0.3-87.6,0.2
		c-14.7,0-29.3-0.1-44-0.2c-7.3,0-14.7-0.1-22-0.2c-6.8-0.1-13.9,0.4-20.5-1.5c-2.9-0.9-5.5-2.3-8-4c43.9,0.6,87.8,1.4,131.7,1.7
		c44.9,0.3,89.8-0.2,134.7-1.7c25.2-0.8,50.4-2,75.6-3.4c1-0.1,2-1.3,1.3-2.3c-10.1-13.1-20.1-26.2-30.2-39.3
		c-1.2-1.6-2.4-3.1-3.6-4.7c-1.3-1.7-2.8-3.3-3.9-5.1c-0.6-1-0.7-1.6-0.1-2.6c0.5-0.8,1.1-1.5,1.7-2.2c1.4-1.7,2.8-3.3,4.1-5
		c5.2-6.3,10.5-12.7,15.7-19.1c5.9-7.2,11.8-14.3,17.7-21.5c0.2-0.2,0.2-0.4,0.3-0.6c2.7,0.5,5.4,1,8,1.7c-0.1,5.9-5.9,11.2-12,10
		c-0.9-0.2-1.9,0.4-1.9,1.5c0.3,10.1-7.2,19.3-17,21.3c-0.6,0.1-1.1,0.8-1.1,1.4c0.4,7.1-5.2,13.8-12.3,14.5
		c-1.2,0.1-2.1,1.6-1.1,2.6C377.9,111.3,393.5,130.1,406.5,150.6z"/>
	<path d="M397.4,41.9c-0.1,0.2-0.2,0.4-0.3,0.6c-5.9,7.1-11.8,14.3-17.7,21.5c-5.2,6.4-10.5,12.7-15.7,19.1c-1.4,1.7-2.8,3.4-4.1,5
		c-0.6,0.7-1.2,1.4-1.7,2.2c-0.6,1-0.5,1.6,0.1,2.6c1.1,1.8,2.6,3.4,3.9,5.1c1.2,1.5,2.4,3.1,3.6,4.7c10,13.1,20.1,26.2,30.2,39.3
		c0.7,1-0.3,2.2-1.3,2.3c-25.2,1.4-50.4,2.6-75.6,3.4c-44.9,1.5-89.8,2-134.7,1.7c-43.9-0.3-87.8-1.1-131.7-1.7c-0.9,0-1.8,0-2.7,0
		c-1.6,0-1.9-2.1-0.8-2.8c0.2-0.2,0.5-0.2,0.8-0.2c25.2,0.3,50.4,0.7,75.7,1c44.9,0.6,89.9,1.1,134.8,0.4
		c43.8-0.7,87.6-2.3,131.4-4.7c-5.5-7.1-10.9-14.3-16.4-21.4c-5.2-6.8-10.5-13.7-15.7-20.5c-1.3-1.7-2.7-3.3-3.9-5.1
		c-0.4-0.6-0.7-1.2-0.8-1.9c0,0,0,0,0,0c-0.1-0.5-0.1-1-0.1-1.5c0,0,0,0,0,0c0-0.4,0.1-0.7,0.3-1.1c0.6-1.7,2-3.1,3.1-4.5
		c1.3-1.6,2.6-3.2,3.9-4.8c7-8.5,14-17,21-25.5c0.1-0.1,0.2-0.3,0.4-0.4c3.6-4.4,7.3-8.9,10.9-13.3c0.3-0.3,0.6-0.7,0.8-1
		C396,39,397.8,40.5,397.4,41.9z"/>
	<g>
		<g>
			<path class="st4" d="M226.6,109.2c-12.3-1.2-24.6-1.6-37-1c-21.5,1-43,6.2-64.6,4c-5.4-0.5-10.8-1.6-16.1-2.2
				c-5.4-0.7-10.8-0.7-16.2-0.7c-11,0.1-22.1,0.3-33.1,0.5c-1,0-1-1.5,0-1.5c12.4-0.2,24.9-0.6,37.3-0.5c5.3,0,10.6,0.4,15.9,1.2
				c5.4,0.8,10.8,1.7,16.2,2c10.8,0.7,21.6-0.4,32.3-1.6c10.9-1.2,21.7-2.5,32.6-2.8c10.9-0.3,21.9,0.1,32.8,1.2
				C227.5,107.8,227.5,109.3,226.6,109.2z"/>
			<path class="st4" d="M309.9,119.3c-10.2-2.1-20.7-2.3-31.1-1.5c-18.5,1.4-36.6,5.3-55.1,6c-19.1,0.7-38.2-1.2-57.2-3.3
				c-1-0.1-1-1.6,0-1.5c10.8,1.2,21.7,2.3,32.5,2.9c9.5,0.5,19.1,0.7,28.6,0.2c9.5-0.5,18.8-1.9,28.2-3.2c18-2.5,36.4-4.9,54.5-1.1
				C311.2,118,310.8,119.5,309.9,119.3z"/>
			<path class="st4" d="M330.1,51.7c-15.3,3.2-30.8,5.2-46.4,6.2c-13.9,0.9-27.9,0.8-41.8-0.1c-7-0.5-13.9-1.3-20.8-2
				c-7-0.7-14-0.9-21-0.4c-13.9,1-27.5,4.1-41.3,5.6c-14.2,1.6-28.5,1.4-42.7,1.3c-1,0-1-1.5,0-1.5c16,0.2,31.9,0.3,47.8-1.9
				c13.6-1.9,27-4.7,40.7-5.3c7-0.3,13.9,0.3,20.9,1.1c6.9,0.8,13.8,1.4,20.8,1.7c27.9,1.5,56-0.7,83.4-6.4
				C330.6,50,331,51.5,330.1,51.7z"/>
			<path class="st4" d="M354.9,92.5h-1.3c-0.1,0-0.2,0-0.3-0.1c-4.3,0-8.5,1.4-12.7,2.2c-4.2,0.8-8.6,0.9-12.9,0.9
				c-4.6,0-9.3-0.1-13.9,0c-9.1,0.1-18.1,0.4-27.2,0.5c-1,0-1-1.5,0-1.5c5.2,0,10.3-0.1,15.5-0.2c9.2-0.2,18.3-0.1,27.5-0.2
				c4.5,0,8.8-0.4,13.2-1.4c3.9-0.9,7.8-1.9,11.8-1.7c0.2,0,0.3,0,0.4,0C355.8,91,355.8,92.5,354.9,92.5z"/>
			<path class="st4" d="M383.2,54.6c-0.1,0.2-0.2,0.3-0.4,0.4c-0.1,0.1-0.3,0.2-0.5,0.1c-7.9-1.1-15.9-0.6-23.5,1.3
				c-0.9,0.2-1.3-1.2-0.4-1.5c8-2,16.2-2.4,24.3-1.3C383.2,53.8,383.3,54.3,383.2,54.6z"/>
			<path class="st4" d="M346.8,136.5c-5.7-1.2-11.4-0.4-17.1,0.4c-5.4,0.8-10.8,1.5-16.2,1.9c-10,0.6-19.9,0.1-29.8-1.2
				c-5-0.6-9.9-1.3-14.9-1.7c-4.9-0.3-9.8-0.3-14.6-0.3c-20.2,0.2-40.5,0.5-60.7,0.8c-1,0-1-1.5,0-1.5c11.4-0.2,22.9-0.3,34.3-0.5
				c10.1-0.1,20.2-0.4,30.2-0.4c5.1,0,10.1,0.2,15.1,0.7c5,0.5,9.9,1.3,14.9,1.8c9.9,1.1,19.9,1.2,29.8,0.3
				c9.6-0.9,19.6-3.9,29.3-1.9C348.2,135.2,347.8,136.7,346.8,136.5z"/>
			<path class="st4" d="M165.5,139.3c-8.7,0.7-17.4,1.1-26.1,1.2c-15.5,0.2-31-1.2-46.5-0.6c-15,0.5-29.9,2.4-44.8,4.4
				c-0.7,0.1-1.3,0.2-2,0.3c-1,0.1-1-1.4,0-1.5c0.2,0,0.3,0,0.5-0.1c8.5-1.1,17-2.2,25.5-3.1c7.7-0.8,15.4-1.4,23.2-1.6
				c7.8-0.2,15.5,0.1,23.3,0.4c15.6,0.6,31.3,0.3,46.9-0.9C166.5,137.7,166.5,139.2,165.5,139.3z"/>
			<path class="st4" d="M138.7,83.6c-8.5,0.4-17,0.8-25.6,1.1c-30,1.2-60.2,1.3-90-2.9c-0.2,0-0.3-0.1-0.4-0.2
				c-0.4-0.4,0.1-1.3,0.8-1.2c0.1,0,0.2,0,0.4,0c8.3,1.2,16.7,2,25.1,2.5c29.9,2,59.8,0.5,89.7-0.9
				C139.7,82.1,139.7,83.6,138.7,83.6z"/>
		</g>
	</g>
	<path class="st5" d="M359.2,99.4c-1.3-1.7-2.7-3.3-3.9-5.1c-0.4-0.6-0.7-1.2-0.8-1.9h-1c-0.1,0-0.2,0-0.3-0.1
		c-4.3,0-8.5,1.4-12.7,2.2c-4.2,0.8-8.6,0.9-12.9,0.9c-4.6,0-9.3-0.1-13.9,0c-9.1,0.1-18.1,0.4-27.2,0.5c-1,0-1-1.5,0-1.5
		c5.2,0,10.3-0.1,15.5-0.2c9.2-0.2,18.3-0.1,27.5-0.2c4.5,0,8.8-0.4,13.2-1.4c3.9-0.9,7.8-1.9,11.8-1.7c0-0.4,0.1-0.7,0.3-1.1
		c0.6-1.7,2-3.1,3.1-4.5c1.3-1.6,2.6-3.2,3.9-4.8c7-8.5,14-17,21-25.5c-0.1,0.1-0.3,0.2-0.5,0.1c-7.9-1.1-15.9-0.6-23.5,1.3
		c-0.9,0.2-1.3-1.2-0.4-1.5c8-2,16.2-2.4,24.3-1.3c0.5,0.1,0.6,0.5,0.5,0.9c3.6-4.4,7.3-8.9,10.9-13.3c-13.4-1.9-27.1-1.6-40.6-1.1
		c-14.7,0.6-29.5,1.2-44.2,1.8c-29.8,1.2-59.6,2.5-89.4,3.7c-29.8,1.2-59.6,2.5-89.4,3.7c-15,0.6-29.9,1.2-44.9,1.9
		c-12.8,0.5-26.7,0.4-38.2,7c-9.3,5.3-16,14.4-23.6,22.2c8.3,1.2,16.7,2,25.1,2.5c29.9,2,59.8,0.5,89.7-0.9c1,0,1,1.5,0,1.5
		c-8.5,0.4-17,0.8-25.6,1.1c-30,1.2-60.2,1.3-90-2.9c-0.2,0-0.3-0.1-0.4-0.2c-5.5,5.4-11.4,10-19.1,12c1.1,2.1,2.2,4.3,3.5,6.3
		c6.4,10.7,14.8,19.9,23.7,28.5c4.4,4.2,8.9,8.3,13.4,12.4c0.8,0.7,1.6,1.4,2.4,2.1c8.5-1.1,17-2.2,25.5-3.1
		c7.7-0.8,15.4-1.4,23.2-1.6c7.8-0.2,15.5,0.1,23.3,0.4c15.6,0.6,31.3,0.3,46.9-0.9c1-0.1,1,1.4,0,1.5c-8.7,0.7-17.4,1.1-26.1,1.2
		c-15.5,0.2-31-1.2-46.5-0.6c-15,0.5-29.9,2.4-44.8,4.4c0.2,0.2,0.4,0.4,0.6,0.5c0.2-0.2,0.5-0.2,0.8-0.2c25.2,0.3,50.4,0.7,75.7,1
		c44.9,0.6,89.9,1.1,134.8,0.4c43.8-0.7,87.6-2.3,131.4-4.7c-5.5-7.1-10.9-14.3-16.4-21.4C369.7,113.1,364.5,106.2,359.2,99.4z
		 M116,62.4c-1,0-1-1.5,0-1.5c16,0.2,31.9,0.3,47.8-1.9c13.6-1.9,27-4.7,40.7-5.3c7-0.3,13.9,0.3,20.9,1.1
		c6.9,0.8,13.8,1.4,20.8,1.7c27.9,1.5,56-0.7,83.4-6.4c0.9-0.2,1.3,1.2,0.4,1.5c-15.3,3.2-30.8,5.2-46.4,6.2
		c-13.9,0.9-27.9,0.8-41.8-0.1c-7-0.5-13.9-1.3-20.8-2c-7-0.7-14-0.9-21-0.4c-13.9,1-27.5,4.1-41.3,5.6
		C144.6,62.8,130.3,62.6,116,62.4z M125,112.1c-5.4-0.5-10.8-1.6-16.1-2.2c-5.4-0.7-10.8-0.7-16.2-0.7c-11,0.1-22.1,0.3-33.1,0.5
		c-1,0-1-1.5,0-1.5c12.4-0.2,24.9-0.6,37.3-0.5c5.3,0,10.6,0.4,15.9,1.2c5.4,0.8,10.8,1.7,16.2,2c10.8,0.7,21.6-0.4,32.3-1.6
		c10.9-1.2,21.7-2.5,32.6-2.8c10.9-0.3,21.9,0.1,32.8,1.2c1,0.1,1,1.6,0,1.5c-12.3-1.2-24.6-1.6-37-1
		C168.1,109.1,146.6,114.3,125,112.1z M166.4,119c10.8,1.2,21.7,2.3,32.5,2.9c9.5,0.5,19.1,0.7,28.6,0.2c9.5-0.5,18.8-1.9,28.2-3.2
		c18-2.5,36.4-4.9,54.5-1.1c1,0.2,0.5,1.6-0.4,1.4c-10.2-2.1-20.7-2.3-31.1-1.5c-18.5,1.4-36.6,5.3-55.1,6
		c-19.1,0.7-38.2-1.2-57.2-3.3C165.5,120.4,165.5,118.9,166.4,119z M346.8,136.5c-5.7-1.2-11.4-0.4-17.1,0.4
		c-5.4,0.8-10.8,1.5-16.2,1.9c-10,0.6-19.9,0.1-29.8-1.2c-5-0.6-9.9-1.3-14.9-1.7c-4.9-0.3-9.8-0.3-14.6-0.3
		c-20.2,0.2-40.5,0.5-60.7,0.8c-1,0-1-1.5,0-1.5c11.4-0.2,22.9-0.3,34.3-0.5c10.1-0.1,20.2-0.4,30.2-0.4c5.1,0,10.1,0.2,15.1,0.7
		c5,0.5,9.9,1.3,14.9,1.8c9.9,1.1,19.9,1.2,29.8,0.3c9.6-0.9,19.6-3.9,29.3-1.9C348.2,135.2,347.8,136.7,346.8,136.5z"/>
	<path d="M97.5,115.1c-1.6,0-2.9-0.2-4.1-0.7c-1.1-0.4-2-1.2-2.7-2.2c-0.7-1-1.2-2.3-1.5-3.9c-0.3-1.6-0.5-3.6-0.5-5.9
		c0-1.2,0-2.4,0.1-3.5c0.1-1.2,0.1-2.3,0.2-3.5c0.1-1.1,0.1-2.3,0.2-3.4c0.1-1.1,0.1-2.1,0.1-3.1c0-1.1,0-2.2-0.1-3.1
		s-0.2-1.8-0.4-2.6c-0.2-0.9-0.4-1.6-0.6-2.3C88.1,80.2,88,79.6,88,79c0-1.3,0.7-2.2,2-2.8c1.3-0.6,3.5-0.9,6.4-0.9
		c5.3,0,9.2,0.9,11.9,2.7s4,4.4,4,8c0,1.4-0.2,2.6-0.5,3.6c-0.3,1-0.7,1.9-1.1,2.7c-0.4,0.7-0.8,1.3-1.1,1.8c-0.3,0.5-0.5,0.8-0.5,1
		c0,0.2,0.1,0.3,0.3,0.6c0.2,0.2,0.4,0.5,0.7,0.8c0.3,0.3,0.6,0.7,1,1.1c0.3,0.4,0.7,0.9,1,1.4s0.5,1.1,0.7,1.8
		c0.2,0.7,0.3,1.4,0.3,2.2c0,1.1-0.2,2.2-0.6,3.2s-0.9,2-1.6,2.9c-0.7,0.9-1.5,1.7-2.5,2.5s-2,1.4-3.1,1.9c-1.1,0.5-2.4,1-3.7,1.3
		C100.3,115,98.9,115.1,97.5,115.1z M103.7,103c0-0.5-0.1-1-0.3-1.4c-0.2-0.5-0.4-0.9-0.7-1.2c-0.3-0.3-0.7-0.6-1.1-0.8
		c-0.4-0.2-0.8-0.3-1.2-0.3c-0.4,0-0.8,0.1-1.1,0.3c-0.4,0.2-0.7,0.5-0.9,0.8c-0.3,0.3-0.5,0.7-0.6,1.2c-0.1,0.5-0.2,1-0.2,1.5
		s0.1,1,0.2,1.5c0.1,0.4,0.4,0.8,0.6,1.2c0.3,0.3,0.6,0.6,0.9,0.8s0.7,0.3,1.1,0.3c0.4,0,0.9-0.1,1.3-0.3c0.4-0.2,0.8-0.5,1.1-0.8
		c0.3-0.3,0.5-0.7,0.7-1.2C103.6,104,103.7,103.5,103.7,103z M100.6,91.2c0.8,0,1.4-0.3,1.8-1c0.4-0.6,0.7-1.6,0.7-2.8
		c0-1.2-0.2-2.2-0.7-2.9c-0.5-0.7-1.1-1-1.9-1c-0.4,0-0.8,0.1-1.1,0.3s-0.6,0.4-0.9,0.8c-0.2,0.3-0.4,0.7-0.6,1.2s-0.2,1-0.2,1.5
		c0,0.6,0.1,1.1,0.2,1.6s0.4,0.9,0.6,1.2c0.3,0.3,0.6,0.6,0.9,0.8S100.2,91.2,100.6,91.2z"/>
	<path d="M138.4,115.2c-0.6,0-1.1-0.1-1.6-0.2c-0.4-0.2-0.9-0.3-1.2-0.6c-0.4-0.2-0.7-0.5-1-0.7s-0.7-0.5-1-0.7
		c-0.3-0.2-0.7-0.4-1.1-0.6c-0.4-0.2-0.8-0.2-1.3-0.2c-0.7,0-1.5,0.2-2.2,0.5c-0.7,0.3-1.4,0.7-2.1,1s-1.4,0.7-2.2,1
		c-0.8,0.3-1.6,0.5-2.4,0.5c-2.2,0-3.8-1.2-5-3.6c-1.1-2.4-1.7-5.9-1.7-10.5c0-0.2,0-0.7,0-1.3s0-1.4,0-2.2c0-0.9,0-1.8,0.1-2.9
		c0-1.1,0.1-2.2,0.1-3.3c0-0.6,0.1-1.2,0.1-1.9c0-0.7,0.1-1.2,0.1-1.7c0-0.9-0.1-1.7-0.2-2.5c-0.1-0.8-0.3-1.5-0.5-2.3
		c-0.2-0.7-0.3-1.4-0.5-2c-0.1-0.6-0.2-1.2-0.2-1.7c0-1.1,0.4-2,1.1-2.6c0.8-0.6,1.8-1,3.2-1c1.2,0,2.2,0.2,3,0.7s1.5,1.1,2,1.8
		s0.9,1.6,1.2,2.5c0.3,0.9,0.5,1.8,0.6,2.7c0.1,0.9,0.2,1.7,0.2,2.4c0,0.7,0,1.3,0,1.6c0,1.2,0,2.3,0,3.2c0,0.9,0,1.7-0.1,2.4
		c0,0.7,0,1.3-0.1,1.8c0,0.5,0,1,0,1.5c0,2.1,0.3,3.8,0.8,5.1s1.2,1.8,2.1,1.8c0.5,0,0.9-0.2,1.3-0.6c0.4-0.4,0.7-1,1-1.8
		s0.5-1.7,0.6-2.8c0.1-1.1,0.2-2.3,0.2-3.7c0-0.4,0-0.8,0-1.2s0-0.9,0-1.3c0-0.4,0-0.8,0-1.2c0-0.4,0-0.7,0-1c0-1.1-0.1-2-0.2-3
		c-0.2-0.9-0.3-1.8-0.5-2.6c-0.2-0.8-0.4-1.6-0.5-2.3c-0.2-0.7-0.2-1.4-0.2-2c0-1.3,0.4-2.3,1.2-3c0.8-0.7,1.9-1,3.4-1
		c2.3,0,4.1,1,5.2,2.9c1.1,1.9,1.7,4.9,1.7,9c0,0.8,0,1.6,0,2.5c0,0.9-0.1,1.7-0.1,2.6s-0.1,1.8-0.1,2.6c0,0.9,0,1.7,0,2.5
		c0,1.3,0.1,2.6,0.2,3.8c0.1,1.2,0.3,2.5,0.5,3.8c0.2,1,0.4,1.9,0.5,2.7s0.3,1.7,0.3,2.4c0,0.7-0.1,1.4-0.3,2
		c-0.2,0.6-0.5,1.1-0.9,1.5c-0.4,0.4-0.8,0.7-1.4,1C139.6,115.1,139,115.2,138.4,115.2z"/>
	<path d="M158.9,115.1c-0.9,0-1.6-0.2-2.3-0.5c-0.6-0.3-1.2-0.7-1.6-1.2c-0.4-0.5-0.8-1.1-1.1-1.8s-0.5-1.4-0.7-2.1
		c-0.2-0.7-0.3-1.5-0.3-2.2c-0.1-0.8-0.1-1.5-0.1-2.1c0-1,0.1-2.1,0.2-3.1c0.1-1,0.2-2,0.2-3.1c0-0.6-0.1-1.4-0.3-2.2
		c-0.2-0.8-0.5-1.7-0.8-2.6c-0.3-0.9-0.7-1.8-1.2-2.8c-0.5-0.9-1-1.8-1.5-2.6c-0.5-0.8-1.1-1.6-1.6-2.2c-0.6-0.7-1.1-1.2-1.6-1.6
		c-0.3-0.2-0.5-0.3-0.8-0.5c-0.3-0.1-0.6-0.3-0.8-0.5c-0.3-0.2-0.5-0.5-0.5-0.8c-0.1-0.3-0.1-0.6-0.1-1c0-0.6,0.1-1.3,0.3-2
		c0.2-0.8,0.5-1.5,0.9-2.2c0.4-0.7,0.9-1.3,1.5-1.8s1.2-0.7,1.9-0.7c0.9,0,1.7,0.2,2.4,0.5c0.7,0.4,1.4,0.8,2,1.4
		c0.6,0.6,1.1,1.2,1.6,2c0.5,0.7,0.9,1.5,1.3,2.3c0.4,0.8,0.7,1.5,1,2.3s0.6,1.4,0.8,2c0.3,0.6,0.5,1,0.7,1.4
		c0.2,0.4,0.4,0.5,0.6,0.5c0.2,0,0.5-0.1,0.8-0.4c0.3-0.3,0.5-0.6,0.8-1.1c0.3-0.4,0.6-0.9,0.8-1.5c0.3-0.5,0.5-1.1,0.7-1.6
		c0.2-0.5,0.4-1,0.5-1.5c0.1-0.5,0.2-0.8,0.2-1.1c0-0.4,0-0.8-0.1-1s-0.2-0.5-0.3-0.7c-0.1-0.2-0.2-0.4-0.3-0.6s-0.2-0.4-0.2-0.5
		c0-0.4,0.2-0.7,0.5-1c0.3-0.3,0.7-0.5,1.2-0.7c0.5-0.2,1-0.3,1.4-0.4c0.5-0.1,0.9-0.1,1.2-0.1c0.8,0,1.6,0.1,2.3,0.4
		c0.7,0.3,1.3,0.7,1.8,1.2c0.5,0.5,0.9,1.1,1.2,1.9c0.3,0.7,0.4,1.5,0.4,2.3c0,1.1-0.2,2.2-0.7,3.4c-0.5,1.2-1,2.3-1.7,3.4
		c-0.7,1.1-1.4,2.3-2.3,3.4c-0.8,1.1-1.6,2.2-2.2,3.2c-0.7,1-1.3,2-1.7,2.9c-0.5,0.9-0.7,1.7-0.7,2.5c0,0.7,0.1,1.4,0.4,2.2
		c0.3,0.8,0.6,1.5,0.9,2.3c0.3,0.8,0.6,1.6,0.9,2.4c0.3,0.8,0.4,1.6,0.4,2.4c0,0.8-0.2,1.6-0.5,2.3c-0.4,0.7-0.8,1.3-1.4,1.8
		s-1.3,0.9-2,1.1C160.4,115,159.6,115.1,158.9,115.1z"/>
	<path d="M199.7,119.8c-0.9,0-1.7-0.2-2.2-0.7s-0.8-1.1-0.8-1.9c0-0.3,0-0.6,0.1-0.8c0.1-0.3,0.2-0.5,0.2-0.8
		c0.1-0.2,0.2-0.5,0.2-0.7c0.1-0.2,0.1-0.5,0.1-0.7c0-0.1,0-0.2,0-0.3c0-0.1-0.1-0.1-0.2-0.2c-0.1-0.1-0.2-0.1-0.4-0.2
		c-0.2,0-0.4-0.1-0.7-0.2c-1.2-0.2-2.3-0.6-3.4-1.1c-1.1-0.5-2-1.1-2.8-1.9c-0.8-0.8-1.5-1.7-1.9-2.7s-0.7-2.2-0.7-3.5
		c0-1,0.2-2,0.5-2.9s0.8-1.6,1.3-2.3s1.2-1.1,2-1.5s1.6-0.5,2.5-0.5c0.5,0,0.9,0.1,1.1,0.2c0.2,0.1,0.3,0.3,0.3,0.6
		c0,0.2,0,0.3-0.1,0.5c-0.1,0.2-0.1,0.4-0.2,0.5c-0.1,0.2-0.2,0.4-0.2,0.6c-0.1,0.2-0.1,0.4-0.1,0.7c0,0.4,0.1,0.7,0.3,1
		c0.2,0.3,0.4,0.6,0.7,0.8c0.3,0.2,0.7,0.4,1.1,0.5c0.4,0.1,0.9,0.2,1.4,0.2c0.5,0,1-0.1,1.4-0.2c0.4-0.1,0.8-0.3,1.1-0.6
		c0.3-0.2,0.5-0.5,0.7-0.9c0.2-0.3,0.3-0.7,0.3-1.1c0-0.6-0.2-1.2-0.5-1.6c-0.4-0.5-0.8-0.9-1.4-1.4c-0.6-0.4-1.2-0.8-2-1.2
		s-1.5-0.8-2.3-1.2s-1.5-0.9-2.3-1.4c-0.7-0.5-1.4-1-2-1.6c-0.6-0.6-1-1.3-1.4-2.1c-0.4-0.8-0.5-1.7-0.5-2.7c0-1.1,0.2-2,0.6-3
		c0.4-0.9,1-1.8,1.7-2.5s1.6-1.3,2.6-1.8c1-0.5,2.1-0.8,3.2-1c0.6-0.1,1.1-0.2,1.4-0.3c0.3-0.1,0.6-0.3,0.7-0.4
		c0.1-0.2,0.2-0.3,0.3-0.5c0-0.2,0-0.3,0-0.4c0-1.5,0.2-2.7,0.7-3.4c0.5-0.7,1.2-1.1,2.2-1.1c0.4,0,0.8,0.1,1.2,0.2
		c0.4,0.1,0.7,0.3,1,0.5c0.3,0.2,0.5,0.4,0.6,0.7c0.2,0.3,0.2,0.6,0.2,0.9c0,0.3-0.1,0.6-0.2,0.8c-0.1,0.3-0.2,0.6-0.3,0.8
		c-0.1,0.3-0.2,0.5-0.3,0.8c-0.1,0.2-0.2,0.5-0.2,0.7c0,0.2,0.1,0.5,0.3,0.6s0.4,0.3,0.7,0.4c0.3,0.1,0.6,0.2,1,0.3
		c0.4,0.1,0.7,0.3,1.1,0.4c0.7,0.3,1.3,0.7,1.9,1.1c0.6,0.4,1.1,0.9,1.5,1.5c0.4,0.5,0.7,1.1,0.9,1.8c0.2,0.6,0.3,1.3,0.3,1.9
		c0,0.8-0.1,1.5-0.4,2.1s-0.7,1.1-1.1,1.4s-1.1,0.6-1.7,0.8c-0.6,0.2-1.3,0.3-2.1,0.3c-0.2,0-0.5,0-0.7-0.1
		c-0.3-0.1-0.4-0.2-0.4-0.5c0-0.1,0-0.3,0.1-0.4c0.1-0.1,0.1-0.3,0.2-0.5c0.1-0.2,0.1-0.3,0.2-0.5s0.1-0.4,0.1-0.6
		c0-0.4-0.1-0.7-0.3-1c-0.2-0.3-0.4-0.6-0.7-0.8c-0.3-0.2-0.7-0.4-1.1-0.5c-0.4-0.1-0.9-0.2-1.3-0.2c-0.9,0-1.6,0.2-2.2,0.7
		c-0.5,0.5-0.8,1.1-0.8,1.8c0,0.6,0.2,1.2,0.6,1.7c0.4,0.5,0.9,1,1.6,1.4c0.7,0.4,1.4,0.8,2.3,1.2c0.9,0.4,1.7,0.8,2.6,1.3
		c0.9,0.4,1.8,0.9,2.6,1.5s1.6,1.2,2.3,1.9c0.7,0.7,1.2,1.6,1.6,2.6c0.4,1,0.6,2.1,0.6,3.4c0,1.5-0.3,2.8-0.8,4.1
		c-0.5,1.3-1.3,2.4-2.3,3.4c-1,1-2.2,1.8-3.5,2.4c-1.4,0.6-2.9,1-4.5,1.2c-0.3,0-0.5,0.1-0.6,0.1c-0.2,0-0.3,0.1-0.4,0.1
		s-0.2,0.1-0.2,0.2c0,0.1,0,0.2,0,0.4c0,0.3,0,0.7,0.2,1c0.1,0.3,0.2,0.6,0.3,0.9c0.1,0.3,0.2,0.5,0.3,0.8s0.1,0.5,0.1,0.8
		c0,0.6-0.2,1.1-0.7,1.4S200.5,119.8,199.7,119.8z"/>
	<path d="M239.2,115.6c-0.5,0-1-0.1-1.3-0.3c-0.3-0.2-0.6-0.4-0.9-0.7c-0.3-0.2-0.5-0.5-0.8-0.7c-0.3-0.2-0.6-0.3-0.9-0.3
		c-0.3,0-0.7,0.1-1.2,0.3c-0.5,0.2-1,0.4-1.6,0.6c-0.6,0.2-1.3,0.4-2.1,0.6c-0.8,0.2-1.6,0.3-2.6,0.3c-1.8,0-3.5-0.4-5-1.3
		c-1.5-0.9-2.7-2.1-3.8-3.7s-1.8-3.5-2.4-5.8c-0.6-2.3-0.8-4.8-0.8-7.6c0-3.3,0.4-6.4,1.2-9.1c0.8-2.8,1.9-5.1,3.3-7.1
		c1.4-2,3.1-3.5,5-4.6c1.9-1.1,4.1-1.6,6.4-1.6c1.5,0,2.9,0.2,4.1,0.7c1.2,0.5,2.2,1.2,3,2.1c0.8,0.9,1.5,2,1.9,3.3s0.6,2.8,0.6,4.4
		c0,1.9-0.3,3.4-1,4.2c-0.7,0.9-1.7,1.3-3.2,1.3c-0.7,0-1.3-0.1-1.8-0.3c-0.4-0.2-0.8-0.4-1.1-0.7c-0.3-0.3-0.4-0.7-0.6-1.1
		c-0.1-0.4-0.2-0.8-0.3-1.2c-0.1-0.4-0.1-0.8-0.2-1.2c-0.1-0.4-0.2-0.7-0.3-1.1c-0.1-0.3-0.4-0.6-0.7-0.7c-0.3-0.2-0.7-0.3-1.3-0.3
		c-0.9,0-1.6,0.2-2.3,0.7s-1.3,1.2-1.8,2.1c-0.5,0.9-0.9,1.9-1.2,3.2s-0.4,2.6-0.4,4.1c0,1.6,0.2,3.2,0.5,4.6
		c0.3,1.4,0.8,2.6,1.4,3.7c0.6,1,1.3,1.8,2.1,2.4c0.8,0.6,1.7,0.9,2.7,0.9c0.7,0,1.3-0.2,1.6-0.6c0.3-0.4,0.5-1,0.5-1.9
		c0-1.1-0.2-2-0.6-2.7c-0.4-0.7-1-1-1.7-1c-0.4,0-0.8,0.1-1.2,0.2c-0.4,0.1-0.8,0.2-1.1,0.2c-0.5,0-0.9-0.3-1.3-0.9
		s-0.5-1.4-0.5-2.4c0-0.8,0.1-1.5,0.3-2c0.2-0.5,0.5-0.9,0.9-1.2s0.8-0.5,1.3-0.7c0.5-0.1,1-0.2,1.6-0.3c0.6,0,1.1-0.1,1.7,0
		c0.6,0,1.1,0,1.7,0c2.5,0,4.3,0.4,5.5,1.1c1.2,0.7,1.8,1.9,1.8,3.4c0,0.4,0,0.9-0.1,1.4c-0.1,0.5-0.2,1-0.2,1.5
		c-0.1,0.5-0.2,1.1-0.2,1.6c-0.1,0.5-0.1,1.1-0.1,1.6c0,0.8,0.1,1.5,0.2,2.2s0.3,1.4,0.5,2.1c0.2,0.7,0.3,1.3,0.5,1.9
		c0.1,0.6,0.2,1.2,0.2,1.7c0,0.6-0.1,1.2-0.3,1.8c-0.2,0.5-0.5,1-0.9,1.5c-0.4,0.4-0.8,0.8-1.3,1
		C240.2,115.5,239.7,115.6,239.2,115.6z"/>
	<path d="M258.3,115.1c-2.2,0-4.1-0.5-5.9-1.4s-3.2-2.2-4.5-4s-2.2-3.8-2.8-6.2c-0.7-2.4-1-5.2-1-8.2c0-3.1,0.3-5.9,1-8.4
		c0.7-2.5,1.6-4.7,2.8-6.5s2.7-3.2,4.4-4.2c1.7-1,3.6-1.5,5.6-1.5c2.1,0,4,0.5,5.7,1.5c1.7,1,3.2,2.5,4.4,4.3
		c1.2,1.9,2.2,4.1,2.9,6.6s1,5.4,1,8.5c0,3-0.3,5.7-1,8.1c-0.6,2.4-1.6,4.4-2.8,6.1c-1.2,1.7-2.6,3-4.3,3.9
		C262.3,114.7,260.4,115.1,258.3,115.1z M258,104.2c1.2,0,2.2-0.8,2.8-2.3c0.7-1.5,1-3.7,1-6.6c0-1.5-0.1-2.9-0.3-4.1
		c-0.2-1.3-0.4-2.3-0.8-3.3c-0.3-0.9-0.7-1.6-1.2-2.1s-1-0.8-1.5-0.8c-0.5,0-1,0.2-1.5,0.7c-0.4,0.5-0.8,1.2-1.1,2.1
		c-0.3,0.9-0.5,2-0.7,3.3c-0.2,1.3-0.2,2.7-0.2,4.3C254.5,101.3,255.7,104.2,258,104.2z"/>
	<path d="M280.5,115.2c-2.2,0-3.8-0.7-4.9-2s-1.6-3.4-1.6-6c0-1.6,0.2-3.1,0.5-4.7c0.3-1.5,0.8-3,1.3-4.5c0.5-1.5,1.1-2.9,1.7-4.3
		c0.6-1.4,1.2-2.7,1.7-4c0.5-1.3,1-2.5,1.3-3.6c0.3-1.1,0.5-2.2,0.5-3.1c0-0.5,0-0.9-0.1-1.3c-0.1-0.4-0.2-0.7-0.3-1
		c-0.1-0.3-0.2-0.6-0.3-0.8c-0.1-0.2-0.1-0.4-0.1-0.7c0-0.5,0.2-0.9,0.6-1.4c0.4-0.4,1-0.8,1.7-1.2c0.7-0.3,1.5-0.6,2.4-0.8
		c0.9-0.2,1.8-0.3,2.7-0.3c3.2,0,5.8,1.4,7.7,4.1s3.1,6.8,3.6,12.3c0.3,2.9,0.8,5.7,1.5,8.2c0.7,2.5,1.6,4.8,2.8,7
		c0.3,0.5,0.5,1,0.7,1.4s0.3,0.8,0.3,1.2c0,0.6-0.2,1.2-0.6,1.8s-0.9,1.2-1.5,1.7c-0.6,0.5-1.3,0.9-2,1.3c-0.7,0.3-1.4,0.5-2.1,0.5
		c-0.7,0-1.4-0.2-1.9-0.5c-0.6-0.3-1-0.8-1.5-1.3c-0.4-0.5-0.8-1.1-1.1-1.8c-0.3-0.6-0.5-1.3-0.7-1.9s-0.3-1.2-0.5-1.7
		c-0.1-0.5-0.2-0.9-0.3-1.2c-0.2-0.6-0.4-1.1-0.7-1.4c-0.3-0.3-0.7-0.5-1.1-0.6c-0.4-0.1-0.8-0.2-1.3-0.1c-0.4,0-0.9,0-1.3,0
		c-0.1,0-0.3,0-0.5,0s-0.5,0-0.7,0c-0.2,0-0.5,0.1-0.7,0.1c-0.2,0.1-0.4,0.1-0.5,0.2c-0.1,0.1-0.2,0.3-0.3,0.5
		c-0.1,0.2-0.2,0.5-0.2,0.8s-0.1,0.6-0.1,0.9s-0.1,0.6-0.1,0.8c0,0.4,0.1,0.7,0.2,1c0.1,0.3,0.3,0.6,0.4,0.9
		c0.2,0.3,0.3,0.6,0.4,0.9c0.1,0.3,0.2,0.6,0.2,1c0,0.6-0.1,1-0.4,1.5c-0.3,0.4-0.7,0.8-1.2,1.1c-0.5,0.3-1.1,0.5-1.8,0.7
		C282,115.1,281.2,115.2,280.5,115.2z M286.2,95.6c0,0.7,0.2,1.2,0.7,1.5c0.4,0.2,1.1,0.3,2.1,0.3c0.6,0,1,0,1.3-0.1
		c0.3-0.1,0.6-0.2,0.7-0.4c0.2-0.2,0.3-0.5,0.3-0.8c0-0.3,0.1-0.7,0.1-1.2c0-0.9-0.1-1.8-0.2-2.7c-0.1-0.9-0.3-1.7-0.5-2.4
		c-0.2-0.7-0.4-1.3-0.6-1.7c-0.2-0.4-0.4-0.7-0.6-0.7c-0.1,0-0.3,0.2-0.5,0.5c-0.2,0.3-0.5,0.7-0.7,1.2s-0.5,1-0.8,1.6
		c-0.3,0.6-0.5,1.2-0.7,1.8c-0.2,0.6-0.4,1.2-0.5,1.7C286.3,94.8,286.2,95.3,286.2,95.6z"/>
	<path d="M312.9,115.2c-1.7,0-3.1-0.9-4-2.7c-0.9-1.8-1.4-4.5-1.4-8c0-0.8,0-1.7,0.1-2.6c0.1-0.9,0.1-1.7,0.2-2.6
		c0.1-0.8,0.2-1.7,0.3-2.5c0.1-0.8,0.3-1.6,0.4-2.3c0.2-0.9,0.4-1.8,0.5-2.7c0.1-0.9,0.2-1.6,0.2-2.2c0-1.3-0.2-2.2-0.7-3
		c-0.5-0.7-1.1-1.1-2-1.1c-0.4,0-0.8,0.1-1.2,0.3s-0.7,0.4-1,0.6s-0.6,0.4-0.9,0.6c-0.3,0.2-0.6,0.3-0.8,0.3c-0.3,0-0.6-0.2-0.9-0.5
		c-0.3-0.3-0.6-0.8-0.8-1.3c-0.2-0.5-0.4-1.1-0.6-1.8c-0.1-0.7-0.2-1.4-0.2-2.1c0-1.9,0.5-3.4,1.6-4.4s2.6-1.5,4.5-1.5
		c0.9,0,1.8,0.1,2.7,0.3s1.8,0.4,2.7,0.6c0.9,0.2,1.8,0.4,2.6,0.6s1.7,0.3,2.5,0.3c0.8,0,1.6-0.1,2.3-0.3c0.7-0.2,1.4-0.4,2-0.6
		s1.2-0.4,1.7-0.6c0.5-0.2,0.9-0.3,1.2-0.3c0.4,0,0.8,0.1,1.1,0.4c0.3,0.3,0.6,0.6,0.9,1.1c0.3,0.4,0.5,1,0.6,1.6
		c0.2,0.6,0.2,1.2,0.2,1.9c0,0.9-0.1,1.7-0.4,2.2c-0.3,0.6-0.7,1-1.2,1.3c-0.5,0.3-1,0.6-1.6,0.8c-0.6,0.2-1.2,0.4-1.9,0.5
		c-0.6,0.2-1.3,0.4-1.9,0.6c-0.6,0.2-1.2,0.6-1.6,1.1c-0.5,0.5-0.9,1.1-1.2,1.8c-0.3,0.7-0.4,1.7-0.4,2.9c0,1.3,0.2,2.6,0.5,3.9
		c0.3,1.3,0.7,2.5,1.1,3.7c0.4,1.2,0.8,2.4,1.1,3.5s0.5,2.3,0.5,3.4c0,1.1-0.2,2.2-0.6,3.3c-0.4,1.1-0.9,2-1.6,2.8
		c-0.6,0.8-1.4,1.5-2.2,1.9S313.8,115.2,312.9,115.2z"/>
</g>
</svg>
