<?xml version="1.0" encoding="utf-8"?>
<!-- Generator: Adobe Illustrator 27.9.2, SVG Export Plug-In . SVG Version: 6.00 Build 0)  -->
<svg version="1.1" id="Calque_1" xmlns="http://www.w3.org/2000/svg" xmlns:xlink="http://www.w3.org/1999/xlink" x="0px" y="0px"
	 viewBox="0 0 470.7 375.8" style="enable-background:new 0 0 470.7 375.8;" xml:space="preserve">
<g>
	<path d="M69.2,131.3c-0.9,0-1.6-0.2-2.2-0.5c-0.6-0.3-1.1-0.7-1.5-1.1c-0.4-0.4-0.9-0.8-1.3-1.1c-0.4-0.3-0.9-0.5-1.5-0.5
		c-0.6,0-1.3,0.2-2.1,0.5c-0.8,0.3-1.7,0.7-2.8,1.1c-1,0.4-2.2,0.7-3.5,1.1c-1.3,0.3-2.7,0.5-4.3,0.5c-3.1,0-5.9-0.7-8.4-2.1
		c-2.5-1.4-4.6-3.5-6.4-6.2c-1.8-2.7-3.1-5.9-4-9.7c-0.9-3.8-1.4-8.1-1.4-12.8c0-5.6,0.7-10.7,2-15.4c1.3-4.6,3.1-8.6,5.5-12
		c2.4-3.3,5.2-5.9,8.5-7.8c3.3-1.8,6.9-2.8,10.9-2.8c2.6,0,4.8,0.4,6.9,1.2c2,0.8,3.7,1.9,5.1,3.5c1.4,1.5,2.5,3.4,3.2,5.5
		c0.7,2.2,1.1,4.7,1.1,7.5c0,3.3-0.6,5.7-1.7,7.1c-1.1,1.5-2.9,2.2-5.4,2.2c-1.2,0-2.3-0.2-3-0.5c-0.8-0.3-1.4-0.7-1.8-1.2
		c-0.4-0.5-0.8-1.1-0.9-1.8c-0.2-0.7-0.3-1.3-0.4-2c-0.1-0.7-0.2-1.3-0.3-2c-0.1-0.7-0.3-1.3-0.5-1.8c-0.2-0.5-0.6-0.9-1.1-1.2
		c-0.5-0.3-1.2-0.5-2.1-0.5c-1.4,0-2.7,0.4-3.9,1.2c-1.2,0.8-2.2,2-3.1,3.5s-1.5,3.3-2,5.4c-0.5,2.1-0.7,4.4-0.7,6.9
		c0,2.8,0.3,5.3,0.9,7.7c0.6,2.4,1.4,4.4,2.4,6.2c1,1.7,2.2,3.1,3.6,4.1c1.4,1,2.9,1.5,4.5,1.5c1.2,0,2.2-0.3,2.7-1
		c0.6-0.7,0.8-1.8,0.8-3.3c0-1.9-0.4-3.4-1.1-4.5c-0.7-1.1-1.7-1.7-2.9-1.7c-0.7,0-1.4,0.1-2.1,0.4c-0.7,0.2-1.3,0.4-1.8,0.4
		c-0.9,0-1.6-0.5-2.1-1.6s-0.8-2.4-0.8-4.1c0-1.4,0.2-2.5,0.6-3.3c0.4-0.9,0.9-1.6,1.5-2.1c0.6-0.5,1.4-0.9,2.2-1.1
		c0.8-0.2,1.7-0.4,2.7-0.5c1-0.1,1.9-0.1,2.9-0.1c1,0,1.9,0,2.9,0c4.2,0,7.3,0.6,9.3,1.8c2,1.2,2.9,3.1,2.9,5.8
		c0,0.7-0.1,1.5-0.2,2.3c-0.1,0.8-0.3,1.7-0.4,2.6c-0.2,0.9-0.3,1.8-0.4,2.7c-0.1,0.9-0.2,1.8-0.2,2.8c0,1.3,0.1,2.5,0.4,3.8
		c0.2,1.2,0.5,2.4,0.8,3.6c0.3,1.1,0.6,2.2,0.8,3.2c0.2,1,0.4,2,0.4,2.9c0,1-0.2,2-0.5,2.9c-0.4,0.9-0.9,1.7-1.5,2.4
		c-0.6,0.7-1.3,1.3-2.1,1.7S70.1,131.3,69.2,131.3z"/>
	<path d="M80.1,111.1c0-1.9,0.1-3.8,0.2-5.7c0.1-1.9,0.2-3.8,0.4-5.6c0.1-1.8,0.2-3.7,0.4-5.5c0.1-1.8,0.2-3.6,0.2-5.4
		c0-4.4-0.4-8.2-1.2-11.4c-0.3-1.3-0.7-2.5-1-3.7c-0.4-1.2-0.5-2.3-0.5-3.3c0-1.2,0.4-2.4,1.2-3.3s1.9-1.8,3.4-2.5
		c1.5-0.7,3.3-1.2,5.5-1.5c2.2-0.4,4.6-0.5,7.4-0.5c3.5,0,6.6,0.3,9.4,0.8c2.7,0.6,5,1.4,6.9,2.5s3.3,2.4,4.3,4
		c1,1.6,1.5,3.4,1.5,5.4c0,1.2-0.2,2.2-0.6,3.2c-0.4,1-0.9,1.8-1.5,2.4c-0.6,0.7-1.3,1.2-2.1,1.6c-0.8,0.4-1.6,0.5-2.4,0.5
		c-0.8,0-1.6-0.2-2.6-0.6s-2-0.9-3.1-1.4c-1.1-0.5-2.2-1-3.3-1.4c-1.1-0.4-2.2-0.6-3.2-0.6c-0.8,0-1.3,0.2-1.8,0.6s-0.7,0.9-1,1.5
		c-0.2,0.6-0.3,1.4-0.4,2.2c-0.1,0.8-0.1,1.7-0.1,2.5c0,1,0.1,1.8,0.4,2.5c0.3,0.7,0.6,1.2,1.1,1.7c0.4,0.4,0.9,0.7,1.5,0.9
		c0.6,0.2,1.1,0.3,1.7,0.3c0.5,0,1.1-0.1,1.9-0.3c0.8-0.2,1.6-0.3,2.5-0.3c1.7,0,3,0.5,4,1.5c0.9,1,1.4,2.5,1.4,4.4
		c0,1.5-0.3,2.7-0.8,3.7s-1.2,1.4-2.1,1.4c-0.3,0-0.7-0.1-1.2-0.2c-0.5-0.1-1-0.2-1.5-0.4c-0.5-0.1-1.1-0.3-1.7-0.4
		c-0.6-0.1-1.2-0.2-1.9-0.2c-0.8,0-1.5,0.2-2.1,0.7c-0.6,0.4-1.1,1-1.5,1.7c-0.4,0.7-0.7,1.4-1,2.2c-0.2,0.8-0.3,1.6-0.3,2.3
		c0,1.6,0.5,2.9,1.5,3.8c1,0.9,2.4,1.4,4.2,1.4c0.7,0,1.4-0.1,2.2-0.2c0.8-0.1,1.5-0.3,2.1-0.4c0.7-0.2,1.3-0.3,1.9-0.4
		c0.6-0.1,1.1-0.2,1.5-0.2c0.8,0,1.6,0.3,2.4,0.8c0.8,0.6,1.5,1.3,2.1,2.2c0.6,0.9,1.1,2,1.5,3.1c0.4,1.1,0.6,2.3,0.6,3.5
		c0,3.2-1.5,5.7-4.6,7.3c-3.1,1.6-7.7,2.4-13.8,2.4c-3.5,0-6.4-0.3-8.7-0.9c-2.3-0.6-4.1-1.7-5.5-3.2c-1.4-1.5-2.3-3.5-2.9-6
		C80.3,118,80.1,114.9,80.1,111.1z"/>
	<path d="M142,130.5c-2.9,0-5.1-1.5-6.7-4.6c-1.5-3-2.3-7.5-2.3-13.4c0-1.4,0-2.8,0.1-4.3c0.1-1.5,0.2-2.9,0.4-4.3
		c0.2-1.4,0.3-2.8,0.6-4.2c0.2-1.4,0.5-2.6,0.7-3.8c0.4-1.5,0.6-3,0.8-4.5c0.2-1.5,0.3-2.7,0.3-3.8c0-2.1-0.4-3.8-1.2-5
		c-0.8-1.2-1.9-1.8-3.3-1.8c-0.7,0-1.4,0.1-2,0.4c-0.6,0.3-1.2,0.6-1.7,0.9c-0.5,0.3-1.1,0.7-1.5,0.9c-0.5,0.3-0.9,0.4-1.3,0.4
		c-0.5,0-1.1-0.3-1.6-0.8s-1-1.3-1.4-2.2c-0.4-0.9-0.7-1.9-1-3.1c-0.2-1.2-0.4-2.3-0.4-3.6c0-3.3,0.9-5.7,2.6-7.4
		c1.7-1.7,4.3-2.5,7.7-2.5c1.5,0,3.1,0.2,4.6,0.5s3,0.7,4.5,1c1.5,0.4,3,0.7,4.4,1s2.9,0.5,4.2,0.5c1.4,0,2.6-0.1,3.9-0.4
		c1.2-0.3,2.4-0.6,3.4-1s2-0.7,2.9-1c0.8-0.3,1.5-0.4,2.1-0.4c0.7,0,1.3,0.2,1.8,0.7c0.6,0.4,1.1,1,1.5,1.8s0.8,1.6,1,2.6
		c0.3,1,0.4,2.1,0.4,3.1c0,1.6-0.2,2.8-0.7,3.8c-0.5,0.9-1.2,1.7-2,2.2c-0.8,0.6-1.7,1-2.8,1.3c-1,0.3-2.1,0.6-3.2,0.9
		c-1.1,0.3-2.2,0.7-3.2,1.1c-1,0.4-2,1-2.8,1.8c-0.8,0.8-1.5,1.8-2,3c-0.5,1.2-0.7,2.9-0.7,4.8c0,2.2,0.3,4.4,0.9,6.5
		c0.6,2.1,1.2,4.2,1.9,6.2c0.7,2,1.3,4,1.9,6c0.6,2,0.9,3.9,0.9,5.8c0,1.9-0.3,3.8-1,5.5c-0.7,1.8-1.5,3.3-2.6,4.7s-2.4,2.5-3.8,3.3
		C145,130.1,143.6,130.5,142,130.5z"/>
	<path d="M212.1,138.3c-1.6,0-2.8-0.4-3.8-1.2c-1-0.8-1.4-1.9-1.4-3.2c0-0.5,0.1-1,0.2-1.4c0.1-0.4,0.3-0.9,0.4-1.3
		c0.2-0.4,0.3-0.8,0.4-1.2s0.2-0.8,0.2-1.2c0-0.2,0-0.4-0.1-0.5c-0.1-0.1-0.2-0.2-0.3-0.3c-0.2-0.1-0.4-0.2-0.7-0.3
		c-0.3-0.1-0.7-0.2-1.2-0.3c-2-0.4-3.9-1-5.7-1.8c-1.8-0.8-3.4-1.9-4.7-3.2c-1.4-1.3-2.5-2.8-3.3-4.6c-0.8-1.8-1.2-3.7-1.2-5.9
		c0-1.7,0.3-3.4,0.8-4.8c0.5-1.5,1.3-2.7,2.2-3.8c1-1.1,2.1-1.9,3.4-2.5c1.3-0.6,2.7-0.9,4.3-0.9c0.9,0,1.5,0.1,1.9,0.3
		c0.4,0.2,0.6,0.5,0.6,1c0,0.3-0.1,0.5-0.2,0.8c-0.1,0.3-0.2,0.6-0.4,0.9c-0.1,0.3-0.3,0.7-0.4,1c-0.1,0.4-0.2,0.8-0.2,1.2
		c0,0.6,0.1,1.2,0.4,1.8c0.3,0.5,0.7,1,1.2,1.4c0.5,0.4,1.1,0.7,1.9,0.9c0.7,0.2,1.5,0.3,2.3,0.3c0.9,0,1.6-0.1,2.4-0.4
		c0.7-0.2,1.3-0.6,1.8-1c0.5-0.4,0.9-0.9,1.2-1.5c0.3-0.6,0.4-1.2,0.4-1.9c0-1-0.3-2-0.9-2.8c-0.6-0.8-1.4-1.6-2.4-2.3
		c-1-0.7-2.1-1.4-3.3-2.1c-1.2-0.7-2.5-1.3-3.8-2c-1.3-0.7-2.6-1.5-3.8-2.3s-2.4-1.7-3.3-2.8c-1-1-1.8-2.2-2.4-3.5
		c-0.6-1.3-0.9-2.8-0.9-4.5c0-1.8,0.3-3.4,1-5c0.7-1.6,1.6-3,2.8-4.2c1.2-1.2,2.6-2.3,4.3-3.1c1.7-0.8,3.5-1.4,5.4-1.6
		c1-0.2,1.8-0.3,2.3-0.6c0.5-0.2,0.9-0.5,1.2-0.7c0.2-0.3,0.4-0.5,0.4-0.8c0-0.3,0.1-0.5,0.1-0.7c0-2.6,0.4-4.5,1.2-5.7
		s2-1.8,3.7-1.8c0.7,0,1.4,0.1,2,0.3c0.6,0.2,1.1,0.5,1.6,0.8c0.5,0.3,0.8,0.7,1.1,1.2c0.3,0.5,0.4,0.9,0.4,1.5
		c0,0.5-0.1,0.9-0.3,1.4c-0.2,0.5-0.4,0.9-0.6,1.4c-0.2,0.5-0.4,0.9-0.6,1.3c-0.2,0.4-0.3,0.8-0.3,1.1c0,0.4,0.2,0.8,0.5,1
		s0.7,0.5,1.2,0.7c0.5,0.2,1,0.4,1.7,0.6c0.6,0.2,1.2,0.4,1.9,0.7c1.2,0.5,2.2,1.1,3.2,1.9c1,0.8,1.8,1.6,2.5,2.5
		c0.7,0.9,1.2,1.9,1.6,3c0.4,1.1,0.5,2.1,0.5,3.2c0,1.3-0.2,2.5-0.7,3.5s-1.1,1.8-1.9,2.4s-1.8,1.1-2.9,1.4
		c-1.1,0.3-2.3,0.4-3.5,0.4c-0.4,0-0.8,0-1.2-0.1c-0.4-0.1-0.7-0.4-0.7-0.8c0-0.2,0-0.4,0.1-0.7c0.1-0.2,0.2-0.5,0.3-0.8
		s0.2-0.6,0.3-0.9c0.1-0.3,0.1-0.7,0.1-1c0-0.6-0.1-1.2-0.4-1.7c-0.3-0.5-0.7-1-1.2-1.4s-1.1-0.7-1.8-0.9c-0.7-0.2-1.4-0.3-2.2-0.3
		c-1.5,0-2.8,0.4-3.7,1.2c-0.9,0.8-1.3,1.8-1.3,3.1c0,1.1,0.3,2.1,1,2.9c0.7,0.8,1.6,1.6,2.7,2.3c1.1,0.7,2.4,1.4,3.8,2.1
		c1.4,0.7,2.9,1.4,4.4,2.1c1.5,0.7,3,1.6,4.4,2.5c1.4,0.9,2.7,2,3.8,3.3c1.1,1.2,2,2.7,2.7,4.3c0.7,1.6,1,3.5,1,5.7
		c0,2.5-0.5,4.8-1.4,6.9c-0.9,2.1-2.2,4-3.9,5.7c-1.7,1.6-3.6,3-5.9,4c-2.3,1-4.8,1.7-7.6,2c-0.4,0.1-0.8,0.1-1.1,0.2
		c-0.3,0.1-0.5,0.1-0.6,0.2c-0.2,0.1-0.3,0.2-0.3,0.4c-0.1,0.2-0.1,0.4-0.1,0.7c0,0.6,0.1,1.1,0.3,1.6c0.2,0.5,0.4,1,0.5,1.5
		s0.4,0.9,0.5,1.4c0.2,0.4,0.2,0.9,0.2,1.3c0,1-0.4,1.8-1.2,2.4C214.5,138,213.5,138.3,212.1,138.3z"/>
	<path d="M278.6,131.3c-0.9,0-1.6-0.2-2.2-0.5c-0.6-0.3-1.1-0.7-1.5-1.1c-0.4-0.4-0.9-0.8-1.3-1.1c-0.4-0.3-0.9-0.5-1.5-0.5
		c-0.6,0-1.3,0.2-2.1,0.5c-0.8,0.3-1.7,0.7-2.8,1.1c-1,0.4-2.2,0.7-3.5,1.1c-1.3,0.3-2.7,0.5-4.3,0.5c-3.1,0-5.9-0.7-8.4-2.1
		c-2.5-1.4-4.6-3.5-6.4-6.2c-1.8-2.7-3.1-5.9-4-9.7c-0.9-3.8-1.4-8.1-1.4-12.8c0-5.6,0.7-10.7,2-15.4c1.3-4.6,3.1-8.6,5.5-12
		c2.4-3.3,5.2-5.9,8.5-7.8c3.3-1.8,6.9-2.8,10.9-2.8c2.6,0,4.8,0.4,6.9,1.2c2,0.8,3.7,1.9,5.1,3.5c1.4,1.5,2.5,3.4,3.2,5.5
		c0.7,2.2,1.1,4.7,1.1,7.5c0,3.3-0.6,5.7-1.7,7.1c-1.1,1.5-2.9,2.2-5.4,2.2c-1.2,0-2.3-0.2-3-0.5c-0.8-0.3-1.4-0.7-1.8-1.2
		c-0.4-0.5-0.8-1.1-0.9-1.8c-0.2-0.7-0.3-1.3-0.4-2c-0.1-0.7-0.2-1.3-0.3-2c-0.1-0.7-0.3-1.3-0.5-1.8c-0.2-0.5-0.6-0.9-1.1-1.2
		c-0.5-0.3-1.2-0.5-2.1-0.5c-1.4,0-2.7,0.4-3.9,1.2c-1.2,0.8-2.2,2-3.1,3.5s-1.5,3.3-2,5.4c-0.5,2.1-0.7,4.4-0.7,6.9
		c0,2.8,0.3,5.3,0.9,7.7c0.6,2.4,1.4,4.4,2.4,6.2c1,1.7,2.2,3.1,3.6,4.1c1.4,1,2.9,1.5,4.5,1.5c1.2,0,2.2-0.3,2.7-1
		c0.6-0.7,0.8-1.8,0.8-3.3c0-1.9-0.4-3.4-1.1-4.5c-0.7-1.1-1.7-1.7-2.9-1.7c-0.7,0-1.4,0.1-2.1,0.4c-0.7,0.2-1.3,0.4-1.8,0.4
		c-0.9,0-1.6-0.5-2.1-1.6s-0.8-2.4-0.8-4.1c0-1.4,0.2-2.5,0.6-3.3c0.4-0.9,0.9-1.6,1.5-2.1c0.6-0.5,1.4-0.9,2.2-1.1
		c0.8-0.2,1.7-0.4,2.7-0.5c1-0.1,1.9-0.1,2.9-0.1c1,0,1.9,0,2.9,0c4.2,0,7.3,0.6,9.3,1.8c2,1.2,2.9,3.1,2.9,5.8
		c0,0.7-0.1,1.5-0.2,2.3c-0.1,0.8-0.3,1.7-0.4,2.6c-0.2,0.9-0.3,1.8-0.4,2.7c-0.1,0.9-0.2,1.8-0.2,2.8c0,1.3,0.1,2.5,0.4,3.8
		c0.2,1.2,0.5,2.4,0.8,3.6c0.3,1.1,0.6,2.2,0.8,3.2c0.2,1,0.4,2,0.4,2.9c0,1-0.2,2-0.5,2.9c-0.4,0.9-0.9,1.7-1.5,2.4
		c-0.6,0.7-1.3,1.3-2.1,1.7S279.5,131.3,278.6,131.3z"/>
	<path d="M310.8,130.4c-3.6,0-6.9-0.8-9.9-2.3c-2.9-1.6-5.4-3.8-7.5-6.7c-2.1-2.9-3.7-6.4-4.8-10.5c-1.1-4.1-1.7-8.7-1.7-13.8
		c0-5.2,0.6-9.9,1.7-14.1s2.7-7.9,4.8-11c2.1-3.1,4.5-5.4,7.4-7.1c2.9-1.7,6-2.5,9.5-2.5c3.5,0,6.7,0.9,9.6,2.6
		c2.9,1.7,5.4,4.1,7.5,7.3c2.1,3.1,3.7,6.9,4.9,11.2c1.2,4.3,1.7,9.1,1.7,14.4c0,5-0.5,9.6-1.6,13.6c-1.1,4-2.6,7.4-4.6,10.3
		c-2,2.8-4.5,5-7.3,6.5C317.6,129.7,314.4,130.4,310.8,130.4z M310.3,112.1c2.1,0,3.6-1.3,4.8-3.9c1.1-2.6,1.7-6.3,1.7-11.1
		c0-2.5-0.2-4.8-0.5-7c-0.3-2.1-0.8-4-1.3-5.5c-0.6-1.5-1.2-2.7-2-3.6s-1.6-1.3-2.6-1.3c-0.9,0-1.7,0.4-2.5,1.2
		c-0.7,0.8-1.4,2-1.9,3.5c-0.5,1.5-0.9,3.3-1.2,5.5s-0.4,4.6-0.4,7.2C304.4,107.1,306.3,112.1,310.3,112.1z"/>
	<path d="M348.1,130.5c-3.6,0-6.4-1.1-8.2-3.4c-1.8-2.3-2.8-5.7-2.8-10.1c0-2.7,0.3-5.3,0.9-7.9s1.3-5.1,2.2-7.6
		c0.9-2.5,1.8-4.8,2.9-7.2c1-2.3,2-4.5,2.9-6.7c0.9-2.1,1.6-4.1,2.2-6c0.6-1.9,0.9-3.7,0.9-5.3c0-0.8-0.1-1.5-0.2-2.1
		c-0.1-0.6-0.3-1.2-0.4-1.7c-0.2-0.5-0.3-0.9-0.4-1.3c-0.1-0.4-0.2-0.8-0.2-1.1c0-0.8,0.4-1.5,1.1-2.3c0.7-0.7,1.7-1.4,2.9-2
		c1.2-0.6,2.6-1.1,4.1-1.4c1.5-0.4,3.1-0.5,4.6-0.5c5.4,0,9.7,2.3,12.9,6.9c3.2,4.6,5.2,11.5,6.1,20.7c0.5,4.9,1.3,9.5,2.5,13.8
		c1.2,4.2,2.7,8.2,4.6,11.8c0.5,0.9,0.9,1.7,1.2,2.3c0.3,0.7,0.5,1.3,0.5,2c0,1-0.3,2-1,3c-0.7,1.1-1.5,2-2.5,2.9
		c-1,0.9-2.1,1.6-3.3,2.1c-1.2,0.6-2.4,0.8-3.5,0.8c-1.2,0-2.3-0.3-3.3-0.9c-0.9-0.6-1.8-1.3-2.5-2.2c-0.7-0.9-1.3-1.9-1.8-3
		c-0.5-1.1-0.9-2.2-1.2-3.2c-0.3-1.1-0.6-2-0.8-2.9s-0.4-1.6-0.5-2.1c-0.3-1.1-0.7-1.8-1.2-2.3c-0.5-0.5-1.1-0.8-1.8-1
		c-0.7-0.2-1.4-0.3-2.1-0.2c-0.7,0-1.5,0-2.2,0c-0.2,0-0.5,0-0.8,0c-0.4,0-0.8,0-1.2,0.1c-0.4,0-0.8,0.1-1.2,0.2
		c-0.4,0.1-0.7,0.2-0.8,0.4c-0.2,0.2-0.3,0.4-0.4,0.9c-0.1,0.4-0.3,0.9-0.4,1.4c-0.1,0.5-0.2,1-0.2,1.6c-0.1,0.5-0.1,1-0.1,1.3
		c0,0.6,0.1,1.2,0.3,1.7c0.2,0.5,0.4,1,0.7,1.5c0.3,0.5,0.5,1,0.7,1.5c0.2,0.5,0.3,1,0.3,1.6c0,0.9-0.2,1.8-0.7,2.5
		c-0.5,0.7-1.1,1.3-2,1.8c-0.8,0.5-1.8,0.9-3,1.2C350.6,130.4,349.4,130.5,348.1,130.5z M357.8,97.6c0,1.2,0.4,2.1,1.1,2.5
		s1.9,0.6,3.5,0.6c0.9,0,1.7-0.1,2.2-0.2c0.5-0.1,0.9-0.4,1.2-0.7c0.3-0.3,0.4-0.8,0.5-1.3c0.1-0.5,0.1-1.2,0.1-2
		c0-1.5-0.1-3.1-0.3-4.6c-0.2-1.5-0.5-2.8-0.8-4c-0.3-1.2-0.6-2.2-1-2.9s-0.7-1.1-1-1.1c-0.2,0-0.5,0.3-0.9,0.8
		c-0.4,0.5-0.8,1.2-1.2,2c-0.4,0.8-0.8,1.7-1.3,2.8c-0.4,1-0.8,2.1-1.2,3.1c-0.3,1-0.6,2-0.8,2.9C357.9,96.2,357.8,97,357.8,97.6z"
		/>
	<path d="M402.7,130.5c-2.9,0-5.1-1.5-6.7-4.6c-1.5-3-2.3-7.5-2.3-13.4c0-1.4,0-2.8,0.1-4.3c0.1-1.5,0.2-2.9,0.4-4.3
		c0.2-1.4,0.3-2.8,0.6-4.2c0.2-1.4,0.5-2.6,0.7-3.8c0.4-1.5,0.6-3,0.8-4.5c0.2-1.5,0.3-2.7,0.3-3.8c0-2.1-0.4-3.8-1.2-5
		c-0.8-1.2-1.9-1.8-3.3-1.8c-0.7,0-1.4,0.1-2,0.4c-0.6,0.3-1.2,0.6-1.7,0.9c-0.5,0.3-1.1,0.7-1.5,0.9c-0.5,0.3-0.9,0.4-1.3,0.4
		c-0.5,0-1.1-0.3-1.6-0.8s-1-1.3-1.4-2.2c-0.4-0.9-0.7-1.9-1-3.1c-0.2-1.2-0.4-2.3-0.4-3.6c0-3.3,0.9-5.7,2.6-7.4
		c1.7-1.7,4.3-2.5,7.7-2.5c1.5,0,3.1,0.2,4.6,0.5s3,0.7,4.5,1c1.5,0.4,3,0.7,4.4,1s2.9,0.5,4.2,0.5c1.4,0,2.6-0.1,3.9-0.4
		c1.2-0.3,2.4-0.6,3.4-1s2-0.7,2.9-1c0.8-0.3,1.5-0.4,2.1-0.4c0.7,0,1.3,0.2,1.8,0.7c0.6,0.4,1.1,1,1.5,1.8s0.8,1.6,1,2.6
		c0.3,1,0.4,2.1,0.4,3.1c0,1.6-0.2,2.8-0.7,3.8c-0.5,0.9-1.2,1.7-2,2.2c-0.8,0.6-1.7,1-2.8,1.3c-1,0.3-2.1,0.6-3.2,0.9
		c-1.1,0.3-2.2,0.7-3.2,1.1c-1,0.4-2,1-2.8,1.8c-0.8,0.8-1.5,1.8-2,3c-0.5,1.2-0.7,2.9-0.7,4.8c0,2.2,0.3,4.4,0.9,6.5
		c0.6,2.1,1.2,4.2,1.9,6.2c0.7,2,1.3,4,1.9,6c0.6,2,0.9,3.9,0.9,5.8c0,1.9-0.3,3.8-1,5.5c-0.7,1.8-1.5,3.3-2.6,4.7s-2.4,2.5-3.8,3.3
		C405.7,130.1,404.3,130.5,402.7,130.5z"/>
</g>
<g>
	<path d="M70.4,254.9c-6.2,0-11.7-1.3-16.7-4c-4.9-2.6-9.2-6.4-12.7-11.3c-3.5-4.9-6.2-10.8-8.1-17.7c-1.9-6.9-2.8-14.7-2.8-23.3
		c0-8.7,1-16.7,2.9-23.9c1.9-7.2,4.6-13.4,8.1-18.5c3.5-5.2,7.6-9.2,12.5-12c4.9-2.9,10.2-4.3,16.1-4.3c5.9,0,11.4,1.5,16.3,4.4
		c4.9,2.9,9.1,7,12.6,12.3c3.5,5.3,6.3,11.6,8.2,18.9c2,7.3,2.9,15.4,2.9,24.3c0,8.5-0.9,16.1-2.7,22.9c-1.8,6.8-4.4,12.6-7.9,17.4
		c-3.4,4.8-7.5,8.4-12.4,11C82,253.6,76.5,254.9,70.4,254.9z M69.6,223.9c3.5,0,6.2-2.2,8.1-6.6c1.9-4.4,2.8-10.6,2.8-18.7
		c0-4.3-0.3-8.2-0.8-11.8c-0.5-3.6-1.3-6.7-2.2-9.3c-1-2.6-2.1-4.6-3.4-6.1c-1.3-1.5-2.8-2.2-4.4-2.2c-1.5,0-2.9,0.7-4.2,2
		c-1.2,1.4-2.3,3.3-3.2,5.9c-0.9,2.6-1.6,5.6-2,9.3c-0.5,3.6-0.7,7.7-0.7,12.2C59.6,215.5,62.9,223.9,69.6,223.9z"/>
	<path d="M137.7,255.1c-7,0-12.2-3-15.6-9.1c-3.4-6.1-5-15.5-5-28.2c0-3.2,0.1-6.6,0.3-10.2c0.2-3.6,0.4-7.1,0.6-10.6
		c0.2-3.5,0.4-6.8,0.6-9.9c0.2-3.1,0.3-5.8,0.3-8c0-3.7-0.2-6.8-0.7-9.5c-0.4-2.7-0.9-5-1.5-7.1c-0.6-2.1-1-4-1.5-5.6
		c-0.4-1.7-0.7-3.3-0.7-4.9c0-1.9,0.4-3.5,1.2-4.8c0.8-1.3,1.8-2.3,3.1-3.1c1.3-0.8,2.7-1.3,4.4-1.7c1.6-0.4,3.3-0.6,5-0.8
		s3.4-0.2,5-0.2c1.6,0,3.1,0,4.5,0c7.1,0,13.8,0.8,19.9,2.5c6.2,1.7,11.5,4,16,7c4.5,3,8.1,6.5,10.7,10.5c2.6,4,3.9,8.4,3.9,13.1
		c0,2.6-0.4,5.1-1.1,7.5c-0.7,2.5-1.6,4.8-2.7,7c-1.1,2.2-2.3,4.3-3.5,6.3c-1.3,2-2.4,3.7-3.5,5.3c-1.1,1.6-2,2.9-2.7,4
		c-0.7,1.1-1.1,1.9-1.1,2.4c0,0.4,0.2,1,0.5,1.8c0.3,0.7,0.8,1.6,1.4,2.5c0.6,0.9,1.4,2,2.3,3c0.9,1.1,2,2.2,3.2,3.3
		c1.3,1.2,2.7,2.4,4.3,3.7c1.5,1.3,2.9,2.6,4.2,4.1c1.3,1.5,2.3,3,3.2,4.7c0.9,1.7,1.3,3.6,1.3,5.7c0,2.6-0.5,5-1.5,7.3
		c-1,2.3-2.3,4.3-3.9,6c-1.6,1.7-3.5,3.1-5.7,4.1c-2.2,1-4.5,1.5-6.9,1.5c-2.5,0-4.8-0.6-6.8-1.7c-2-1.2-3.9-2.7-5.5-4.5
		c-1.6-1.8-3-3.9-4.2-6.2c-1.2-2.3-2.1-4.6-2.9-6.8c-0.7-2.3-1.3-4.4-1.7-6.4c-0.4-2-0.6-3.6-0.6-4.9c0-2.1-0.4-3.6-1.2-4.6
		c-0.8-1-1.6-1.5-2.5-1.5c-0.7,0-1.4,0.3-1.9,0.9c-0.6,0.6-1,1.3-1.4,2.2c-0.4,0.9-0.6,1.8-0.8,2.9c-0.2,1-0.3,2-0.3,2.9
		c0,1.6,0.3,3.1,0.8,4.7c0.5,1.5,1.1,3,1.7,4.6c0.6,1.5,1.2,3,1.7,4.5c0.5,1.5,0.8,2.9,0.8,4.4c0,1.5-0.3,2.9-1,4.1
		c-0.6,1.2-1.6,2.3-2.7,3.1s-2.6,1.5-4.3,2C141.6,254.8,139.8,255.1,137.7,255.1z M160.3,178.9c0-4.1-1-7.4-3.1-9.7
		c-2.1-2.3-5-3.5-8.7-3.5c-1.3,0-2.1,0.2-2.6,0.5c-0.5,0.4-0.7,1-0.7,1.9c0,0.5,0.1,1,0.2,1.5c0.1,0.5,0.2,1.1,0.3,1.9
		c0.1,0.8,0.2,1.8,0.3,3.1c0.1,1.3,0.2,3,0.2,5.1c0,0.6,0,1,0,1.2c0,0.2,0,0.4,0,0.6c0,0.2,0,0.3,0,0.4s0,0.4,0,0.7
		c0,2.9,0.4,5,1.1,6.2c0.7,1.2,2.1,1.7,4,1.7c2.8,0,4.9-1,6.5-3.1C159.5,185.5,160.3,182.6,160.3,178.9z"/>
	<path d="M262.4,254.9c-3.7,0-6.8-0.4-9.4-1.2c-2.6-0.8-4.8-1.9-6.6-3.4c-1.8-1.5-3.2-3.2-4.2-5.2c-1-2-1.8-4.3-2.4-6.8
		c-0.6-2.5-0.9-5.1-1.1-7.9c-0.2-2.8-0.2-5.7-0.2-8.7c0-6.6,0.1-13.2,0.4-19.8c0.3-6.6,0.4-13.1,0.4-19.7c0-3.2-0.2-6.3-0.6-9.4
		c-0.4-3.1-1-6.2-1.7-9.4c-0.2-1-0.5-1.8-0.8-2.5c-0.3-0.7-0.6-1.4-1-2.1c-0.3-0.7-0.6-1.4-0.8-2.1c-0.2-0.7-0.3-1.6-0.3-2.6
		c0-2.6,0.8-4.8,2.5-6.4c1.6-1.6,3.8-2.8,6.5-3.7c2.7-0.9,5.7-1.4,9.2-1.7c3.4-0.3,6.9-0.4,10.5-0.4c7.4,0,14.1,1.3,20,4
		c5.9,2.6,10.9,6.4,15,11.4c4.1,4.9,7.3,11,9.5,18.1c2.2,7.1,3.3,15.2,3.3,24.2c0,8.8-0.9,16.6-2.6,23.5c-1.7,6.9-4.5,12.7-8.3,17.4
		c-3.8,4.7-8.8,8.3-14.9,10.8C278.5,253.7,271.1,254.9,262.4,254.9z M283.1,200.2c0-2.1-0.2-4.3-0.6-6.6c-0.4-2.3-1-4.5-1.8-6.7
		c-0.8-2.2-1.9-4.2-3.2-6c-1.3-1.8-2.8-3.4-4.6-4.6c-0.4-0.3-0.9-0.6-1.5-0.9c-0.5-0.3-1-0.4-1.5-0.4c-0.4,0-0.8,0.3-1.1,0.9
		c-0.3,0.6-0.5,1.3-0.6,2.2c-0.1,0.9-0.2,1.9-0.3,2.9c0,1.1-0.1,2.1,0,3.1c0,1,0,1.9,0.1,2.8c0,0.8,0,1.4,0,1.8c0,0.6,0,1.6,0,3
		c0,1.4,0,3,0,4.8c0,1.8,0.1,3.8,0.1,5.9c0,2.1,0.1,4.2,0.2,6.4c0.1,2.1,0.3,4.2,0.5,6.2c0.2,2,0.5,3.7,0.8,5.2
		c0.3,1.5,0.7,2.7,1.2,3.6c0.5,0.9,1,1.4,1.7,1.4c1.3,0,2.4-0.5,3.4-1.5c1-1,1.9-2.2,2.7-3.8c0.8-1.5,1.4-3.3,2-5.1
		c0.6-1.9,1-3.8,1.4-5.6c0.4-1.8,0.6-3.6,0.8-5.2C283.1,202.4,283.1,201.1,283.1,200.2z"/>
	<path d="M338.8,255.1c-3.1,0-5.8-0.6-8-1.8c-2.2-1.2-4-2.8-5.5-4.9c-1.5-2-2.7-4.3-3.6-7c-0.9-2.6-1.5-5.3-2-8.1
		c-0.4-2.8-0.7-5.5-0.9-8.2c-0.1-2.7-0.2-5.2-0.2-7.5c0-3.1,0.1-6.1,0.3-9.2c0.2-3.1,0.4-6.1,0.6-9.2c0.2-3.1,0.4-6.1,0.6-9.2
		c0.2-3.1,0.3-6.1,0.3-9.2c0-2.8-0.2-5.5-0.5-8.2c-0.3-2.7-0.8-5.4-1.4-8.1c-0.4-1.9-0.9-3.9-1.5-5.9c-0.6-2-0.8-4-0.8-5.9
		c0-1.7,0.3-3.2,1-4.5s1.6-2.3,2.7-3.1c1.1-0.8,2.4-1.4,3.9-1.8c1.5-0.4,3-0.6,4.6-0.6c3,0,5.6,0.6,7.7,1.7c2.2,1.2,4,2.7,5.4,4.6
		c1.5,1.9,2.7,4.1,3.5,6.6c0.9,2.5,1.6,5.1,2,7.8c0.5,2.7,0.8,5.3,1,8c0.2,2.6,0.2,5.1,0.2,7.3c0,3.1-0.1,6.2-0.2,9.3
		c-0.1,3.1-0.2,6.2-0.2,9.3c0,4.4,0.2,8.7,0.7,13c0.5,4.3,1.1,8.6,1.8,12.9c0.5,2.9,1.1,5.8,1.7,8.7c0.6,2.9,0.9,5.9,0.9,8.8
		c0,4.5-1.2,8-3.7,10.5C346.8,253.8,343.3,255.1,338.8,255.1z"/>
	<path d="M361.2,222.3c0-3.3,0.1-6.5,0.3-9.7c0.2-3.2,0.4-6.3,0.6-9.5c0.2-3.1,0.4-6.2,0.6-9.3c0.2-3.1,0.3-6.1,0.3-9.1
		c0-7.4-0.7-13.8-2-19.3c-0.5-2.2-1.1-4.3-1.7-6.3c-0.6-2-0.9-3.9-0.9-5.5c0-2.1,0.7-4,2-5.6s3.2-3,5.7-4.2c2.5-1.1,5.6-2,9.3-2.6
		c3.7-0.6,7.8-0.9,12.5-0.9c5.9,0,11.2,0.5,15.8,1.4c4.6,0.9,8.5,2.3,11.7,4.2c3.2,1.8,5.6,4.1,7.2,6.8c1.6,2.7,2.5,5.7,2.5,9.1
		c0,2-0.3,3.8-1,5.4c-0.7,1.6-1.5,3-2.6,4.1c-1.1,1.1-2.3,2-3.6,2.6c-1.3,0.6-2.7,0.9-4,0.9c-1.3,0-2.7-0.4-4.4-1.1
		c-1.6-0.7-3.4-1.5-5.2-2.4c-1.8-0.9-3.6-1.6-5.5-2.3c-1.9-0.7-3.7-1.1-5.4-1.1c-1.3,0-2.3,0.3-3,1c-0.7,0.7-1.3,1.5-1.6,2.6
		c-0.4,1.1-0.6,2.3-0.7,3.7c-0.1,1.4-0.1,2.8-0.1,4.3c0,1.6,0.2,3,0.7,4.2c0.4,1.2,1,2.1,1.8,2.8c0.7,0.7,1.6,1.2,2.5,1.6
		c0.9,0.3,1.9,0.5,2.9,0.5c0.8,0,1.9-0.2,3.2-0.5c1.3-0.4,2.7-0.5,4.3-0.5c2.9,0,5.1,0.9,6.7,2.6c1.6,1.7,2.3,4.2,2.3,7.4
		c0,2.6-0.5,4.6-1.4,6.2c-0.9,1.6-2.1,2.4-3.6,2.4c-0.5,0-1.2-0.1-1.9-0.3c-0.8-0.2-1.6-0.4-2.5-0.7c-0.9-0.2-1.9-0.5-2.9-0.7
		c-1-0.2-2.1-0.3-3.2-0.3c-1.3,0-2.5,0.4-3.5,1.1c-1,0.7-1.9,1.7-2.6,2.9c-0.7,1.2-1.2,2.4-1.6,3.8c-0.4,1.4-0.6,2.7-0.6,3.9
		c0,2.7,0.9,4.9,2.6,6.4c1.7,1.5,4.1,2.3,7.2,2.3c1.2,0,2.4-0.1,3.7-0.3c1.3-0.2,2.5-0.5,3.6-0.7c1.1-0.3,2.2-0.5,3.2-0.7
		c1-0.2,1.8-0.3,2.5-0.3c1.4,0,2.7,0.5,4.1,1.4c1.3,0.9,2.5,2.2,3.6,3.8c1.1,1.6,1.9,3.3,2.6,5.2c0.7,1.9,1,3.9,1,5.9
		c0,5.5-2.6,9.6-7.8,12.3c-5.2,2.8-13,4.1-23.3,4.1c-5.9,0-10.8-0.5-14.7-1.6c-3.9-1-7-2.8-9.3-5.3c-2.3-2.5-3.9-5.9-4.9-10.2
		C361.7,234,361.2,228.7,361.2,222.3z"/>
</g>
<g>
	<path d="M65.6,375.8c-5,0-8.9-2.6-11.5-7.9c-2.6-5.3-3.9-13-3.9-23.1c0-2.4,0.1-4.9,0.2-7.4c0.2-2.5,0.4-5,0.6-7.5
		c0.3-2.5,0.6-4.9,1-7.2c0.4-2.3,0.8-4.5,1.2-6.6c0.6-2.6,1.1-5.2,1.4-7.8c0.3-2.5,0.5-4.7,0.5-6.5c0-3.6-0.7-6.5-2.1-8.6
		c-1.4-2.1-3.3-3.2-5.7-3.2c-1.2,0-2.3,0.2-3.4,0.7c-1.1,0.5-2.1,1-3,1.6c-0.9,0.6-1.8,1.1-2.7,1.6c-0.8,0.5-1.6,0.7-2.3,0.7
		c-0.9,0-1.9-0.5-2.7-1.4c-0.9-0.9-1.7-2.2-2.4-3.7c-0.7-1.5-1.2-3.3-1.6-5.3c-0.4-2-0.6-4.1-0.6-6.2c0-5.6,1.5-9.9,4.5-12.8
		c3-2.9,7.4-4.4,13.2-4.4c2.6,0,5.3,0.3,7.9,0.8c2.6,0.5,5.2,1.1,7.8,1.8c2.6,0.6,5.1,1.2,7.6,1.8c2.5,0.5,4.9,0.8,7.3,0.8
		c2.3,0,4.6-0.2,6.7-0.7c2.1-0.5,4.1-1,5.9-1.7c1.8-0.6,3.5-1.2,4.9-1.6c1.5-0.5,2.7-0.7,3.6-0.7c1.1,0,2.2,0.4,3.2,1.1
		c1,0.8,1.9,1.8,2.6,3.1c0.7,1.3,1.3,2.8,1.8,4.5c0.4,1.7,0.7,3.5,0.7,5.4c0,2.7-0.4,4.8-1.3,6.5c-0.9,1.6-2,2.9-3.4,3.9
		c-1.4,1-3,1.7-4.8,2.3c-1.8,0.5-3.6,1.1-5.5,1.6c-1.9,0.5-3.7,1.1-5.5,1.9c-1.8,0.7-3.4,1.7-4.8,3.1c-1.4,1.3-2.5,3.1-3.4,5.2
		c-0.9,2.2-1.3,4.9-1.3,8.4c0,3.9,0.5,7.6,1.5,11.3c1,3.7,2.1,7.2,3.3,10.7c1.2,3.5,2.3,6.9,3.3,10.3c1,3.4,1.5,6.7,1.5,10
		c0,3.3-0.6,6.5-1.7,9.6c-1.1,3.1-2.6,5.8-4.5,8.1c-1.9,2.4-4.1,4.2-6.5,5.6C70.8,375.1,68.2,375.8,65.6,375.8z"/>
	<path d="M133.7,375.8c-7.2,0-12.5-3.1-15.9-9.3c-3.4-6.2-5.2-15.8-5.2-28.8c0-3.3,0.1-6.7,0.3-10.4c0.2-3.6,0.4-7.2,0.6-10.8
		c0.2-3.5,0.4-6.9,0.6-10.1c0.2-3.2,0.3-5.9,0.3-8.2c0-3.7-0.2-6.9-0.7-9.7c-0.4-2.7-1-5.1-1.5-7.3c-0.6-2.1-1.1-4.1-1.5-5.8
		c-0.4-1.7-0.7-3.4-0.7-5.1c0-2,0.4-3.6,1.2-4.9c0.8-1.3,1.9-2.3,3.2-3.1c1.3-0.8,2.8-1.4,4.5-1.8c1.7-0.4,3.4-0.6,5.2-0.8
		c1.8-0.1,3.5-0.2,5.2-0.2c1.7,0,3.2,0,4.5,0c7.3,0,14.1,0.9,20.3,2.6c6.3,1.7,11.7,4.1,16.3,7.2c4.6,3.1,8.2,6.6,10.9,10.7
		c2.6,4.1,4,8.6,4,13.4c0,2.6-0.4,5.2-1.1,7.7c-0.7,2.5-1.7,4.9-2.8,7.2c-1.1,2.3-2.3,4.4-3.6,6.4c-1.3,2-2.5,3.8-3.6,5.4
		c-1.1,1.6-2.1,3-2.8,4.1c-0.7,1.1-1.1,2-1.1,2.5c0,0.4,0.2,1.1,0.5,1.8c0.3,0.8,0.8,1.6,1.4,2.6c0.6,1,1.4,2,2.4,3.1
		c0.9,1.1,2,2.2,3.3,3.3c1.3,1.2,2.8,2.5,4.4,3.8c1.6,1.3,3,2.7,4.3,4.2c1.3,1.5,2.4,3.1,3.3,4.8c0.9,1.7,1.3,3.7,1.3,5.8
		c0,2.6-0.5,5.1-1.5,7.4c-1,2.3-2.3,4.4-4,6.1c-1.7,1.8-3.6,3.1-5.8,4.2c-2.2,1-4.6,1.5-7,1.5c-2.6,0-4.9-0.6-7-1.8
		c-2.1-1.2-4-2.7-5.6-4.6c-1.6-1.9-3.1-4-4.2-6.3c-1.2-2.3-2.2-4.7-2.9-7c-0.8-2.3-1.3-4.5-1.7-6.5c-0.4-2-0.6-3.7-0.6-4.9
		c0-2.1-0.4-3.7-1.2-4.7c-0.8-1-1.7-1.5-2.5-1.5c-0.8,0-1.4,0.3-2,0.9c-0.6,0.6-1,1.3-1.4,2.2c-0.4,0.9-0.6,1.9-0.8,2.9
		c-0.2,1.1-0.3,2-0.3,2.9c0,1.6,0.3,3.2,0.8,4.7c0.5,1.5,1.1,3.1,1.8,4.6c0.6,1.5,1.2,3.1,1.8,4.6c0.5,1.5,0.8,3,0.8,4.5
		c0,1.5-0.3,2.9-1,4.2c-0.7,1.3-1.6,2.3-2.8,3.2c-1.2,0.9-2.7,1.6-4.4,2.1C137.7,375.6,135.8,375.8,133.7,375.8z M156.8,298.1
		c0-4.2-1.1-7.5-3.2-9.9c-2.1-2.4-5.1-3.6-8.9-3.6c-1.3,0-2.2,0.2-2.7,0.5c-0.5,0.4-0.7,1-0.7,2c0,0.5,0.1,1,0.2,1.5
		c0.1,0.5,0.2,1.1,0.3,1.9c0.1,0.8,0.2,1.9,0.3,3.2c0.1,1.3,0.2,3.1,0.2,5.3c0,0.6,0,1,0,1.2c0,0.2,0,0.4,0,0.6c0,0.2,0,0.3,0,0.4
		c0,0.1,0,0.4,0,0.7c0,3,0.4,5.1,1.1,6.3c0.8,1.2,2.1,1.8,4.1,1.8c2.8,0,5.1-1.1,6.7-3.2C156,304.8,156.8,301.9,156.8,298.1z"/>
	<path d="M227.4,375.6c-2.6,0-4.8-0.4-6.6-1.3c-1.9-0.9-3.4-2-4.7-3.5c-1.3-1.5-2.4-3.2-3.2-5.1c-0.8-1.9-1.4-4-1.9-6.1
		c-0.5-2.1-0.8-4.3-0.9-6.5c-0.2-2.2-0.2-4.3-0.2-6.2c0-3,0.2-6,0.5-9c0.3-3,0.5-5.9,0.5-9c0-1.8-0.3-4-0.9-6.4
		c-0.6-2.4-1.4-5-2.4-7.6c-1-2.6-2.2-5.3-3.5-8c-1.3-2.7-2.8-5.3-4.3-7.7c-1.5-2.4-3.1-4.6-4.7-6.5c-1.6-1.9-3.2-3.4-4.8-4.5
		c-0.8-0.5-1.6-1-2.5-1.4c-0.9-0.4-1.6-0.9-2.3-1.4c-0.9-0.7-1.4-1.4-1.6-2.2c-0.2-0.8-0.3-1.7-0.3-2.8c0-1.7,0.3-3.7,0.9-5.9
		c0.6-2.2,1.5-4.3,2.7-6.3c1.2-2,2.6-3.7,4.2-5.1c1.7-1.4,3.5-2.1,5.5-2.1c2.6,0,4.9,0.5,7,1.5c2.1,1,4.1,2.4,5.8,4
		c1.7,1.7,3.3,3.6,4.7,5.7c1.4,2.1,2.7,4.3,3.8,6.6c1.1,2.2,2.1,4.4,3,6.6c0.9,2.1,1.7,4,2.5,5.7c0.7,1.7,1.4,3,2,4
		c0.6,1,1.2,1.5,1.8,1.5c0.7,0,1.4-0.4,2.2-1.2c0.8-0.8,1.6-1.8,2.4-3.1c0.8-1.3,1.6-2.7,2.4-4.2c0.8-1.6,1.4-3.1,2-4.6
		c0.6-1.5,1.1-3,1.4-4.3c0.4-1.3,0.5-2.4,0.5-3.2c0-1.2-0.1-2.2-0.4-3c-0.3-0.8-0.6-1.5-0.9-2.1c-0.3-0.6-0.7-1.2-0.9-1.7
		c-0.3-0.5-0.4-1-0.4-1.6c0-1.2,0.5-2.2,1.5-3c1-0.8,2.2-1.5,3.5-2.1c1.4-0.5,2.8-0.9,4.2-1.2c1.4-0.2,2.5-0.4,3.4-0.4
		c2.4,0,4.7,0.4,6.7,1.3c2.1,0.9,3.8,2,5.4,3.6c1.5,1.5,2.7,3.3,3.5,5.4c0.9,2.1,1.3,4.3,1.3,6.7c0,3.2-0.7,6.5-2,9.8
		c-1.3,3.3-3,6.7-5,10c-2,3.3-4.2,6.6-6.5,9.8c-2.4,3.2-4.5,6.3-6.5,9.3c-2,3-3.7,5.8-5,8.5c-1.3,2.6-2,5.1-2,7.2
		c0,2,0.4,4.1,1.2,6.3c0.8,2.2,1.6,4.4,2.6,6.7c0.9,2.3,1.8,4.6,2.6,7c0.8,2.4,1.2,4.7,1.2,7c0,2.4-0.5,4.6-1.6,6.6
		c-1.1,2-2.4,3.7-4.2,5.1c-1.7,1.4-3.7,2.5-5.9,3.3C231.9,375.2,229.7,375.6,227.4,375.6z"/>
	<path d="M291.3,375.8c-3.2,0-5.9-0.6-8.1-1.9c-2.2-1.2-4.1-2.9-5.7-5c-1.5-2.1-2.7-4.4-3.6-7.1c-0.9-2.7-1.6-5.4-2-8.2
		c-0.4-2.8-0.7-5.6-0.9-8.4c-0.1-2.8-0.2-5.3-0.2-7.7c0-3.1,0.1-6.3,0.3-9.4c0.2-3.1,0.4-6.3,0.6-9.4c0.2-3.1,0.4-6.3,0.6-9.4
		c0.2-3.1,0.3-6.3,0.3-9.4c0-2.8-0.2-5.6-0.5-8.4c-0.3-2.8-0.8-5.5-1.4-8.3c-0.4-2-1-4-1.5-6c-0.6-2-0.8-4-0.8-6.1
		c0-1.8,0.3-3.3,1-4.5c0.7-1.3,1.6-2.3,2.7-3.2c1.1-0.8,2.5-1.4,3.9-1.9c1.5-0.4,3-0.6,4.6-0.6c3.1,0,5.7,0.6,7.9,1.8
		c2.2,1.2,4.1,2.8,5.6,4.7c1.5,2,2.7,4.2,3.6,6.8c0.9,2.6,1.6,5.2,2.1,7.9c0.5,2.7,0.8,5.4,1,8.1c0.2,2.7,0.2,5.2,0.2,7.5
		c0,3.2-0.1,6.4-0.2,9.5c-0.1,3.1-0.2,6.3-0.2,9.5c0,4.5,0.2,8.9,0.7,13.3c0.5,4.4,1.1,8.8,1.9,13.2c0.5,3,1.1,5.9,1.7,8.9
		c0.6,3,0.9,6,0.9,9c0,4.6-1.2,8.2-3.7,10.7C299.5,374.5,295.9,375.8,291.3,375.8z"/>
	<path d="M333.5,375.8c-3,0-5.6-0.4-7.8-1.2c-2.2-0.8-4-2-5.6-3.4c-1.5-1.5-2.8-3.2-3.8-5.2c-1-2-1.7-4.1-2.3-6.3
		c-0.5-2.2-0.9-4.6-1.1-7c-0.2-2.4-0.3-4.9-0.3-7.2c0-4,0.1-8.1,0.3-12.1c0.2-4,0.4-8.1,0.6-12.1c0.2-4,0.5-8,0.6-12.1
		c0.2-4,0.3-8,0.3-12.1c0-5.4-0.7-10.8-2-16.1c-0.4-1.7-0.9-3.5-1.5-5.3c-0.6-1.8-0.9-3.6-0.9-5.4c0-1.3,0.3-2.5,0.9-3.6
		c0.6-1.1,1.3-2.1,2.3-2.9c0.9-0.8,2-1.5,3.2-2c1.2-0.5,2.4-0.7,3.7-0.7c2.2,0,4.4,0.7,6.5,2c2.1,1.3,4.2,3.1,6.3,5.2
		c2.1,2.2,4.1,4.6,6.1,7.3c2,2.7,3.9,5.6,5.7,8.5c1.8,2.9,3.6,5.7,5.3,8.5c1.7,2.7,3.3,5.2,4.8,7.3c1.5,2.2,3,3.9,4.3,5.2
		c1.3,1.3,2.5,2,3.7,2c1,0,1.8-0.5,2.4-1.6c0.6-1.1,1-2.4,1.2-3.9c0.3-1.5,0.4-3,0.5-4.4c0-1.5,0.1-2.5,0.1-3.3
		c0-2.3-0.2-4.5-0.7-6.7c-0.4-2.2-0.9-4.3-1.4-6.3c-0.5-2-1-3.9-1.4-5.7c-0.4-1.8-0.7-3.4-0.7-4.9c0-1.6,0.4-3,1.1-4.2
		c0.7-1.2,1.7-2.1,2.8-2.9c1.2-0.7,2.5-1.3,3.9-1.6c1.4-0.3,2.9-0.5,4.2-0.5c3.1,0,5.8,0.5,8,1.5c2.2,1,4.1,2.3,5.6,4
		c1.5,1.7,2.7,3.6,3.6,5.9c0.9,2.2,1.6,4.6,2.1,7c0.5,2.5,0.8,5,1,7.5c0.2,2.6,0.2,5,0.2,7.3c0,3.6-0.1,7.3-0.2,10.9
		c-0.1,3.6-0.2,7.3-0.2,10.9c0,4.8,0.3,9.5,0.8,14.1c0.5,4.7,1.2,9.4,2,14.1c0.5,2.6,1,5.1,1.5,7.7c0.5,2.6,0.8,5.2,1,7.8v1.1
		c0,1.8-0.2,3.6-0.7,5.4c-0.5,1.8-1.2,3.3-2.3,4.6c-1,1.3-2.3,2.4-3.8,3.3c-1.5,0.8-3.3,1.2-5.3,1.2c-2.5,0-4.9-0.7-7.3-2
		c-2.4-1.3-4.8-3-7.1-5.2c-2.3-2.1-4.6-4.6-6.8-7.3c-2.2-2.7-4.3-5.5-6.4-8.3c-2-2.8-4-5.6-5.9-8.3c-1.9-2.7-3.6-5.1-5.3-7.3
		c-1.6-2.1-3.2-3.8-4.6-5.2c-1.4-1.3-2.7-2-3.8-2c-0.8,0-1.3,0.3-1.5,0.8c-0.2,0.6-0.3,1.2-0.3,1.8c0,2.6,0.5,5.3,1.4,8
		c0.9,2.7,1.9,5.4,3,8.2c1.1,2.7,2.1,5.5,3,8.2c0.9,2.8,1.4,5.5,1.4,8.1c0,1.9-0.5,3.6-1.4,4.9c-0.9,1.3-2.1,2.4-3.5,3.2
		c-1.4,0.8-3,1.4-4.7,1.8C336.8,375.6,335.1,375.8,333.5,375.8z"/>
	<path d="M420.4,259.4c2.2,0,4.1,0.5,5.8,1.4c1.7,0.9,3.2,2.2,4.4,3.7c1.2,1.6,2.2,3.4,2.8,5.6c0.7,2.2,1,4.4,1,6.9
		c0,2.7-0.4,5.5-1.1,8.2c-0.8,2.8-1.8,5.2-3,7.4c-1.3,2.2-2.7,4-4.3,5.4c-1.6,1.4-3.3,2.1-5,2.1c-0.9,0-1.8-0.2-2.7-0.5
		c-0.9-0.3-1.8-0.7-2.6-1.2c-0.8-0.5-1.5-1-2-1.6c-0.5-0.6-0.8-1.1-0.8-1.7s0.2-1.1,0.7-1.8c0.4-0.7,1-1.4,1.7-2.1
		c0.7-0.7,1.4-1.5,2.2-2.2c0.8-0.8,1.5-1.5,2.2-2.3c0.7-0.7,1.2-1.4,1.7-2.1c0.4-0.7,0.7-1.2,0.7-1.8c0-0.4-0.2-0.8-0.6-1.1
		c-0.4-0.3-0.9-0.4-1.5-0.4c-0.3,0-0.6,0.1-0.9,0.4c-0.3,0.3-0.7,0.6-1.2,0.9s-1.1,0.7-1.8,0.9c-0.7,0.3-1.6,0.4-2.6,0.4
		c-1.1,0-2.1-0.2-3.1-0.7c-1-0.4-1.8-1.2-2.6-2.3c-0.7-1.1-1.3-2.5-1.8-4.2c-0.4-1.8-0.6-3.9-0.6-6.5c0-1.5,0.4-3,1.3-4.3
		c0.9-1.3,2-2.5,3.4-3.5c1.4-1,3-1.8,4.8-2.3C416.8,259.6,418.6,259.4,420.4,259.4z"/>
</g>
<path d="M222.9,182.8c-3.9-2.7-8.9-4.1-13.3-2c-3.7,1.8-6.1,5.9-4.6,9.9c0.7,1.8,1.9,3.3,3.7,4.1c2.2,1,4.2,0.2,6.5,0.2
	c3.3,0,7.9,2.8,5.2,6.5c-1.6,2.2-4.6,2.5-7.1,2.5c-1.2,0-2.5-0.1-3.6-0.6c-0.7-0.3-1.8-1.5-1.1-2.3c1.2-1.5-0.9-3.6-2.1-2.1
	c-1.4,1.8-1.3,4.2,0.3,6c1.7,1.8,4.4,2,6.7,2.1c4.6,0,10.4-2,10.7-7.4c0.3-4.5-4.3-7.2-8.2-7.5c-2.1-0.2-4.7,1.1-6.5-0.2
	c-1.5-1-2.2-3-1.7-4.7c0.6-2.4,3-3.9,5.4-4.3c3-0.5,6,0.9,8.4,2.6C223,186.5,224.5,183.9,222.9,182.8L222.9,182.8z"/>
<path d="M213.1,176.5c-0.3,11.6,0.1,23.1,1.2,34.7c0.2,1.9,3.2,1.9,3,0c-1.1-11.5-1.5-23.1-1.2-34.7
	C216.2,174.5,213.2,174.5,213.1,176.5L213.1,176.5z"/>
<path d="M28.1,78.6c-4.2-1.6-7-5.9-9.5-9.4c-2.7-3.9-5.1-8.1-7.1-12.3c-4.1-8.6-6.8-17.9-7.9-27.4c-0.3-2.7-0.5-5.4-0.6-8.1
	c0-1.3,0-2.6,0-3.8c0-0.8-0.2-2.3,0.7-2.7C3,14.6,2.2,14.3,1.5,14c6,15.8,12.4,32.3,25.5,43.6c3.4,2.9,7.1,5.4,11.2,7.3
	c1.7,0.8,3.3-1.8,1.5-2.6C24.9,55.6,16.1,41.3,9.8,27c-2-4.5-3.7-9.1-5.5-13.7c-0.4-0.9-1.3-1.4-2.2-0.9C0,13.4,0,16,0,18
	c0,2.6,0,5.1,0.2,7.7c0.4,5.2,1.2,10.4,2.5,15.5c2.5,10.2,6.8,19.9,12.7,28.6c3.1,4.6,6.5,9.6,11.9,11.7
	C29.1,82.2,29.9,79.3,28.1,78.6L28.1,78.6z"/>
<path d="M426.1,58.7c8.5-3.8,14.3-11.8,19.6-19.1c5.9-8.1,11.2-16.7,15.7-25.6c1.2-2.3,2.2-4.6,3.4-6.8c1.1-1.9,2.4-3.7,4.6-4.3
	c-0.6-0.5-1.3-1-1.9-1.4c1.3,10.8-3.6,20.9-8.7,30.1c-5.2,9.6-10.5,19.1-16.4,28.2c-3.3,5.2-6.9,10.2-10.8,15
	c-1.2,1.5,0.9,3.6,2.1,2.1c7.1-8.7,13.2-18.2,18.8-28c2.8-4.8,5.5-9.8,8.2-14.7c2.6-4.8,5.2-9.7,7.1-14.9c2.1-5.7,3.3-11.9,2.6-18
	c-0.1-1-0.9-1.7-1.9-1.4c-4.1,1.1-6.1,4.9-7.8,8.4c-2.2,4.6-4.6,9-7.1,13.4c-5,8.6-10.7,17-17.1,24.6c-3.4,4-7.2,7.5-12,9.7
	C422.8,56.9,424.3,59.5,426.1,58.7L426.1,58.7z"/>
<path d="M174,61c4.3-0.3,7.8,3.2,8.9,7.1c1.4,4.9-0.6,10.1-3.1,14.2c-2.7,4.4-6.2,8.3-8.8,12.7c-2.2,3.6-3.6,7.5-4.2,11.6
	c-1.1,7.9,0.5,16.2,4.7,23c2.1,3.4,4.7,6.4,7.9,8.9c3.9,3,8.4,4.8,12.9,6.5c5.1,2,10.5,3.9,14.6,7.7c3.6,3.3,6.5,8.1,5.4,13.2
	c-0.4,1.9,2.5,2.7,2.9,0.8c2.1-10.1-6.7-17.9-15-21.7c-4.8-2.2-9.9-3.7-14.6-6.2c-3.8-2-7.1-4.7-9.7-8.1c-4.9-6.5-7.2-15-6.2-23.1
	c0.5-4.4,2.2-8.4,4.5-12.1c2.9-4.5,6.6-8.6,9.1-13.3c2.6-4.9,4.3-10.9,2.1-16.3c-1.9-4.5-6.2-8.3-11.3-8C172,58.1,172,61.1,174,61
	L174,61z"/>
<path d="M214.7,222.5c0.5,3.6,0.9,7.6-0.3,11.1c-0.7,2-2.1,3.2-3.6,4.6c-1.4,1.4-2.3,3-2.6,5c-0.5,4,1.4,7.7,4,10.6
	c2.8,3.2,6.1,5.9,8.3,9.6c2.3,4.1,3.5,8.8,3.3,13.5c-0.1,1.9,2.9,1.9,3,0c0.2-4.1-0.6-8.3-2.2-12.1c-1.7-4-4.3-7.2-7.3-10.2
	c-2.8-2.7-6-5.8-6.1-10c-0.1-2.1,0.9-3.5,2.4-4.9c1.5-1.4,2.7-2.8,3.5-4.7c1.6-4,1.2-8.4,0.7-12.6
	C217.5,220.6,214.5,220.6,214.7,222.5L214.7,222.5z"/>
<path d="M238.5,54.5c0.2,4.6,3.2,8.7,7.5,10.3c0.7,0.3,1.7-0.3,1.8-1c0.2-0.9-0.3-1.6-1-1.8c0,0-0.4-0.2-0.1,0
	c-0.1,0-0.2-0.1-0.3-0.1c-0.2-0.1-0.4-0.2-0.6-0.3c-0.2-0.1-0.4-0.2-0.5-0.3c-0.1-0.1-0.2-0.1-0.3-0.2c0,0-0.3-0.2-0.2-0.1
	c0.2,0.1-0.1-0.1-0.1-0.1c-0.1-0.1-0.2-0.2-0.3-0.3c-0.2-0.1-0.3-0.3-0.5-0.4c-0.2-0.2-0.3-0.3-0.5-0.5c-0.1-0.1-0.1-0.2-0.2-0.2
	c0.2,0.3,0-0.1-0.1-0.1c-0.3-0.4-0.5-0.7-0.7-1.1c-0.1-0.2-0.2-0.4-0.3-0.6c-0.1-0.3,0,0.1,0,0c0-0.1-0.1-0.2-0.1-0.3
	c-0.2-0.4-0.3-0.9-0.4-1.3c0-0.1,0-0.2-0.1-0.3c0-0.2,0-0.3,0,0c0-0.3-0.1-0.5-0.1-0.8c0-0.8-0.7-1.5-1.5-1.5
	C239.2,53,238.5,53.6,238.5,54.5L238.5,54.5z"/>
<path d="M244.2,53.6c1.1,3.3,3.9,6,7.3,6.9c0.8,0.2,1.7-0.3,1.8-1c0.2-0.8-0.2-1.6-1-1.8c-0.4-0.1-0.7-0.2-1-0.3
	c-0.3-0.1,0.3,0.1,0,0c-0.1,0-0.2-0.1-0.2-0.1c-0.1-0.1-0.3-0.2-0.4-0.2c-0.3-0.2-0.6-0.4-0.9-0.6c0,0-0.1-0.1-0.1-0.1
	c0.1,0,0.1,0.1,0.2,0.1c-0.1-0.1-0.1-0.1-0.2-0.2c-0.1-0.1-0.3-0.2-0.4-0.4c-0.3-0.2-0.5-0.5-0.7-0.8c-0.1-0.1-0.1-0.1-0.2-0.2
	c-0.1-0.1,0.2,0.3,0,0.1c-0.1-0.1-0.2-0.3-0.3-0.4c-0.2-0.3-0.4-0.6-0.5-0.9c0-0.1-0.1-0.2-0.1-0.2c-0.1-0.3,0.1,0.3,0,0
	c-0.1-0.2-0.1-0.3-0.2-0.5c-0.2-0.7-1-1.3-1.8-1C244.5,52,243.9,52.8,244.2,53.6L244.2,53.6z"/>
</svg>
