<?xml version="1.0" encoding="utf-8"?>
<!-- Generator: Adobe Illustrator 27.9.2, SVG Export Plug-In . SVG Version: 6.00 Build 0)  -->
<svg version="1.1" xmlns="http://www.w3.org/2000/svg" xmlns:xlink="http://www.w3.org/1999/xlink" x="0px" y="0px"
	 viewBox="0 0 647.2 627.1" style="enable-background:new 0 0 647.2 627.1;" xml:space="preserve">
<style type="text/css">
	.st0{fill:#333333;}
	.st1{fill:#C76B46;}
	.st2{fill:#B38368;}
	.st3{fill:#6E3F3B;}
	.st4{fill:#FFFFFF;}
	.st5{fill:#DE8F8E;}
	.st6{fill:#D5A57E;}
	.st7{fill:#FFDA64;}
	.st8{fill:#FFF0DD;}
</style>
<g id="Calque_2">
	<path d="M647.1,339.8c0.2,0.6,0.1,1.2-0.1,1.8c-0.9,2.1-1.8,4.2-2.7,6.3c-7.1,16.4-14.1,32.9-21.1,49.3
		c-7,16.5-14.1,32.9-21.2,49.4c-7,16.4-14.1,32.8-21.2,49.2c-7.1,16.4-14.2,32.8-21.3,49.1c-7.1,16.3-14.3,32.6-21.6,48.8v0
		c0.1,2.6,0.3,5.2,0.7,7.7c1.2,8.9,3.9,17.5,8,25.5H0v-22.5c0-6.6,0.6-13.2,1.7-19.7c2.1-13.4,6-26.4,9.4-39.5
		c1.7-6.6,3.3-13.2,4.5-19.9c1-5.5,1.5-11,2.2-16.6c1.2-9.9,2.5-20.4,7.6-29.2c2.5-4.2,5.8-7.9,10-10.5c2.2-1.4,4.5-2.4,7-3
		c-0.1-0.4,0-0.9,0.3-1.4c1.2-2.2,2.5-4.3,3.9-6.4c10.9-17.2,25.1-32.2,41.5-44.2c8.4-6.2,17.6-11.9,27.3-15.9
		c4.1-1.7,8.4-2.9,12.8-3.5c-2.2-9.8-3.3-19.7-3.4-29.8c-3.5,4.4-7.7,8.2-12.4,11.4c-1.3,0.9-2.8-0.6-2.5-1.9
		c4.4-22.9,8.7-45.9,13.1-68.8c-3.9,2.7-7.7,5.3-11.6,8c-1.5,1.1-3-0.9-2.3-2.3c3.9-8.3,7.6-16.8,11.1-25.3
		c11.8-29.3,20.9-59.6,27.2-90.5c-17.7-1.8-35.3-5.3-52.2-11c-17.1-5.8-33.5-14-48-24.8c-14.1-10.5-26.6-23.3-35.7-38.3
		c-4.8-7.9-8.9-17.1-9.4-26.5c-0.2-4.1,0.9-8.2,4.2-10.8c2.8-2.2,6.5-3,10-2.7c8.9,0.7,15.4,7.8,23.1,11.5c8.2,4,17.4,5.1,26.4,5.5
		c9.2,0.4,18.4,0,27.6,0.5c9.8,0.6,19.4,2.5,28.9,5.2c9.7,2.8,19.1,6.2,28.6,9.4c9.4,3.1,19.3,6.7,29.4,7.1
		c5.2,0.2,10.1-0.7,14.8-2.9c2.8-1.3,5.5-3,8.1-4.6c-0.1-0.1-0.2-0.3-0.2-0.5c-1.2-3-2.5-5.9-4-8.8c-6.3-11.8-15.3-21.9-25.8-30.2
		c-10.5-8.4-22.5-15-35-20c-15.4-6.2-31.5-10.2-47.7-13.5c-8.2-1.7-16.5-3.2-24.7-4.8c-4.1-0.8-8.1-1.5-12.2-2.3
		c-3.3-0.7-7.2-1-10.1-2.9c-2.7-1.8-3.6-5.2-1.5-7.9c2.1-2.6,6-3.2,9-4c8.2-2.1,16.4-4,24.7-5.5c16.5-3.1,33.4-5,50.2-4.9
		c16.2,0,32.6,1.9,48.3,6.2c12.8,3.6,25.2,8.9,36.6,15.7c11.2,6.8,21.6,15.2,30.3,25.1c8.6,9.9,15.5,21.2,20,33.5
		c0.2,0.6,0.1,1.2-0.3,1.5c10.2-1.6,20.7-1.8,30.8,0.1c6.5,1.2,12.9,3.4,18.8,6.7c0.2-0.1,0.3-0.2,0.5-0.2c3.9-1,7.8-1.9,11.8-2.7
		c4.5-0.9,9-1.7,13.5-2.4c-0.6-2.4-1.2-4.8-1.9-7.2c-3.2-11.6-6.9-23.3-13.2-33.6c-3.1-5-6.7-9.7-11.1-13.6
		c-4.6-4.1-10-7.2-15.9-9.3c-12.5-4.5-26.2-4.5-39.2-3c-3.2,0.3-6.4,0.8-9.5,1.3c-2.7,0.4-5.3,0.4-8,0c-2.3-0.4-4.7-1.3-6.2-3.1
		c-1.8-2.2-2-5.1-0.8-7.6c1.2-2.5,3.9-4.2,6.3-5.3c3-1.4,6.2-2.3,9.3-3.2c6.7-2,13.4-3.6,20.3-4.7c8.1-1.3,16.3-2,24.6-2
		c5.7,0,11.3,0.3,16.9,1.1c13.7,1.8,27.1,5.7,39.3,12.1c10.8,5.7,20.6,13.5,28.6,22.7c8,9.2,14.4,19.9,18.5,31.5
		c4,11.4,5.5,23.7,4,35.7c0,0,0,0,0,0.1c2.6,1.8,5,3.7,7.2,5.9c5,4.9,8.5,11,13.3,16c4.9,5.1,11.2,7.9,18,9.5
		c7.3,1.7,14.8,2.2,22.3,2.7c8.1,0.6,16.2,0.8,24.2,0.8c16.5,0,33.1-1.2,49.4-3.5c4-0.6,8-1.2,12-2c3-0.5,6-1.2,9.1-1.4
		c4.9-0.4,10.8-0.2,14.9,2.9c2,1.4,3.4,3.5,4,5.8c0.9,3.8-0.4,7.6-1.8,11.1c-2.3,5.7-5.1,11.1-8.3,16.3c-6.6,10.5-14.9,20-24.4,28
		C519.3,210.9,496,221,471.8,223c0,3.4-0.6,6.7-2.7,9.6c-2.3,3.3-5.6,5.8-8.6,8.3c-7,6-14.1,11.8-20.9,18c-2.8,2.5-5.6,5.5-5.7,9.4
		c0,4.3,2.3,8.6,3.8,12.6c3.5,8.8,6.9,17.6,10.4,26.4c2.6,6.5,6.1,13.8,5,21c0.2,0.1,0.5,0.1,0.7,0.2c20,5.8,40,11.3,60.1,16.4
		c10.1,2.6,20.2,5,30.3,7.3c3.6,0.8,7.3,1.6,10.9,2.4c1.6-3.9,2.9-8,4-12c0-0.1,0.1-0.2,0.1-0.3c0-1.2,0.1-2.4,0.5-3.6
		c1-3.1,3.8-4.9,6.8-5.8c3.4-0.9,7-1,10.4-1.1c7.7-0.1,15.4,0.9,23,2.2c14.5,2.4,29.1,5.9,43.9,4.5c0,0,0,0,0,0
		c0.2,0,0.3-0.1,0.5-0.1c0.4-0.1,0.8-0.1,1.2,0c0.2,0,0.4,0,0.6-0.1c0.7-0.1,1.1,0.4,1.1,1C647.2,339.4,647.2,339.6,647.1,339.8z"/>
</g>
<g id="Calque_1">
	<g>
		<path d="M118.5,627.1H114c-0.1-1.9-0.3-3.7-0.5-5.6c-1.2-13.3-2.9-26.6-5.2-39.7c-2.3-13.3-5-26.4-8.3-39.4
			c-3.1-12.4-6.5-24.8-10.9-36.8c-3.8-10.3-9.1-20.8-17.8-27.8c-3.8-3.1-8.5-5.5-13.2-6.8c-4.7-1.3-9.6-1.6-14.2-0.4
			c-4.6,1.2-8.4,3.6-11.5,7.1c-1.4,1.5-2.5,3.3-3.6,5.2c-1.2,2.1-1.9,3.9-2.6,6.1c-3.1,9.4-3.7,19-4.9,28.7c-1.6,13.2-5,26.1-8.5,39
			c-3.3,12.5-6.6,25-7.7,37.9c-1,10.9-0.5,22,2.7,32.4H3c-0.3-1.2-0.6-2.3-0.9-3.5c-1.4-6.2-2-12.6-2-19c0-6.6,0.6-13.2,1.7-19.7
			c2.1-13.4,6-26.4,9.4-39.5c1.7-6.6,3.3-13.2,4.5-19.9c1-5.5,1.5-11,2.2-16.6c1.2-9.9,2.5-20.4,7.6-29.2c2.5-4.2,5.8-7.9,10-10.5
			c2.2-1.4,4.5-2.4,7-3c1.7-0.5,3.5-0.8,5.2-0.9c1-0.1,2-0.1,3-0.1c11,0.2,21.5,5.7,28.8,13.9c8,9,12.6,20.2,16.3,31.5
			c4.2,12.8,7.7,25.8,10.8,39c3.1,13.4,5.7,26.9,7.8,40.5C116.1,602.3,117.5,614.7,118.5,627.1z"/>
		<path d="M356.3,427c0,0.2,0,0.3,0,0.4c-0.2,1.1-1.1,1.7-2.2,1.8c-0.6,0.1-1.2,0.2-1.8,0.2c-0.3,0-0.6,0.1-0.9,0.1
			c-2,0.3-4,0.5-6,0.7c-4.8,0.5-9.7,1-14.5,1.4c-1.4,0.1-2.9,0.2-4.3,0.3c-2.5,0.2-5.1,0.3-7.7,0.4c-1.2,0.1-2.5,0.1-3.7,0.1
			c-12.8,0.4-25.6,0.2-38.4-0.6c-22.7-1.5-45.3-5.2-67.4-10.7c-5.5-1.4-10.9-2.9-16.4-4.5c-5.6-1.7-11.2-3.5-16.8-5.4
			c-10.4-3.6-20.6-8.3-31.4-10.8c-0.5-0.1-1.1-0.2-1.6-0.4c-1-0.2-2-0.4-3.1-0.6c-2.5-0.4-5-0.6-7.5-0.6c-1.2,0-2.3,0.1-3.5,0.2
			c-0.9,0.1-1.9,0.2-2.8,0.4c-5.5,1-10.7,3.2-15.6,5.8c-9,4.6-17.6,10.2-25.5,16.6c-15,12-27.8,26.8-37.6,43.3
			c-0.3,0.6-0.7,1.2-1,1.8c-1.2,2-4,1-4.2-0.9c-0.1-0.4,0-0.9,0.3-1.4c1.2-2.2,2.5-4.3,3.9-6.4c10.9-17.2,25.1-32.2,41.5-44.2
			c8.4-6.2,17.6-11.9,27.3-15.9c4.1-1.7,8.4-2.9,12.8-3.5c1.1-0.1,2.3-0.2,3.4-0.3c0,0,0.1,0,0.1,0c3.5-0.1,7,0.2,10.5,0.8
			c1.2,0.2,2.3,0.5,3.5,0.7c1.1,0.3,2.2,0.5,3.2,0.8c5.7,1.6,11.2,3.8,16.7,5.8c5.6,2.1,11.1,4.1,16.8,5.9c3.4,1.1,6.7,2.2,10.1,3.2
			c7.8,2.4,15.7,4.5,23.7,6.4c19.1,4.5,38.6,7.6,58.2,9c1.7,0.1,3.4,0.2,5.2,0.4c1.6,0.1,3.1,0.2,4.7,0.2c2.7,0.1,5.5,0.2,8.2,0.3
			c4.2,0.1,8.5,0.2,12.8,0.1c0.7,0,1.3,0,2,0c2.1,0,4.2-0.1,6.4-0.1c0.8,0,1.5,0,2.3-0.1c1.1,0,2.3-0.1,3.4-0.1
			c1.3-0.1,2.5-0.1,3.8-0.2c1.4-0.1,2.8-0.2,4.2-0.2c9-0.6,18-1.5,27-2.7h0C355.2,424.6,356.3,425.9,356.3,427z"/>
		<path class="st0" d="M352.2,429.5c-1.9,5.1-3.7,10.1-5.6,15.2c-6.5,17.8-13,35.6-19.4,53.4c-3.7,10.2-7.3,20.5-11,30.7
			c-11.1-6.9-23-12.7-35.8-15.5c-12.1-2.6-24.9-2.3-36.5,2.2c-5.6,2.2-10.8,5.2-15.3,9.3c-4.9,4.4-8.5,10-11.4,15.9
			c-3.2,6.6-5.9,13.4-8.6,20.2c-2.7,7-5.3,14-7.8,21.1c-5,14.2-9.5,28.5-14,42.8c-0.2,0.7-0.5,1.5-0.7,2.2h-67.7
			c-1-12.4-2.4-24.7-4.3-37c-2.1-13.6-4.7-27.1-7.8-40.5c-3.1-13.1-6.6-26.2-10.8-39c-3.7-11.3-8.3-22.6-16.3-31.5
			c-7.3-8.1-17.8-13.7-28.8-13.9c-1,0-2,0-3,0.1c9.8-16.6,22.6-31.3,37.6-43.3c7.9-6.3,16.5-11.9,25.5-16.6c5-2.6,10.1-4.7,15.6-5.8
			c5.6-1.1,11.3-0.6,16.8,0.6c11.3,2.5,22,7.5,33,11.2c10.9,3.7,22,7.1,33.2,9.9c22.1,5.6,44.7,9.2,67.4,10.7
			c22.9,1.5,45.9,1,68.6-1.6C347.6,430.1,349.9,429.8,352.2,429.5z"/>
		<path class="st0" d="M114,627.1H7.7C4.5,616.6,4,605.5,5,594.6c1.1-12.9,4.4-25.4,7.7-37.9c3.4-12.9,6.8-25.7,8.5-38.9
			c1.2-9.7,1.7-19.3,4.9-28.7c0.8-2.3,1.5-4,2.6-6.1c1.1-2,2.3-3.7,3.6-5.3c3.1-3.5,7-6,11.5-7.1c4.6-1.2,9.6-0.9,14.2,0.4
			c4.8,1.3,9.4,3.6,13.2,6.8c8.7,7.1,14,17.5,17.8,27.8c4.4,12,7.8,24.5,10.9,36.8c3.3,13,6.1,26.2,8.3,39.4
			c2.3,13.2,4,26.4,5.2,39.7C113.7,623.3,113.8,625.2,114,627.1z"/>
		<path d="M317.3,590.1c0-0.3-0.1-0.5-0.1-0.8c-1.5-9-4.3-17.6-8.4-25.7c-0.6-1.2-1.2-2.4-1.9-3.5c-0.3-0.6-0.7-1.2-1-1.8
			c-1.6-2.8-3.4-5.4-5.4-8c-0.1-0.2-0.3-0.4-0.5-0.6c0,0.1,0,0.2-0.1,0.3c-0.4,1.5-0.8,3-1.2,4.6c-1,3.6-1.9,7.1-2.9,10.7
			c-0.3,1.1-2,1.8-2.8,0.8c-6.2-7.7-12.4-15.5-18.3-23.4c-1.2-1.6-2.4-3.2-3.6-4.8c-5.1-6.8-10-13.8-14.8-20.8
			c-0.3-0.5-0.6-0.9-1-1.4c0.1,0.5,0.1,1,0.2,1.5c0.2,1.7,0.2,3.4,0.2,5.1c0,1.4-1.9,2.3-2.9,1.2c-1.4-1.5-2.8-3.1-4.2-4.6
			c-1.1-1.2-2.1-2.5-3.2-3.7c-3-3.5-5.9-7-8.7-10.6c0.6,2.9,1,5.9,1,8.9c0,1.4-1.4,2-2.6,1.5c-6.4-2.9-12-7.1-17-12
			c-9.1-9-16-20-22.9-30.7c-7.3-11.3-14.6-22.7-21.9-34c0.5,4,0.9,8.1,1.4,12.1c0.2,1.6-1.9,2-2.9,1.2c-8.7-7.2-15.5-16.7-19.5-27.2
			c-0.1,2.2-0.2,4.4-0.3,6.6c-0.1,1.7-2.2,2.2-3.2,0.9c-5.2-7.7-7.9-16.9-7.9-26.1c-1.4,2.9-2.7,5.9-4.1,8.8
			c-0.7,1.5-2.6,0.8-3.1-0.4c-1.9-4.8-3.5-9.8-4.8-14.8c-0.4-1.5-0.7-2.9-1.1-4.4c-2.2-9.8-3.3-19.7-3.4-29.8
			c-3.5,4.4-7.7,8.2-12.4,11.4c-1.3,0.9-2.8-0.6-2.5-1.9c4.4-22.9,8.7-45.9,13.1-68.8c-3.9,2.7-7.7,5.3-11.6,8
			c-1.5,1.1-3-0.9-2.3-2.3c3.9-8.3,7.6-16.8,11.1-25.3c11.8-29.3,20.9-59.6,27.2-90.5c0.1-0.7,0.3-1.4,0.4-2.1c0.1-0.7,0.5-1,1-1.2
			c0.4-0.1,0.9-0.1,1.3,0.1c0.7,0.3,1.2,1,1,1.9c-0.1,0.5-0.2,1-0.3,1.5c-1.7,8.5-3.6,17-5.8,25.5c-7.5,29.5-17.7,58.3-30.3,86
			c3.3-2.3,6.6-4.6,9.9-6.8c0.8-0.5,1.5-0.3,2,0.3c0.4,0.4,0.6,1,0.5,1.6c-0.1,0.6-0.2,1.3-0.4,1.9c-4.2,22.2-8.5,44.5-12.7,66.7
			c4.3-3.5,8-7.6,11.1-12.2c0.9-1.3,3.2-0.9,3.2,0.9c-0.4,11.7,0.8,23.4,3.4,34.8c0.3,1.5,0.7,3,1.1,4.5c0.9,3.4,1.9,6.8,3.1,10.1
			c1.5-3.2,3-6.4,4.4-9.5c0.7-1.4,1.3-2.8,2-4.3c0.2-0.4,0.3-0.7,0.5-1.1c0.8-1.8,3.6-0.5,3.1,1.3c0,0.2-0.1,0.3-0.1,0.5
			c-0.4,1.5-0.6,3-0.8,4.5c-1.1,8.4,0.4,16.9,4.2,24.5c0.2-3.7,0.3-7.3,0.5-11c0.1-1.8,2.9-2.4,3.3-0.5c2.6,12.5,9,23.8,18.1,32.5
			c-0.6-5-1.1-10-1.7-14.9c-0.2-1.8,2.3-2.2,3.2-0.9c4.8,7.4,9.5,14.7,14.2,22.1c7.6,11.8,14.9,24,23.3,35.4
			c6.6,9.1,14.4,17.5,24.4,22.8c-0.3-4.8-1.5-9.6-3.5-14c-0.9-2,1.6-3.5,2.9-1.7c4.9,6.5,10,12.9,15.3,19.1c1.1,1.2,2.1,2.4,3.2,3.6
			c-0.1-1.4-0.3-2.9-0.7-4.3c-0.5-2.1-1.1-4.3-2-6.3c-0.8-2,1.7-3.6,2.9-1.7c1.6,2.3,3.2,4.7,4.7,7c1,1.4,1.9,2.8,2.9,4.2
			c5,7.3,10.2,14.4,15.5,21.5c0.7,1,1.4,1.9,2.2,2.9c0.5,0.7,1.1,1.4,1.6,2.2c0.4,0.6,0.9,1.2,1.3,1.7c4.2,5.5,8.4,10.9,12.8,16.3
			c0.8-2.8,1.5-5.6,2.3-8.4c0.4-1.5,0.8-3,1.2-4.5c0.1-0.5,0.3-1.1,0.4-1.6c0.1-0.3,0.2-0.7,0.3-1c0.3-1.1,2-1.8,2.8-0.8
			c0.9,1.1,1.7,2.2,2.6,3.2c1.5,2,2.9,4.1,4.2,6.2c0.2,0.4,0.5,0.7,0.7,1.1c0.8,1.3,1.6,2.6,2.3,4c0,0,0,0.1,0.1,0.1
			c4.7,8.6,8.1,18,9.8,27.7c0.1,0.7,0.2,1.4,0.4,2.2C321,591.4,317.7,592.3,317.3,590.1z"/>
		<path d="M328.3,120.3c-1.7-3.6-3.8-6.9-6.4-9.9c-11.8-13.5-30-18.5-47.4-18c-19.2,0.5-38.5,6.4-55.4,15.3c-4.1,2.1-8.1,4.5-12,7
			c-4,2.6-7.9,5.1-12.2,7c-9,3.8-18.6,2.9-27.9,0.6c-18.9-4.7-36.8-12.9-55.9-17.2c-9-2-18.1-2.7-27.3-2.8c-9-0.1-17.9,0.1-26.9-0.9
			c-8.6-1-17-3.4-24.4-8.1c-6.4-4.1-13.7-10.5-21.9-7.6c-8.9,3.1-4.8,15.7-2.4,22.1c3.2,8.5,8.3,16.3,13.9,23.5
			c10.5,13.5,23.7,24.7,38.3,33.7c26.7,16.4,57.2,24.4,88.2,27.5c0.4,0,0.8,0.1,1.3,0.1c6.5,0.6,13.1,1,19.7,1.3
			c2.2,0.1,2.2,3.5,0,3.4c-4.9-0.2-9.9-0.4-14.8-0.8c-1.4-0.1-2.8-0.2-4.2-0.4c-1.1-0.1-2.3-0.2-3.4-0.3c-17.7-1.8-35.3-5.3-52.2-11
			c-17.1-5.8-33.5-14-48-24.8c-14.1-10.5-26.6-23.3-35.7-38.3c-4.8-7.9-8.9-17.1-9.4-26.5c-0.2-4.1,0.9-8.2,4.2-10.8
			c2.8-2.2,6.5-3,10-2.7c8.9,0.7,15.4,7.8,23.1,11.5c8.2,4,17.4,5.1,26.4,5.5c9.2,0.4,18.4,0,27.6,0.5c9.8,0.6,19.4,2.5,28.9,5.2
			c9.7,2.8,19.1,6.2,28.6,9.4c9.4,3.1,19.3,6.7,29.4,7.1c5.2,0.2,10.1-0.7,14.8-2.9c2.8-1.3,5.5-3,8.1-4.6c0.9-0.6,1.9-1.2,2.8-1.8
			c0.4-0.3,0.8-0.5,1.3-0.8c8.1-5.2,16.8-9.5,25.8-12.9c8.2-3.2,16.9-5.7,25.8-7.3c0.7-0.1,1.4-0.2,2.2-0.4h0
			c10.2-1.6,20.7-1.8,30.8,0.1c6.5,1.2,12.9,3.4,18.8,6.7c1.4,0.8,2.7,1.6,4,2.4c7.2,4.8,13.3,11.2,17,19.2
			C332.2,120.5,329.3,122.2,328.3,120.3z"/>
		<path d="M570.6,151c-2.3,5.7-5.1,11.1-8.3,16.3c-6.6,10.5-14.9,20-24.4,28C519.3,210.9,496,221,471.8,223c-0.5,0-1,0.1-1.5,0.1
			c-1,0.1-1.6-0.6-1.6-1.4c-0.1-0.9,0.5-1.9,1.6-2c0.3,0,0.6,0,0.9-0.1c0.2,0,0.3,0,0.5,0c2.4-0.2,4.8-0.5,7.3-0.8
			c23.8-3.6,46.2-15.2,63.4-32c8.6-8.4,15.9-18.1,21.4-28.8c1.3-2.6,2.6-5.2,3.7-7.9c1.3-3.1,2.8-6.8,1.6-10.2
			c-1.7-4.5-7.2-5.4-11.4-5.5c-6.3-0.1-12.5,1.6-18.6,2.6c-7.8,1.3-15.6,2.3-23.5,3c-15.9,1.5-32,1.9-48,1.2
			c-7.5-0.3-15-0.8-22.4-1.8c-0.3,0-0.6-0.1-0.9-0.1c-0.7-0.1-1.5-0.2-2.2-0.3c-2.2-0.3-4.4-0.7-6.6-1.2c-2.6-0.6-5.1-1.4-7.5-2.4
			c-1-0.4-1.9-0.8-2.9-1.3c-6.3-3.2-10.6-8.4-14.8-13.9c-4-5.4-8.4-10.2-14-14.1c-24.2-16.8-54.9-13.3-82-6.7
			c-0.8,0.2-1.7,0.4-2.5,0.6c-1.9,0.5-2.8-2.1-1.4-3.1c0.2-0.1,0.3-0.2,0.5-0.2c3.9-1,7.8-1.9,11.8-2.7c4.5-0.9,9-1.7,13.5-2.4
			c1.1-0.1,2.3-0.3,3.4-0.4c9.9-1.1,20-1.2,29.8,0.5c9,1.6,17.8,4.6,25.6,9.4c1.1,0.6,2.1,1.3,3.2,2.1c2.6,1.8,5,3.7,7.2,5.9
			c5,4.9,8.5,11,13.3,16c4.9,5.1,11.2,7.9,18,9.5c7.3,1.7,14.8,2.2,22.3,2.7c8.1,0.6,16.2,0.8,24.2,0.8c16.5,0,33.1-1.2,49.4-3.5
			c4-0.6,8-1.2,12-2c3-0.5,6-1.2,9.1-1.4c4.9-0.4,10.8-0.2,14.9,2.9c2,1.4,3.4,3.5,4,5.8C573.4,143.7,572.1,147.5,570.6,151z"/>
		<path d="M329.2,190.8c-0.6-1.2-1.2-2.3-1.9-3.5c-0.4-0.6-0.8-1.2-1.2-1.8c-3.2-4.3-7.2-7.9-12-10.3c-5.2-2.6-10.9-4-16.7-4.6
			c-11.7-1.3-23.8-0.1-35.2,2.5c-11.6,2.7-22.9,7.2-33.1,13.4c-9,5.4-18.7,14.5-30.1,12.1c-1-0.2-2.1-0.5-3-1
			c-0.3-0.7-1-0.9-1.6-0.9c-0.5-0.3-1-0.7-1.5-1.1c-1.6-1.5-4,0.9-2.4,2.4c0.8,0.7,1.7,1.3,2.6,1.9c2.5,9.2,8.8,16.6,16.4,22.2
			c8.4,6.2,18.2,10.1,28.2,13c12.2,3.6,24.9,5.6,37.7,6.1c6.3,0.2,12.7,0.1,19-0.5c6.2-0.5,12.4-1.4,18.1-3.8
			c9.2-4,16.4-12.5,19.1-22.1C333.7,206.8,332.8,198.2,329.2,190.8z M317.3,229.9L317.3,229.9C317.3,229.9,317.3,229.9,317.3,229.9
			c-1.8,1.4-3.7,2.6-5.8,3.5c-2.7,1.2-5.5,2.1-8.4,2.7c-6,1.2-12.2,1.5-18.3,1.7c-0.9,0-1.8,0-2.7,0c-2.9,0-5.7,0-8.6-0.2
			c0,0,0,0,0,0c-8.6-0.4-17.1-1.5-25.5-3.4c-10.5-2.3-20.9-5.5-30.3-10.8c-8.1-4.5-15.5-10.7-19.6-19.2c-0.4-0.8-0.8-1.7-1.1-2.6
			c2.4,0.7,4.9,0.9,7.4,0.6c5.6-0.5,10.6-2.9,15.3-5.8c5-3.1,9.7-6.5,14.8-9.3c5-2.7,10.3-5.1,15.6-7c10.9-3.9,22.3-6.1,33.8-6.5
			c10.9-0.4,22.8,0.4,32,6.8c3.7,2.5,6.7,5.9,8.9,9.8c0.5,0.8,0.9,1.7,1.3,2.5c1.8,3.9,2.8,8.1,2.9,12.3
			C329.5,214.8,324.8,224,317.3,229.9z"/>
		<path d="M329.2,190.8c-0.4,0.6-0.9,1.1-1.4,1.6c-0.4,0.4-0.9,0.5-1.4,0.4c-1.1-0.2-2.1-1.5-1.3-2.5c0.1-0.1,0.2-0.2,0.3-0.3
			c0.8-0.8,1.5-1.7,1.9-2.6c1.3-2.9,0.9-6.5-0.7-9.2c-2.5-4.5-7.2-7.2-11.8-9.4c-18.2-8.6-39.6-7.4-58.5-1.9
			c-20.6,6-39.3,17-58.2,27.1c-1.9,1-3.7-1.9-1.7-2.9c11.1-5.9,22.1-12.1,33.5-17.5c19.6-9.2,41-16.1,62.8-14
			c5.3,0.5,10.5,1.5,15.5,3.1c4.8,1.5,9.6,3.5,13.8,6.3c1.1,0.8,2.3,1.6,3.3,2.6c0.8,0.7,1.6,1.5,2.3,2.4c1.5,1.8,2.7,3.9,3.2,6.2
			C331.8,183.7,331.4,187.8,329.2,190.8z"/>
		<path d="M311.9,243.5c-8,1.8-16,3.7-23.9,5.5c-7,1.6-14,3.4-21.1,4.6c-6.7,1.1-13.3,1.5-20,0.4c-12.4-2-23.9-8.1-34-15.4
			c-0.7-0.5-1.1-1.5-0.6-2.3c0.4-0.7,1.6-1.2,2.3-0.6c5.6,4.1,11.6,7.8,18,10.6c5.5,2.4,11.3,4.1,17.3,4.8c6.6,0.7,13.2,0,19.7-1.4
			c6.9-1.4,13.7-3.1,20.6-4.7c6.9-1.6,13.9-3.2,20.8-4.8C313.1,239.7,314,243,311.9,243.5z"/>
		<path d="M461,240.1c-3.3,2.3-6.9,3.9-10.7,5.1c-2.6,0.8-5.3,1.4-7.9,2c-12.8,2.6-26.1,5.2-39.1,3.7c-12.1-1.4-23.7-5.8-33.5-12.9
			c-0.7-0.5-1.1-1.5-0.6-2.3c0.4-0.7,1.6-1.1,2.3-0.6c5.3,3.8,11.2,6.9,17.4,9.1c5.5,1.9,11.2,3.2,17,3.6c6.4,0.5,12.8,0,19.1-0.9
			c6.2-0.9,12.5-2,18.6-3.4c5.6-1.2,11-3,15.7-6.3c0.2-0.1,0.4-0.2,0.7-0.2c0.6-0.1,1.3,0.3,1.6,0.8
			C462.1,238.6,461.8,239.5,461,240.1z"/>
		<path d="M315,157.3c-0.1,0.3-0.3,0.6-0.5,0.8c-0.4,0.4-1,0.6-1.6,0.4c-7.2-2.9-14.6-5.1-22.3-6.4c-13.5-2.4-27.4-2.2-40.9,0.3
			c-13.5,2.6-26.4,7.5-38.1,14.8c-1.9,1.2-3.6-1.8-1.7-2.9c6.7-4.2,13.9-7.7,21.4-10.4c13.2-4.8,27.3-7.1,41.3-6.9
			c12.4,0.2,24.9,2.3,36.6,6.5c1.5,0.5,3,1.1,4.5,1.7C314.7,155.6,315.3,156.4,315,157.3z"/>
		<path d="M328.3,166.8c-1.4-1.6-3-3.1-4.6-4.6c-1.6-1.5-3.2-3.1-4.8-4.6c-6.3-5.9-12.9-11.7-20-16.7c-6.9-4.8-14.4-8.5-22.7-10.1
			c-8.5-1.7-17.1-1.4-25.7-0.2c-9.8,1.4-19.4,4.1-28.8,6.9c-2.1,0.6-1.2,3.9,0.9,3.3c15.4-4.5,31.4-9.2,47.6-7.5
			c7.8,0.8,15.2,3.3,22,7.3c6.1,3.6,11.7,8.2,17,12.9c0.5,0.4,1,0.9,1.5,1.3c1.2,1.1,2.4,2.2,3.6,3.3c2.2,2,4.4,4.1,6.6,6.2
			c0.8,0.8,1.7,1.7,2.5,2.5c0.7,0.7,1.6,1.5,2.1,2.2c0.4,0.5,0.6,1,0.7,1.6c-0.5,0.1-0.9,0.5-1,0.9c-0.4,1,0.1,2.4,1.5,2.4
			c0.3,0,0.5,0,0.8-0.1C330.8,173.3,329.9,168.7,328.3,166.8z M326.5,170.9C326.5,170.9,326.5,171,326.5,170.9
			C326.4,171,326.4,170.9,326.5,170.9z"/>
		<path d="M477.2,197.7c-0.6,2-1.4,3.9-2.3,5.8c-0.5,1.1-1,2.3-1.5,3.4c-0.3,0.6-0.5,1.2-0.7,1.8c-0.7,1.9-1.2,3.8-1.2,5.8
			c-0.1,1.7,0.1,3.4,0.2,5.1c0,0.4,0.1,0.9,0.1,1.3c0,0.7,0.1,1.4,0.1,2.1c0,3.4-0.6,6.7-2.7,9.6c-2.3,3.3-5.6,5.8-8.6,8.3
			c-7,6-14.1,11.8-20.9,18c-2.8,2.5-5.6,5.5-5.7,9.4c0,4.3,2.3,8.6,3.8,12.6c3.5,8.8,6.9,17.6,10.4,26.4c2.6,6.5,6.1,13.8,5,21
			c-0.1,0.7-0.3,1.5-0.5,2.2c-0.1,0.3-0.2,0.6-0.3,0.9c-0.1,0.3-0.2,0.6-0.4,1c-0.3,0.8-0.7,1.5-1.1,2.2c-0.2,0.3-0.3,0.5-0.5,0.8
			c-0.3,0.4-0.5,0.8-0.8,1.2c-0.7,0.9-1.4,1.7-2.2,2.5c-0.7,0.7-1.4,1.3-2.2,1.9c-1.3,1-2.7,1.8-4.1,2.5c-2.8,1.4-5.8,2.5-8.9,3.4
			c-4.2,1.1-8.5,1.9-12.4,2.4c-11,1.5-22.2,2.2-33.3,1.8c-1.6,0-3.2-0.1-4.8-0.2c-5-0.3-10-0.7-15-1.4c-17.5-2.3-34.3-7-50.7-13.3
			c-16.1-6.2-31.8-13.4-48.2-18.9c-8.3-2.8-16.9-5.3-25.5-6.6c-7.9-1.2-16.4-1.1-23.7,2.6c-6.4,3.2-11.4,8.9-12.3,16.2
			c-0.9,7.8,2.3,15.6,7.2,21.5c5.1,6.1,11.6,10.8,18.3,15c6.7,4.3,13.8,8.1,21.1,11.5c14.6,6.8,30,11.6,45.6,15.3
			c15.9,3.7,32,6.2,48.2,7.9c5.3,0.6,10.5,1.1,15.8,1.6c1.5,0.1,3.1,0.3,4.7,0.4c9.4,0.7,18.9,1.1,28.3,0.8
			c16-0.5,32.3-3.1,46.8-10.2c5.3-2.6,14.3-7.4,12.7-14.8c-0.7-3.2-3.5-5.6-6.4-6.9c-3.8-1.7-8.3-1.4-12.3-0.7
			c-4.5,0.7-8.9,1.6-13.4,2.2c-4.3,0.6-8.7,1.1-13,1.4c-8.8,0.7-17.6,0.8-26.4,0.4c-2-0.1-3.9-0.2-5.8-0.3c-1.6-0.1-3.1-0.2-4.7-0.3
			c-14.2-1.2-28.3-3.5-42.2-6.6c-17.6-3.9-34.8-9.1-51.8-14.8c-17-5.8-33.9-12.1-50.7-18.6c-2-0.8-1.1-4.1,0.9-3.3
			c8.2,3.1,16.4,6.3,24.7,9.3c17.2,6.3,34.5,12.3,52.1,17.4c17.5,5,35.2,9.2,53.2,11.6c5,0.7,10,1.2,15,1.6c1.6,0.1,3.1,0.2,4.7,0.3
			c11.2,0.7,22.5,0.6,33.7-0.4c4.5-0.4,8.9-0.9,13.3-1.7c4.5-0.7,8.9-1.8,13.4-2.1c2.4-0.2,5,0,7.4,0.5c1.8,0.4,3.4,1,5,1.9
			c2.8,1.5,5,3.8,6.2,7.1c2.6,7.3-3.4,13.5-9.1,17c-3.9,2.4-8.2,4.4-12.6,6.1c-1.2,0.5-2.4,0.9-3.7,1.3c-0.9,0.3-1.8,0.6-2.7,0.8
			c-1.1,0.3-2.3,0.7-3.4,1c-1,0.3-2.1,0.5-3.1,0.8c-15,3.5-30.6,3.9-45.9,3.2c-3.8-0.2-7.7-0.4-11.5-0.7c-1.6-0.1-3.1-0.2-4.7-0.4
			c-11-0.9-22.1-2.2-33-3.8c-16.2-2.4-32.4-5.6-48.1-10.4c-15.6-4.7-30.8-11-44.8-19.2c-13.2-7.8-28.5-17.9-31.9-33.9
			c-1.6-7.5-0.2-15.3,4.8-21.3c4.6-5.4,11.6-8.8,18.6-9.8c9-1.4,18,0.3,26.7,2.5c8.5,2.1,16.9,4.9,25.1,8
			c16.3,6.1,32.1,13.5,48.6,19.1c17,5.8,34.7,9.5,52.6,10.6c1,0.1,2.1,0.1,3.1,0.2c1.6,0.1,3.2,0.1,4.8,0.2c6.4,0.1,12.9,0,19.3-0.5
			c5.1-0.4,10.3-0.8,15.4-1.7h0c2.9-0.5,5.7-1.1,8.5-1.9c1.1-0.3,2.3-0.7,3.4-1.1c2-0.7,4-1.5,5.9-2.6c1-0.5,1.9-1.1,2.8-1.8
			c1-0.8,2-1.6,2.9-2.5c0.4-0.4,0.7-0.8,1.1-1.2c0.2-0.2,0.4-0.5,0.5-0.7c0.1-0.2,0.3-0.4,0.4-0.7c0.3-0.5,0.5-0.9,0.8-1.4
			c0.3-0.7,0.6-1.3,0.8-2c0.2-0.7,0.4-1.5,0.5-2.2c0.1-0.5,0.1-1.1,0.1-1.7c0.1-4.4-1.6-8.7-3.2-12.7c-3.5-8.9-7-17.7-10.5-26.6
			c-1.7-4.3-3.6-8.5-4.9-12.9c-1.2-4-1-8.2,1.3-11.8c2.2-3.3,5.4-5.8,8.4-8.4c3.1-2.7,6.2-5.3,9.3-8c0.5-0.4,1-0.8,1.5-1.2
			c2.7-2.3,5.5-4.7,8.2-7c0.8-0.7,1.5-1.3,2.2-2c3.1-2.7,5.8-5.7,6.1-10c0.1-1,0.1-2.1,0.1-3.1c0-1.4-0.2-2.7-0.2-4.1
			c-0.1-1.9-0.2-3.7,0.1-5.6c0.6-3.9,2.4-7.5,4.1-11.1c0.1-0.2,0.2-0.4,0.2-0.6c0.5-1.2,1-2.5,1.3-3.8c0.7-2.3,1-4.7,0.9-7.2
			c-0.2-3.9-1.3-7.7-2.9-11.2c-0.8-1.6-1.6-3.2-2.5-4.7c-1.2-1.9-2.4-3.7-3.8-5.4c-2.3-3-4.9-5.8-7.6-8.6c-1.4-1.4-2.8-2.9-4.1-4.3
			c-4.4-4.6-8.7-9.2-12-14.6c-0.4-0.7-0.3-1.3,0.1-1.8c0.7-0.9,2.1-1.1,2.9,0.1c0.1,0.1,0.1,0.2,0.2,0.4c4.1,6.5,9.5,11.8,14.8,17.3
			c5.8,5.9,12,13.1,15.5,21c0.5,1.2,1,2.4,1.4,3.6C478.5,186.5,478.9,192,477.2,197.7z"/>
		<path class="st1" d="M228,334.1c16.8,6.4,33.6,12.8,50.7,18.6c17,5.8,34.3,10.9,51.8,14.8c17.3,3.9,35,6.5,52.7,7.3
			c8.8,0.4,17.6,0.2,26.4-0.4c4.3-0.3,8.7-0.8,13-1.4c4.5-0.6,8.9-1.5,13.4-2.2c4-0.6,8.5-0.9,12.3,0.7c2.9,1.3,5.7,3.7,6.4,6.9
			c1.7,7.3-7.4,12.1-12.7,14.8c-14.5,7.2-30.8,9.8-46.8,10.2c-16.3,0.5-32.6-1-48.8-2.8c-16.2-1.8-32.4-4.2-48.2-7.9
			c-15.6-3.7-31-8.5-45.6-15.3c-7.3-3.4-14.3-7.2-21.1-11.5c-6.6-4.2-13.2-8.9-18.3-15c-4.9-5.9-8.1-13.7-7.2-21.5
			c0.9-7.3,5.9-13,12.3-16.2c7.3-3.7,15.8-3.8,23.7-2.6c8.7,1.3,17.2,3.8,25.6,6.6c16.4,5.5,32.1,12.7,48.2,18.9
			c16.4,6.3,33.2,11,50.7,13.3c17.6,2.3,35.5,2.2,53.1-0.2c10.6-1.5,24.4-4.2,30.7-13.8c4.8,2.2,8.3,6.8,9.5,11.9
			c1.3,5.6-0.6,11.5-4.6,15.5c-2.3,2.3-5.1,3.9-8.2,4.7c-0.2,0-0.3,0.1-0.4,0.2c-2.4-0.6-5-0.7-7.4-0.5c-4.5,0.4-8.9,1.4-13.4,2.1
			c-4.4,0.7-8.9,1.3-13.4,1.7c-17.8,1.6-35.8,0.9-53.5-1.5c-18-2.5-35.8-6.6-53.2-11.6c-17.6-5.1-34.9-11.1-52.1-17.4
			c-8.2-3-16.5-6.2-24.7-9.3C226.9,330,226,333.3,228,334.1z"/>
		<path d="M462.5,357.5c-2,5.2-5.9,9.5-10.9,11.8c-1.1,0.5-2.4,1-3.6,1.3c-2,0.5-2.9-2.3-1.4-3.1c0.1-0.1,0.3-0.1,0.4-0.2
			c3.1-0.7,5.9-2.4,8.2-4.7c4-4.1,6-9.9,4.6-15.5c-1.2-5.1-4.8-9.7-9.5-11.9c-0.5-0.2-0.9-0.4-1.4-0.6c-0.8-0.3-1.2-1-1.2-1.7
			c0-0.6,0.3-1.1,0.8-1.4c0.3-0.2,0.8-0.3,1.3-0.1c0.7,0.3,1.4,0.5,2.1,0.9c2.8,1.4,5.3,3.4,7.3,5.9
			C463.4,343.6,464.9,351,462.5,357.5z"/>
		<path d="M398.3,336c0.1-3.2-2.6-5.5-5.1-7.1c-3.2-2.1-6.4-4-9.6-6c-3.2-2-6.4-4.2-9.7-6c-2.4-1.4-5.4-2.5-8.2-2
			c-3.1,0.6-4.9,3.7-4.4,6.7c0.5,3.2,2.9,5.7,5.2,7.8c2.4,2.2,5,4.2,7.7,5.9c6.2,4,13.3,6.7,20.5,8c0.9,0.2,1.8-0.2,2.1-1.2
			c0.2-0.6-0.1-1.4-0.6-1.9C397.4,339.3,398.2,337.7,398.3,336z M394.8,336.3c-0.1,0.6-0.7,1.6-1.3,1.5c-0.9-0.2-1.8,0.2-2.1,1.2
			c0,0,0,0.1,0,0.1c-3.9-1-7.8-2.4-11.4-4.3c-4.8-2.5-9.5-5.7-13.1-9.7c-1.2-1.3-3.1-3.9-2-5.8c1-1.8,3.5-1.1,5-0.5
			c2.6,0.9,4.9,2.7,7.2,4.1c2.8,1.8,5.6,3.5,8.4,5.3c1.6,1,3.2,2,4.8,3c1.2,0.7,2.4,1.5,3.4,2.5C394.4,334.3,395,335.2,394.8,336.3z
			"/>
		<path d="M432.2,310.3c-5.1-1.7-9,3.4-12,6.6c-4.2,4.6-8,9.5-11.6,14.6c-0.3,0.5-0.3,1.2,0,1.7c0,2.3,1.3,5,2.7,6.8
			c0.3,0.4,1.2,0.6,1.7,0.4c8.5-3.5,15.8-9.9,20.1-18.1c1.1-2,2.2-4.2,2.5-6.5C436,313.4,434.7,311.2,432.2,310.3z M432.3,315.5
			c-0.3,1.9-1.4,3.8-2.2,5.4c-1.8,3.4-4.2,6.5-7,9.1c-2.9,2.7-6.2,5-9.9,6.7c-0.5-0.8-0.8-1.7-1-2.5c-0.1-0.4-0.1-1-0.1-1.3
			c0.1-0.3,0.2-0.6,0.4-0.6c0.8-0.3,1.4-1.1,1.2-2c2.1-2.9,4.4-5.8,6.7-8.5c1.6-1.8,3.2-3.6,4.8-5.3c1.2-1.3,2.7-2.9,4.6-3.1
			C431.3,313.2,432.6,314,432.3,315.5z"/>
		<path d="M471.2,219.6c0,0.1-0.1,0.1-0.2,0.2c-0.8,0.7-1.6,1.3-2.4,1.9c-0.1,0.1-0.2,0.1-0.2,0.2c-6,4.5-12.8,7.9-19.9,10.3
			c-15.6,5.2-32.2,5.2-48.3,2.9c-8.8-1.3-17.6-3.3-26.2-5.5c-8-2.1-16.2-4-23.2-8.6c-1.8-1.2-0.1-4.1,1.7-2.9
			c3.7,2.4,7.8,4,12.1,5.4c4.5,1.4,9,2.5,13.5,3.7c13.9,3.5,28.3,6.2,42.6,6.1c1.1,0,2.1,0,3.2-0.1c1.4-0.1,2.8-0.1,4.2-0.3
			c0.6,0,1.1-0.1,1.7-0.2c4.3-0.5,8.7-1.2,12.9-2.3c9.2-2.4,18.1-6.5,25.5-12.5c0.2-0.1,0.3-0.2,0.4-0.4c0.7-0.6,1.7-0.7,2.4,0
			C471.5,217.9,471.7,219,471.2,219.6z"/>
		<path d="M474.6,200.8c-0.7,0.4-1.5,0.2-2.1-0.3c-0.1-0.1-0.2-0.2-0.3-0.3c-5.8-7.7-13.4-13.9-21.8-18.3
			c-7.5-3.9-15.7-6.5-24.1-7.4c-8.9-1-17.8,0-26.4,2.7c-18.5,5.8-34,18.4-48.2,31.2c-1.6,1.5-4-0.9-2.4-2.4
			c8.4-7.6,17.1-14.9,26.7-21c8.3-5.3,17.4-9.7,27-12.2c8.9-2.2,18.1-2.6,27.2-1.2c17,2.7,33,11.7,43.8,25.2
			c0.5,0.6,0.9,1.1,1.3,1.7C475.8,199.2,475.4,200.4,474.6,200.8z"/>
		<path d="M469.4,173.7c-0.3,0.1-0.7,0-1.1-0.2c-8.8-5.1-19-7.4-29-8.6c-15.6-1.8-31.6-1.1-46.8,3c-14.8,4-28.6,11.5-38.9,23
			c-1.5,1.6-3.9-0.8-2.4-2.4c5.9-6.6,13.1-12,20.9-16.2c14.2-7.6,30.4-11,46.4-11.6c8.3-0.3,16.7,0.2,25,1.4
			c7.6,1.1,15.2,3,22.2,6.2c1.5,0.7,3,1.5,4.4,2.3C471.5,171.4,470.7,173.4,469.4,173.7z"/>
		<path d="M458,159.7c-0.3,0.1-0.7,0.2-1.1,0.1c-7.1-1.9-14.3-3.8-21.6-5.3c-12.5-2.6-25.6-3.8-38.2-1.2
			c-12.2,2.6-23.3,8.5-35.5,11.1c-2.1,0.5-3-2.8-0.9-3.3c7-1.5,13.6-4,20.3-6.4c5.9-2.1,12-4.2,18.2-5.2c6.5-1.1,13.1-1.3,19.7-0.8
			c11.9,0.9,23.4,3.7,34.9,6.8c1.3,0.4,2.6,0.7,3.9,1.1C459.5,156.9,459.3,159.1,458,159.7z"/>
		<path d="M433.3,140c-5.1-1.2-10.2-2.1-15.4-2.6c-18.3-1.8-36.8,0.6-54,7.2c-0.9,0.3-1.9-0.4-2.1-1.2c-0.3-0.9,0.3-1.8,1.2-2.1
			c5-1.9,10-3.4,15.2-4.7c16.3-3.8,33.2-4.2,49.6-1.2c2.1,0.4,4.2,0.8,6.4,1.3c0.6,0.2,1,0.6,1.2,1
			C435.7,138.9,434.8,140.3,433.3,140z"/>
		<path d="M432.4,400.8c0.1,0.6-0.2,1.2-0.8,1.6c-1.5,0.9-2.9,1.7-4.3,2.6c0,0,0,0,0,0c-4.4,2.6-8.8,5.2-13.1,7.8
			c-10.2,6-20.5,12.1-30.7,18.1c-3.6,2.1-9.3,6.6-13.6,3.7c-0.8-0.5-1.4-1.3-1.9-2.2c-2.9,2.8-5.9,5.7-8.8,8.5
			c-0.9,0.9-2.5,0.5-2.8-0.7c-0.8-2.7-1.5-5.4-2.3-8.1c-2.8,5.3-5.7,10.5-8.5,15.8c-0.6,1-1.9,1-2.7,0.3c-8.9-7.5-16.8-16-23.8-25.2
			c0,2.9,0,5.9,0,8.8c0,1-1.1,2-2.2,1.6c-4.8-1.7-9.1-4.2-13-7.4c0.6,1.3,1.3,2.6,1.9,4c0.7,1.4-0.4,2.8-1.9,2.5
			c-10.3-1.8-19.3-8.1-24.9-16.7c0.1,4,0.2,8,0.4,11.9c0,1.2-1.5,2.2-2.6,1.5c-5.6-3.8-10.8-8-15.7-12.6c0.3,1.3,0.5,2.5,0.8,3.8
			c0.3,1.4-1.2,2.7-2.5,1.9c-5.1-3.1-9.7-6.9-13.6-11.3c-2.4,3.5-9.7,3.8-13.2,2.2c-3.9-1.8-7.4-4.4-10.2-7.6c0,0.5-0.1,1.1-0.1,1.6
			c-0.1,0.9-0.7,1.7-1.7,1.7c-10.9,0.4-21.4-5.7-26.9-15c-0.2,1.1-0.4,2.1-0.6,3.2c-0.1,0.7-0.9,1.3-1.7,1.3c-0.1,0-0.3,0-0.4-0.1
			c-3.9-1.6-7.2-4-9.9-7.1c-0.1,2.1-0.4,4.2-0.9,6.3c-0.3,1.2-2,1.7-2.8,0.7c-6.5-6.9-11.8-15-15.5-23.8c0.2,1.5,0.3,3,0.5,4.5
			c0.2,1.8-2.4,2.2-3.2,0.9c-10.2-16.4-17.1-34.6-20.5-53.6c-0.8,2.9-1.6,5.8-2.4,8.8c-0.5,1.8-3.4,1.5-3.3-0.5
			c0.6-10.5,0.3-21.1-0.9-31.6c-1.8,0.6-3.6,1.1-5.5,1.7c-1,0.3-2,0.6-3,1c0,0,0,0,0,0c-0.2,0.1-0.4,0.1-0.6,0.1
			c-1.7-0.1-2.2-2.8-0.3-3.4c0.3-0.1,0.7-0.2,1-0.3c0.1,0,0.1,0,0.2-0.1c0.9-0.3,1.8-0.6,2.7-0.8c2.2-0.7,4.4-1.4,6.6-2
			c1.2-0.4,2,0.6,2.2,1.6c0.8,6.7,1.3,13.4,1.4,20.1c0.3-1.1,0.6-2.1,0.9-3.2c0.5-2,3.1-1.3,3.3,0.5c2.3,18.6,8.3,36.8,17.3,53.2
			c-0.6-5.6-1.2-11.2-1.8-16.8c-0.2-1.9,3.1-2.3,3.3-0.4c2.1,14.6,8.4,28.3,17.9,39.4c0.4-2.9,0.2-5.9-0.6-8.7
			c-0.5-1.2-0.9-2.4-1.2-3.7c-0.6-2.2,2.5-2.9,3.3-0.9c0.5,1.1,0.9,2.3,1.2,3.4c2,4.6,5.5,8.5,10,10.8c0.4-2.1,0.8-4.1,1.1-6.2
			c0.3-1.8,2.8-1.4,3.3,0c3.6,10.1,13.8,17.2,24.4,17.5c0.1-1.9-0.1-3.7-0.6-5.5c-1-1.8-1.9-3.7-2.6-5.6c-0.7-1.9,2.1-2.8,3.1-1.3
			c1.2,1.8,2.1,3.7,2.7,5.7c2.5,4.2,6.1,7.8,10.4,10.3c2.4,1.4,4.8,2.2,7.6,1.7c1.7-0.3,4.1-1.2,3.4-3.3c-0.6-2,2-2.7,3.1-1.3
			c3.3,4.3,7.3,8.1,11.7,11.2c-0.4-1.8-0.7-3.6-1.1-5.3c-0.3-1.6,1.6-2.9,2.8-1.7c5,5.2,10.5,10,16.3,14.2
			c-0.2-5.4-0.3-10.7-0.5-16.1c-0.1-2.1,2.7-2.1,3.3-0.5c3.8,9.9,12.4,17.6,22.6,20.5c-1.6-3.3-3.2-6.6-4.8-10c-1-2,1.6-3.4,2.9-1.7
			c4.2,5.5,9.9,9.8,16.2,12.6c0-3.8,0-7.7,0-11.5c0-1.8,2.2-2.2,3.2-0.9c7.1,10.1,15.4,19.3,24.7,27.4c3.2-5.9,6.3-11.8,9.5-17.6
			c0.7-1.3,2.7-1,3.1,0.4c0.9,3.1,1.8,6.3,2.6,9.4c3-2.9,6-5.8,9.1-8.7c0.3-0.6,0.9-1.2,1.7-1.5c1.7-0.8,3.5,1.3,2.1,2.7
			c-0.3,0.3-0.6,0.6-0.9,0.9c-0.2,0.9,1,2.1,1.8,2.3c2.7,0.5,5.7-2,7.9-3.3c5.5-3.2,10.9-6.5,16.4-9.7c8.8-5.2,17.6-10.4,26.4-15.6
			c2.2-1.3,4.5-2.6,6.7-4c0.7-0.4,1.4-0.3,1.9,0.2C432.1,399.9,432.3,400.3,432.4,400.8z"/>
		<path class="st2" d="M435.9,446c-3,0.7-6.3-0.1-8.6-2.4c-1.3-1.3-3.1,0.1-2.8,1.7c1.2,7.1,0.9,14.5-0.8,21.5
			c-2.6-7.5-6-14.7-10.2-21.5c-0.4-0.7-1.3-1-2.1-0.7c-0.7,0.3-1.3,1.2-1,2c0.1,0.1,0.1,0.3,0.2,0.4c3.6,9.1,2.7,19.1-0.5,28.2
			c-0.1,0.1-0.1,0.3-0.2,0.4c-1.9-3.3-3.2-6.9-3.8-10.6c-8,18.7-18.1,36.5-30,53c-3.5-8.5-5.5-17.6-6-26.7
			c-1.6,5.6-4.5,10.9-8.3,15.4c-1.5-6.4-2.3-12.9-2.6-19.4c-3.6,7.3-7.2,14.6-10.8,21.9c-2.4-4.1-3.4-9.1-2.9-13.8
			c-1.4,4.2-2.8,8.4-4.3,12.6c-3.7-4.5-6.1-9.9-7.2-15.5c-0.8,4.9-1.5,9.9-2.3,14.8c-4.4-4.9-8-10.5-10.7-16.6
			c-1.1,13.7-0.2,27.5,2.7,41c0.9,4,1.4,9.2-2.1,11.3c-8.6-17-17.2-34.1-25.7-51.1c0.7,3.7,0.5,7.7-0.6,11.3
			c-5.5,0.4-9.1-5.6-11.3-10.7c-6.8-15.9-13.5-31.8-20.3-47.7c-1.7,13.7-1.9,27.7-0.4,41.4c-9.8-12.7-17-27.4-21-43
			c1,6.1,1.5,12.4,1.5,18.6c-2.8-3.7-5.7-7.4-8.5-11.1c0.9,6.8,1,13.7,0.1,20.6c-6-6.2-11.1-13.3-15.1-20.9c1.2,2.3,2.4,4.8,2.2,7.5
			c-0.2,2.6-2.6,5.2-5.2,4.7c-3.8-0.8-4.2-7.1-8-8.1c-0.2,2.2-0.4,4.4-0.7,6.6c-4.2-5.5-7.1-11.9-8.7-18.6c-0.4,2.2-0.8,4.5-1.1,6.7
			c-4.3-16.7-6.9-33.8-7.7-51c0.7,0,1.5-0.6,1.7-1.3c0.2-1.1,0.4-2.1,0.6-3.2c5.5,9.3,16,15.4,26.9,15c1,0,1.6-0.8,1.7-1.7
			c0.1-0.5,0.1-1.1,0.1-1.6c2.8,3.2,6.3,5.9,10.2,7.6c3.5,1.6,10.8,1.3,13.2-2.2c3.9,4.5,8.5,8.3,13.6,11.3c1.3,0.8,2.8-0.5,2.5-1.9
			c-0.3-1.3-0.5-2.5-0.8-3.8c4.9,4.6,10.1,8.8,15.7,12.6c1.1,0.7,2.6-0.2,2.6-1.5c-0.1-4-0.3-7.9-0.4-11.9
			c5.6,8.6,14.6,14.9,24.9,16.7c1.5,0.3,2.6-1.1,1.9-2.5c-0.6-1.3-1.3-2.6-1.9-4c3.9,3.2,8.2,5.6,13,7.4c1.1,0.4,2.2-0.6,2.2-1.6
			c0-2.9,0-5.9,0-8.8c6.9,9.3,14.9,17.7,23.8,25.2c0.8,0.7,2.1,0.7,2.7-0.3c2.8-5.3,5.6-10.5,8.5-15.8c0.8,2.7,1.5,5.4,2.3,8.1
			c0.3,1.2,1.9,1.6,2.8,0.7c2.9-2.8,5.9-5.7,8.8-8.5c0.4,0.9,1.1,1.7,1.9,2.2c4.4,2.9,10-1.6,13.6-3.7c10.2-6,20.5-12.1,30.7-18.1
			c4.4-2.6,8.7-5.2,13.1-7.8c-2.7,4.1-4.3,8.8-4.8,13.7c-0.8,7.7,1.8,15.3,6.6,21.3C431,442.3,433.3,444.4,435.9,446z"/>
		<path class="st3" d="M409.9,475.6c-3.4,9.5-9,17.8-14.9,25.9c-6,8.2-12.2,16.2-16.8,25.3c-4,7.9-6,16.5-8.7,24.9
			c-2.4,7.3-5.6,14.9-11.9,19.6c-0.5-4.7-0.9-9.3-1.4-14c-0.1-0.8-0.6-1.6-1.5-1.7c-0.8-0.1-1.7,0.4-1.9,1.2
			c-1.3,7.6-4.8,14.7-10.1,20.4c-3.4-3.4-5.6-7.9-6-12.7c-0.1-0.8-0.6-1.6-1.5-1.7c-0.8-0.1-1.7,0.4-1.9,1.2
			c-1.5,8.9-6.2,17.2-13.2,22.9c-2.8-15.5-9.7-30.1-19.7-42.3c-0.8-1-2.5-0.4-2.8,0.7c-1.4,5.2-2.8,10.4-4.2,15.6
			c-14.5-18-28.2-36.6-41-55.8c-1.2-1.9-3.8-0.3-2.9,1.7c1.4,3.4,2.3,7,2.7,10.6c-6.5-7.3-12.7-14.9-18.5-22.7
			c-1.3-1.8-3.8-0.3-2.9,1.7c2,4.4,3.2,9.2,3.5,14c-10-5.3-17.8-13.7-24.4-22.8c-8.3-11.4-15.6-23.6-23.3-35.4
			c-4.7-7.4-9.5-14.7-14.2-22.1c-0.8-1.3-3.4-0.9-3.2,0.9c0.6,5,1.1,10,1.7,14.9c-9.2-8.7-15.5-20.1-18.1-32.5
			c-0.4-1.9-3.3-1.4-3.3,0.5c-0.2,3.7-0.3,7.3-0.5,11c-4.5-9-5.7-19.5-3.3-29.4c0.4-1.8-2.3-3.1-3.1-1.3c-2.3,5-4.6,9.9-6.9,14.9
			c-5.5-15.9-8.1-32.6-7.6-49.4c0.1-1.8-2.3-2.2-3.2-0.9c-3,4.7-6.8,8.8-11.1,12.2c4.2-22.2,8.5-44.5,12.7-66.7
			c1.8-0.6,3.6-1.1,5.5-1.7c1.1,10.5,1.4,21,0.9,31.6c-0.1,1.9,2.8,2.3,3.3,0.5c0.8-2.9,1.6-5.8,2.4-8.8c3.4,19,10.3,37.2,20.5,53.6
			c0.8,1.3,3.4,0.9,3.2-0.9c-0.2-1.5-0.3-3-0.5-4.5c3.7,8.7,9,16.8,15.5,23.8c0.9,0.9,2.5,0.5,2.8-0.7c0.5-2.1,0.8-4.2,0.9-6.3
			c2.7,3.1,6,5.5,9.9,7.1c0.1,0.1,0.3,0.1,0.4,0.1c0.8,17.2,3.4,34.3,7.7,51c0.4-2.2,0.8-4.5,1.1-6.7c1.6,6.7,4.5,13.1,8.7,18.6
			c0.2-2.2,0.4-4.4,0.7-6.6c3.8,1,4.2,7.3,8,8.1c2.6,0.6,4.9-2,5.2-4.7c0.2-2.6-1-5.1-2.2-7.5c4,7.7,9.1,14.7,15.1,20.9
			c0.9-6.8,0.8-13.7-0.1-20.6c2.8,3.7,5.7,7.4,8.5,11.1c-0.1-6.2-0.6-12.4-1.5-18.6c4,15.6,11.2,30.3,21,43
			c-1.4-13.8-1.3-27.7,0.4-41.4c6.8,15.9,13.5,31.8,20.3,47.7c2.2,5.1,5.8,11.2,11.3,10.7c1.1-3.6,1.3-7.6,0.6-11.3
			c8.6,17,17.2,34.1,25.7,51.1c3.6-2.1,3-7.3,2.1-11.3c-2.8-13.4-3.7-27.3-2.7-41c2.6,6.1,6.2,11.7,10.7,16.6
			c0.8-4.9,1.5-9.9,2.3-14.8c1,5.7,3.5,11.1,7.2,15.5c1.4-4.2,2.8-8.4,4.3-12.6c-0.6,4.7,0.4,9.7,2.9,13.8
			c3.6-7.3,7.2-14.6,10.8-21.9c0.3,6.5,1.1,13,2.6,19.4c3.8-4.5,6.6-9.8,8.3-15.4c0.5,9.2,2.5,18.2,6,26.7c11.9-16.5,22-34.3,30-53
			C406.7,468.8,408,472.4,409.9,475.6z"/>
		<path d="M440.7,447.7c-3.7,2.4-8.5,2.5-12.3,0.7c0.8,8.3-0.1,16.7-3,24.6c-0.6,1.5-2.8,1.7-3.3,0c-1.5-5.4-3.5-10.6-5.8-15.6
			c0.4,7.3-1.3,14.8-4,21.6c-3.9,9.8-9.9,18.3-16.1,26.7c-6.1,8.4-12.4,16.8-16.6,26.3c-3.4,7.9-5.1,16.4-8.1,24.5
			c-2.9,7.7-7.1,15.1-14.5,19.3c-1.2,0.7-2.4-0.2-2.6-1.5c-0.3-2.6-0.5-5.3-0.8-7.9c-2.2,5.4-5.5,10.4-9.6,14.5
			c-0.7,0.7-1.7,0.6-2.4,0c-2.9-2.5-5.2-5.8-6.6-9.3c-3,8.5-8.8,15.9-16.4,20.8c-1.9,1.2-3.6-1.8-1.7-2.9c0.1-0.1,0.2-0.1,0.3-0.2
			c1.1-0.7,2.1-1.4,3.1-2.2c7-5.7,11.7-14,13.2-22.9c0.1-0.8,1.1-1.3,1.9-1.2c0.9,0.1,1.4,0.8,1.5,1.7c0.4,4.8,2.6,9.3,6,12.7
			c5.3-5.7,8.7-12.8,10.1-20.4c0.1-0.8,1.1-1.3,1.9-1.2c0.9,0.1,1.4,0.8,1.5,1.7c0.5,4.7,0.9,9.3,1.4,14c6.3-4.6,9.5-12.2,11.9-19.6
			c2.7-8.4,4.7-17,8.7-24.9c4.6-9.1,10.8-17.1,16.8-25.3c5.9-8.1,11.5-16.4,14.9-25.9c0.1-0.1,0.1-0.3,0.2-0.4
			c3.2-9.1,4.1-19.1,0.5-28.2c-0.1-0.1-0.1-0.3-0.2-0.4c-0.3-0.8,0.3-1.7,1-2c0.8-0.3,1.7,0,2.1,0.7c4.2,6.7,7.7,13.9,10.2,21.5
			c1.7-7,2-14.3,0.8-21.5c-0.3-1.6,1.6-2.9,2.8-1.7c2.3,2.3,5.6,3.1,8.6,2.4c-2.6-1.7-5-3.8-6.9-6.2c-4.8-5.9-7.4-13.6-6.6-21.3
			c0.5-4.9,2.2-9.6,4.8-13.7c0,0,0,0,0,0c0.8-1.2,1.6-2.3,2.5-3.3c0.6-0.7,1.3-1.4,2-2c0.5-0.4,0.9-0.8,1.4-1.2
			c0.7-0.6,1.7-0.7,2.4,0c0.3,0.3,0.5,0.7,0.5,1.2c0,0.5-0.1,0.9-0.5,1.2c-3.1,2.5-5.6,5.7-7.3,9.3c-3,6.3-3.4,13.5-1,20.1
			c2.4,6.4,7.3,11.7,13.4,14.6C441.9,445.4,441.6,447.1,440.7,447.7z"/>
		<path d="M180.8,177.8c-0.2,0-0.5,0.1-0.7,0.1c-9-8.1-19-14.9-29.5-20.8c-10.7-6-21.9-11.1-33.2-15.9c-11.4-4.8-23-9.4-34.4-14.2
			c-11.4-4.8-22.6-9.9-33.4-16c-5.3-3-10.6-6.3-15.6-9.8c-2.7-1.9-5.2-4-8-5.7c-2.6-1.5-5.8-2.4-8.7-1.4c-2.9,1-5.2,3.5-4.9,6.8
			c0.3,3.2,2.3,6.3,3.9,9.1c3,5.4,6.5,10.6,10.3,15.5c7.6,9.8,16.5,18.4,26.5,25.8c9.9,7.4,20.8,13.5,32.3,18.3
			c13.3,5.5,27.3,9.2,41.6,11.2c14.4,2,28.9,2.4,43.4,1.4c3.5-0.2,7.1-0.6,10.6-1c0.9-0.1,1.7-0.7,1.7-1.7
			C182.5,178.7,181.7,177.7,180.8,177.8z M138.5,178.7c-14-1.1-27.9-3.8-41.2-8.2c-12-3.9-23.5-9.3-34.1-16.2
			c-10.1-6.5-19.4-14.2-27.5-23.1c-4-4.4-7.7-9.1-11.1-14c-1.7-2.5-3.3-5.1-4.8-7.7c-0.7-1.3-1.4-2.6-2.1-3.9
			c-0.7-1.4-1.6-2.9-1.9-4.5c-0.5-2.5,1.6-4.1,3.9-4.2c3-0.1,5.7,2,8,3.7c4.8,3.6,9.8,7,14.9,10.1c10.4,6.2,21.3,11.5,32.3,16.3
			c11.2,4.9,22.5,9.3,33.7,14c11.1,4.6,22.1,9.3,32.8,14.8c10.5,5.4,20.7,11.6,30,19c1.4,1.1,2.7,2.2,4.1,3.4
			C163.2,179.5,150.8,179.7,138.5,178.7z"/>
		<path class="st4" d="M567.4,150.1c-1.1,2.7-2.4,5.3-3.7,7.9c-5.5,10.7-12.8,20.4-21.4,28.8c-17.2,16.8-39.6,28.4-63.4,32
			c-2.4,0.4-4.8,0.6-7.3,0.8c-0.1-1.7-0.2-3.4-0.2-5.1c0.1-2,0.6-3.9,1.2-5.8c0.2-0.6,0.5-1.2,0.7-1.8c0,0,0.1,0,0.1,0
			c13.1,0.1,26.9-1.5,38.7-7.7c9.9-5.3,18.2-13.3,25.3-21.9c3.7-4.4,7.1-9,10.5-13.6c1.7-2.3,3.8-4.7,4.8-7.4c1-2.7,0.2-5.6-1.8-7.5
			c-2-1.9-4.8-2.8-7.6-2.6c-3.3,0.3-6.1,1.8-8.9,3.4c-6.2,3.6-12.4,7.3-18.6,10.9c-6.1,3.6-12.2,7.2-18.3,10.8
			c-5.5,3.2-11.6,6.4-18.1,6.6c-1.4,0-2.8-0.1-4.1-0.3c-3.5-7.9-9.8-15-15.5-21c-5.3-5.4-10.7-10.8-14.8-17.3
			c7.4,0.9,14.9,1.4,22.4,1.8c16,0.7,32,0.3,48-1.2c7.9-0.7,15.7-1.7,23.5-3c6.2-1,12.3-2.7,18.6-2.6c4.2,0.1,9.7,1,11.4,5.5
			C570.2,143.3,568.7,146.9,567.4,150.1z"/>
		<path class="st5" d="M546.9,159.3c-3.2,4.4-6.4,8.8-9.8,13c-6.7,8.3-14.2,16.3-23.3,22c-4.8,2.9-9.9,5.1-15.3,6.5
			c-6.5,1.7-13.3,2.4-20,2.6c-1.2,0-2.4,0.1-3.7,0.1c0.9-1.9,1.7-3.8,2.3-5.8c1.7-5.7,1.3-11.2-0.5-16.4c5.4,0.5,10.7-1.1,15.6-3.3
			c6-2.8,11.6-6.4,17.3-9.8c5.9-3.5,11.9-7,17.8-10.5c2.9-1.7,5.9-3.5,8.8-5.2c2.5-1.5,5.2-3,8.2-2.9c2,0,4.3,1.2,5.1,3.1
			C550.6,155,548.2,157.5,546.9,159.3z"/>
		<path d="M552.7,156.3c-1,2.7-3.1,5-4.8,7.4c-3.4,4.6-6.8,9.2-10.5,13.6c-7.2,8.6-15.4,16.6-25.3,21.9c-11.8,6.2-25.5,7.8-38.7,7.7
			c0,0-0.1,0-0.1,0c-2.1-0.1-2-3.4,0.1-3.4c0.5,0,0.9,0,1.4,0c1.2,0,2.4,0,3.7-0.1c6.7-0.2,13.5-1,20-2.6c5.4-1.4,10.5-3.6,15.3-6.5
			c9.2-5.7,16.6-13.6,23.3-22c3.4-4.2,6.6-8.6,9.8-13c1.3-1.8,3.6-4.2,2.6-6.6c-0.8-1.9-3.1-3-5.1-3.1c-3,0-5.7,1.5-8.2,2.9
			c-2.9,1.7-5.9,3.5-8.8,5.2c-5.9,3.5-11.9,7-17.8,10.5c-5.7,3.3-11.3,7-17.3,9.8c-4.9,2.3-10.2,3.8-15.6,3.3
			c-0.9-0.1-1.8-0.2-2.7-0.4c-2.1-0.5-1.2-3.8,0.9-3.3c0.1,0,0.3,0.1,0.4,0.1c1.4,0.3,2.7,0.4,4.1,0.3c6.5-0.2,12.6-3.5,18.1-6.6
			c6.1-3.5,12.2-7.2,18.3-10.8c6.2-3.6,12.4-7.3,18.6-10.9c2.8-1.6,5.7-3.1,8.9-3.4c2.7-0.3,5.5,0.7,7.6,2.6
			C552.9,150.7,553.8,153.6,552.7,156.3z"/>
		<path class="st6" d="M258.6,90.5c-8.9,1.5-17.6,4.1-25.8,7.3c-9,3.4-17.6,7.7-25.7,12.9c-0.4,0.3-0.8,0.5-1.3,0.8
			c-4.7-12.2-12.3-23-21.6-32.2c-9.5-9.3-20.6-16.9-32.5-22.9c-13.6-6.9-28.2-11.7-43-15.4c-15.8-4-31.8-6.7-47.8-9.8
			c-4-0.7-8-1.5-11.9-2.3c-1.5-0.3-6-1.4-4.8-3.8c0.5-1.1,1.9-1.6,2.9-2c1.7-0.6,3.5-1,5.3-1.4c4-1,8.1-2,12.2-2.9
			c16.1-3.6,32.5-6.1,48.9-7c16.3-0.8,32.8,0,48.9,3.3c13.2,2.7,25.9,7,37.9,13.1c11.5,5.9,22.2,13.3,31.5,22.3
			c9.1,8.8,16.9,19.1,22.4,30.6c1.3,2.8,2.5,5.6,3.6,8.5C257.9,90,258.2,90.3,258.6,90.5z"/>
		<path d="M260.8,90.1L260.8,90.1c-0.5,0.5-1.4,0.7-2.2,0.4c-0.4-0.2-0.7-0.5-0.9-1c-1.1-2.9-2.3-5.8-3.6-8.5
			c-2.1-4.4-4.6-8.6-7.3-12.6c-4.4-6.5-9.5-12.5-15.1-17.9c-2.6-2.5-5.3-4.9-8.2-7.2c-7.2-5.8-15.1-10.9-23.4-15.1
			c-5.7-2.9-11.5-5.4-17.5-7.5c-6.6-2.3-13.5-4.2-20.4-5.6c-8.5-1.7-17.1-2.8-25.7-3.2c-7.7-0.4-15.4-0.4-23.1,0
			c-3.3,0.2-6.7,0.4-10,0.7c-10,0.9-19.9,2.4-29.7,4.3c-3.1,0.6-6.1,1.2-9.2,1.9c-4.1,0.9-8.2,1.9-12.2,2.9
			c-1.8,0.4-3.6,0.8-5.3,1.4c-1,0.4-2.4,1-2.9,2c-1.2,2.4,3.3,3.5,4.8,3.8c4,0.8,8,1.6,11.9,2.3c3.5,0.7,7,1.3,10.5,2
			c8,1.5,16,3,24,4.7c4.5,1,8.9,2,13.3,3.1c4.2,1.1,8.5,2.2,12.7,3.5c10.4,3.1,20.6,7,30.3,11.9c0,0,0,0,0,0c8.1,4.1,15.9,9,23,14.6
			c3.3,2.6,6.4,5.4,9.4,8.3c3.5,3.5,6.8,7.2,9.8,11.1c4.9,6.4,8.9,13.5,11.8,21.1c0.1,0.2,0.1,0.3,0.2,0.5c0.3,0.9-0.4,1.9-1.2,2.1
			c-0.8,0.2-1.5-0.1-1.8-0.7c-0.1-0.1-0.2-0.3-0.2-0.5c-1.2-3-2.5-5.9-4-8.8c-6.3-11.8-15.3-21.9-25.8-30.2c-10.5-8.4-22.5-15-35-20
			c-15.4-6.2-31.5-10.2-47.7-13.5c-8.2-1.7-16.5-3.2-24.7-4.8c-4.1-0.8-8.1-1.5-12.2-2.3c-3.3-0.7-7.2-1-10.1-2.9
			c-2.7-1.8-3.6-5.2-1.5-7.9c2.1-2.6,6-3.2,9-4c8.2-2.1,16.4-4,24.7-5.5c16.5-3.1,33.4-5,50.2-4.9c16.2,0,32.6,1.9,48.3,6.2
			c12.8,3.6,25.2,8.9,36.6,15.7c11.2,6.8,21.6,15.2,30.3,25.1c8.6,9.9,15.5,21.2,20,33.5C261.3,89.3,261.1,89.8,260.8,90.1z"/>
		<path class="st6" d="M395.3,94.4c0,2.2-0.1,4.5-0.3,6.7c-7.8-4.7-16.6-7.8-25.6-9.4c-9.9-1.7-19.9-1.7-29.8-0.6h0
			c-2.9-11.4-6-22.7-10.9-33.4c-4.9-10.6-11.9-20.5-21.7-27.1c-10.8-7.3-24-9.9-36.8-10c-6.6-0.1-13.1,0.5-19.7,1.4
			c-2.9,0.4-5.7,1-8.6,1.1c-2.2,0.1-4.6-0.1-6.5-1.1c-1.6-0.8-2.7-2.2-2.2-4.2c0.6-2.4,3.2-3.8,5.2-4.7c2.8-1.3,5.9-2.1,8.9-3
			c3.2-1,6.5-1.8,9.8-2.6c13.2-3.1,26.8-4.4,40.4-3.8c13.4,0.6,26.6,3.3,39,8.4c11.4,4.6,21.8,11.3,30.6,19.8
			c8.6,8.2,15.7,18,20.7,28.9C392.6,71.2,395.3,82.8,395.3,94.4z"/>
		<path d="M398.1,103.1C398.1,103.1,398.1,103.1,398.1,103.1c-0.1,1-0.7,1.7-1.7,1.7c-0.8,0-1.8-0.8-1.7-1.7c0.1-0.7,0.2-1.3,0.2-2
			c0.2-2.2,0.3-4.5,0.3-6.7v-0.6c0-0.6,0-1.2,0-1.9c0-0.1,0-0.3,0-0.4c0-0.6,0-1.3-0.1-1.9c0-0.6-0.1-1.2-0.1-1.8
			c0-0.2,0-0.4-0.1-0.6c0-0.5-0.1-0.9-0.1-1.4c0-0.4-0.1-0.7-0.1-1.1c-0.1-0.5-0.1-0.9-0.2-1.4c0-0.1,0-0.2-0.1-0.3
			c-0.1-0.6-0.2-1.2-0.3-1.9c-0.1-0.4-0.1-0.8-0.2-1.1c-0.1-0.7-0.2-1.3-0.4-2c-0.1-0.2-0.1-0.5-0.2-0.7c-0.1-0.4-0.2-0.8-0.3-1.2
			c-0.3-1.2-0.6-2.4-1-3.6c-0.2-0.6-0.3-1.2-0.5-1.8c-0.4-1.4-0.9-2.8-1.4-4.2c-0.4-1-0.8-2.1-1.2-3.1c0-0.1-0.1-0.2-0.1-0.3
			c-0.1-0.4-0.3-0.7-0.4-1.1c-0.2-0.5-0.4-0.9-0.6-1.4c-0.1-0.3-0.3-0.6-0.4-0.9c0,0,0-0.1-0.1-0.1c-0.2-0.5-0.5-1.1-0.8-1.6
			c-0.6-1.1-1.1-2.2-1.8-3.3c-0.4-0.7-0.7-1.3-1.1-1.9c-0.5-0.8-0.9-1.5-1.4-2.3c-0.2-0.4-0.5-0.8-0.7-1.2c-0.1-0.2-0.3-0.5-0.5-0.7
			c-0.3-0.4-0.6-0.9-0.9-1.3c-1.3-1.9-2.7-3.8-4.1-5.6c-0.4-0.5-0.8-1-1.2-1.5c-0.4-0.5-0.8-0.9-1.2-1.4c-0.3-0.3-0.6-0.7-0.9-1
			c-0.9-1-1.8-2-2.8-3c-0.1-0.2-0.3-0.3-0.5-0.5c-0.3-0.4-0.7-0.7-1-1c-0.5-0.5-1-1-1.5-1.5c-8.9-8.5-19.3-15.2-30.6-19.8
			c-0.8-0.3-1.6-0.6-2.3-0.9c-0.3-0.1-0.7-0.3-1-0.4c-0.6-0.2-1.3-0.5-2-0.7c0,0,0,0,0,0c0,0-0.1,0-0.1,0c-0.6-0.2-1.3-0.4-1.9-0.6
			c-0.7-0.2-1.4-0.4-2-0.6c-0.8-0.2-1.6-0.5-2.4-0.7c-1-0.3-2-0.5-3-0.8c-0.5-0.1-0.9-0.2-1.4-0.3c-0.3-0.1-0.6-0.2-0.9-0.2
			c-0.7-0.1-1.3-0.3-2-0.4c-0.8-0.2-1.6-0.3-2.5-0.5c-0.1,0-0.2,0-0.4-0.1c-1.2-0.2-2.5-0.4-3.7-0.6c-0.2,0-0.4-0.1-0.5-0.1
			c-0.7-0.1-1.4-0.2-2.1-0.3c-0.6-0.1-1.2-0.2-1.8-0.2c-0.2,0-0.5-0.1-0.7-0.1c-0.4-0.1-0.8-0.1-1.2-0.1c-0.5-0.1-1-0.1-1.5-0.1
			c-0.6-0.1-1.2-0.1-1.8-0.2c-0.5,0-1-0.1-1.6-0.1c-0.7,0-1.4-0.1-2.1-0.1c-3-0.1-5.9-0.2-8.9-0.1c-0.1,0-0.1,0-0.2,0
			c-1,0-2.1,0-3.1,0.1c-1,0-2,0.1-3,0.2c-0.3,0-0.6,0-0.8,0c-0.8,0-1.6,0.1-2.4,0.2c-0.2,0-0.4,0-0.7,0c-0.8,0.1-1.7,0.2-2.5,0.2
			c0,0,0,0-0.1,0c-0.4,0-0.7,0.1-1.1,0.1c-2,0.2-3.9,0.5-5.8,0.8c-0.1,0-0.3,0-0.4,0.1c-2.1,0.3-4.2,0.7-6.2,1.1c0,0-0.1,0-0.1,0
			c-0.9,0.2-1.7,0.3-2.6,0.5c-0.8,0.2-1.7,0.4-2.5,0.6c-3.3,0.8-6.6,1.6-9.8,2.6c-3,0.9-6.1,1.7-8.9,3c-2,0.9-4.6,2.4-5.2,4.7
			c-0.5,2,0.6,3.4,2.2,4.2c1.9,1,4.4,1.1,6.5,1.1c2.9-0.1,5.8-0.7,8.7-1.1c1.8-0.2,3.7-0.5,5.5-0.6c0.9-0.1,1.9-0.2,2.8-0.3
			c0.9-0.1,1.8-0.2,2.8-0.2c0.4,0,0.8,0,1.1-0.1c0.6,0,1.2-0.1,1.8-0.1c0.8,0,1.6-0.1,2.3-0.1c1.1,0,2.2,0,3.3,0
			c1.2,0,2.4,0,3.6,0.1c0.8,0,1.6,0.1,2.4,0.1c1.4,0.1,2.8,0.2,4.3,0.4c0.5,0.1,1,0.1,1.5,0.2c0.1,0,0.2,0,0.3,0
			c0.5,0.1,1,0.2,1.6,0.2c0.5,0.1,1,0.2,1.5,0.3c0.5,0.1,1,0.2,1.4,0.3c0.1,0,0.1,0,0.2,0c0.5,0.1,0.9,0.2,1.3,0.3
			c0.3,0.1,0.7,0.2,1,0.2c0.4,0.1,0.8,0.2,1.2,0.3c1.6,0.4,3.1,0.9,4.6,1.4c0.3,0.1,0.5,0.2,0.8,0.3c0.9,0.3,1.7,0.7,2.6,1
			c0.4,0.2,0.8,0.4,1.3,0.6c0.5,0.2,1.1,0.5,1.6,0.8c0.4,0.2,0.8,0.4,1.1,0.6c0.9,0.5,1.8,1,2.6,1.5c0.4,0.3,0.9,0.5,1.3,0.8
			c0.2,0.1,0.4,0.2,0.6,0.4c4.5,3.1,8.3,6.7,11.7,10.9c0.4,0.5,0.8,1,1.2,1.5c0.4,0.6,0.9,1.1,1.3,1.7c0.4,0.6,0.8,1.2,1.2,1.8
			c2.4,3.6,4.5,7.4,6.3,11.3c0.3,0.7,0.6,1.4,0.9,2.1c0.2,0.4,0.4,0.8,0.5,1.2c0.2,0.4,0.3,0.7,0.5,1.1c0.2,0.5,0.4,1,0.6,1.4
			c0.1,0.2,0.1,0.3,0.2,0.5c0.2,0.6,0.5,1.2,0.7,1.8c0.6,1.6,1.2,3.2,1.7,4.9c0.3,0.8,0.5,1.7,0.8,2.5c0.5,1.7,1.1,3.4,1.6,5.2
			c0,0,0,0.1,0,0.1c0.3,1,0.6,2.1,0.9,3.2c0.9,3.1,1.7,6.3,2.5,9.5c0.1,0.3,0.2,0.6,0.2,0.9c0.5,2.1-2.7,3-3.3,0.9
			c-0.1-0.5-0.2-0.9-0.4-1.4c-0.6-2.4-1.2-4.8-1.9-7.2c-3.2-11.6-6.9-23.3-13.2-33.6c-3.1-5-6.7-9.7-11.1-13.6
			c-4.6-4.1-10-7.2-15.9-9.3c-12.5-4.5-26.2-4.5-39.2-3c-3.2,0.3-6.4,0.8-9.5,1.3c-2.7,0.4-5.3,0.4-8,0c-2.3-0.4-4.7-1.3-6.2-3.1
			c-1.8-2.2-2-5.1-0.8-7.6c1.2-2.5,3.9-4.2,6.3-5.3c3-1.4,6.2-2.3,9.3-3.2c6.7-2,13.4-3.6,20.3-4.7c8.1-1.3,16.3-2,24.6-2
			c5.7,0,11.3,0.3,16.9,1.1c13.7,1.8,27.1,5.7,39.3,12.1c10.8,5.7,20.6,13.5,28.6,22.7c8,9.2,14.4,19.9,18.5,31.5
			C398.1,78.8,399.6,91.1,398.1,103.1z"/>
		<path d="M317.3,229.9C317.3,229.9,317.3,229.9,317.3,229.9c-0.7,1.7-1.7,3.2-2.9,4.6c-0.6,0.7-1.8,0.6-2.4,0
			c-0.3-0.3-0.5-0.7-0.5-1.1c0-0.4,0.2-0.9,0.5-1.3c4.1-4.8,4.6-11.9,2.4-17.7c-1-2.6-2.6-4.9-4.6-6.8c-2.7-2.3-6.2-3.6-9.6-4.2
			c-7.2-1.3-15.5-0.2-21.8,3.6c-5.9,3.6-10.1,10.2-9.5,17.3c0.5,6,5.6,11.7,11.7,12.1c0.9,0.1,1.4,0.6,1.6,1.3
			c0.2,1-0.3,2.2-1.6,2.1c-2.6-0.2-4.9-1-7-2.3c0,0,0,0,0,0c-5-3.1-8.3-9-8.1-15.1c0.2-8.3,5.7-15.6,12.9-19.3
			c7.6-3.9,17.4-4.8,25.6-2.4c3.7,1.1,7.2,3,9.8,5.9c2.2,2.5,3.8,5.5,4.6,8.7C319.6,220.4,319.3,225.5,317.3,229.9z"/>
		<path class="st4" d="M376,184.9c8.3-5.3,17.4-9.7,27-12.2c8.9-2.2,18.1-2.6,27.2-1.2c17,2.7,33,11.7,43.8,25.2
			c0.7-2.3,1-4.7,0.9-7.2c-0.2-3.9-1.3-7.7-2.9-11.2c-0.7-1.6-1.6-3.2-2.5-4.7c-0.3,0.1-0.7,0-1.1-0.2c-8.8-5.1-19-7.4-29-8.6
			c-15.6-1.8-31.6-1.1-46.8,3c-14.8,4-28.6,11.5-38.9,23c-1.5,1.6-3.9-0.8-2.4-2.4c5.9-6.6,13.1-12,20.9-16.2
			c14.2-7.6,30.4-11,46.4-11.6c8.3-0.3,16.7,0.2,25,1.4c7.6,1.1,15.2,3,22.2,6.2c-2.3-3-4.9-5.8-7.6-8.6c-0.3,0.1-0.7,0.2-1.1,0.1
			c-7.1-1.9-14.3-3.8-21.6-5.3c-12.5-2.6-25.6-3.8-38.2-1.2c-12.2,2.6-23.3,8.5-35.5,11.1c-2.1,0.5-3-2.8-0.9-3.3
			c7-1.5,13.6-4,20.3-6.4c5.9-2.1,12-4.2,18.2-5.2c6.5-1.1,13.1-1.3,19.7-0.8c11.9,0.9,23.4,3.7,34.9,6.8c-4.4-4.6-8.7-9.2-12-14.6
			c-0.4-0.7-0.3-1.3,0.1-1.8c-2.2-0.3-4.4-0.7-6.6-1.2c0.3,1.1-0.6,2.6-2.1,2.2c-5.1-1.2-10.2-2.1-15.4-2.6
			c-18.3-1.8-36.8,0.6-54,7.2c-0.9,0.3-1.9-0.4-2.1-1.2c-0.3-0.9,0.3-1.8,1.2-2.1c5-1.9,10-3.4,15.2-4.7c16.3-3.8,33.2-4.2,49.6-1.2
			c-1-0.4-1.9-0.8-2.8-1.3c-6.3-3.2-10.6-8.4-14.8-13.9c-4-5.4-8.4-10.3-14-14.1c-24.2-16.8-54.9-13.3-82-6.7
			c7.2,4.8,13.3,11.2,17,19.2c0.9,2-2,3.7-2.9,1.7c-1.7-3.6-3.8-6.9-6.4-9.9c-11.9-13.5-30-18.5-47.4-18
			c-19.2,0.5-38.5,6.4-55.4,15.3c-4.1,2.1-8.1,4.5-12,7c-3.9,2.5-7.9,5.1-12.2,7c-9,3.8-18.6,2.9-27.9,0.6
			c-18.9-4.7-36.8-12.9-55.9-17.2c-9-2-18.1-2.7-27.3-2.8c-9-0.1-17.9,0.1-26.9-1c-8.6-1-17-3.4-24.4-8.1
			c-6.4-4.1-13.7-10.5-21.9-7.7c-8.9,3.1-4.8,15.7-2.4,22.1c3.2,8.5,8.3,16.3,13.9,23.5c10.5,13.5,23.7,24.7,38.3,33.7
			c26.7,16.4,57.2,24.4,88.2,27.5c0.4-0.1,0.9-0.1,1.3,0.1c6.6,0.6,13.1,1.1,19.7,1.3c2.2,0.1,2.2,3.5,0,3.4
			c-4.9-0.2-9.9-0.4-14.8-0.8c-1.4-0.1-2.8-0.2-4.2-0.4c-1.7,8.5-3.6,17-5.8,25.5c-7.5,29.5-17.7,58.3-30.3,86
			c3.3-2.3,6.6-4.6,9.9-6.8c0.7-0.5,1.5-0.3,2,0.3c2.2-0.7,4.4-1.4,6.6-2c1.2-0.4,2,0.6,2.2,1.6c0.8,6.7,1.3,13.4,1.4,20.1
			c0.3-1.1,0.6-2.1,0.9-3.2c0.5-2,3.1-1.3,3.3,0.5c2.3,18.6,8.3,36.8,17.3,53.2c-0.6-5.6-1.2-11.2-1.8-16.8
			c-0.2-1.9,3.1-2.3,3.3-0.4c2.1,14.6,8.4,28.3,17.9,39.4c0.4-2.9,0.2-5.9-0.6-8.7c-0.5-1.2-0.9-2.4-1.2-3.7
			c-0.6-2.2,2.5-2.9,3.3-0.9c0.5,1.1,0.9,2.3,1.2,3.4c2,4.6,5.5,8.5,10,10.8c0.4-2.1,0.8-4.1,1.1-6.2c0.3-1.8,2.8-1.4,3.3,0
			c3.6,10.1,13.8,17.2,24.4,17.5c0.1-1.9-0.1-3.7-0.6-5.5c-1-1.8-1.9-3.7-2.6-5.6c-0.7-1.9,2.1-2.8,3.1-1.3c1.2,1.8,2.1,3.7,2.7,5.7
			c2.5,4.2,6.1,7.8,10.4,10.3c2.4,1.4,4.8,2.2,7.6,1.7c1.7-0.3,4.1-1.2,3.4-3.3c-0.6-2,2-2.7,3.1-1.3c3.3,4.3,7.3,8.1,11.7,11.2
			c-0.4-1.8-0.7-3.6-1.1-5.3c-0.3-1.6,1.6-2.9,2.8-1.7c5,5.2,10.5,10,16.3,14.2c-0.2-5.4-0.3-10.7-0.5-16.1
			c-0.1-2.1,2.7-2.1,3.3-0.5c3.8,9.9,12.4,17.6,22.6,20.5c-1.6-3.3-3.2-6.6-4.8-10c-1-2,1.6-3.4,2.9-1.7c4.2,5.5,9.9,9.8,16.2,12.6
			c0-3.8,0-7.7,0-11.5c0-1.8,2.2-2.2,3.2-0.9c7.1,10.1,15.4,19.3,24.7,27.4c3.2-5.9,6.3-11.8,9.5-17.6c0.7-1.3,2.7-1,3.1,0.4
			c0.9,3.1,1.8,6.3,2.6,9.4c3-2.9,6-5.8,9.1-8.7c0.3-0.6,0.9-1.2,1.7-1.5c1.7-0.8,3.5,1.3,2.1,2.7c-0.3,0.3-0.6,0.6-0.9,0.9
			c-0.2,0.9,1,2.1,1.8,2.3c2.7,0.5,5.7-2,7.9-3.3c5.5-3.2,10.9-6.5,16.4-9.7c8.8-5.2,17.6-10.4,26.4-15.6c-15,3.5-30.6,3.9-45.9,3.2
			c-16.4-0.8-32.9-2.6-49.2-4.9c-16.2-2.4-32.4-5.6-48.1-10.4c-15.6-4.7-30.8-11-44.9-19.3c-13.2-7.8-28.5-17.9-31.9-33.9
			c-1.6-7.5-0.2-15.3,4.8-21.3c4.6-5.4,11.6-8.8,18.6-9.8c9-1.4,18,0.3,26.7,2.4c8.5,2.1,16.9,4.9,25.2,8
			c16.3,6.1,32.1,13.5,48.6,19.1c17,5.8,34.6,9.5,52.6,10.6c9,0.6,18.1,0.5,27.2-0.1c8-0.6,16.2-1.4,23.9-3.6
			c5.9-1.6,12.2-4.3,16-9.2c0.3-0.4,0.7-0.9,1-1.4c0-0.6,0.3-1.1,0.8-1.4c0.9-1.8,1.3-3.8,1.4-5.9c0.1-4.4-1.6-8.7-3.2-12.7
			c-3.5-8.9-7-17.7-10.5-26.6c-1.7-4.3-3.6-8.5-4.9-12.9c-1.2-4.1-1-8.2,1.3-11.8c2.2-3.3,5.4-5.8,8.4-8.4c3.1-2.7,6.2-5.3,9.3-8
			c-2.6,0.8-5.3,1.4-7.9,2c-12.8,2.6-26.1,5.2-39.1,3.7c-12.1-1.4-23.7-5.8-33.5-12.9c-0.7-0.5-1.1-1.5-0.6-2.3
			c0.4-0.7,1.6-1.1,2.3-0.6c5.3,3.8,11.2,6.9,17.4,9.1c5.5,1.9,11.2,3.2,17,3.6c6.4,0.5,12.8,0,19.1-0.9c6.2-0.9,12.5-2,18.6-3.4
			c5.6-1.2,11-3,15.7-6.3c0.2-0.1,0.4-0.2,0.7-0.2c0.8-0.7,1.5-1.3,2.3-2c3.1-2.7,5.7-5.7,6.1-10c0.1-1,0.1-2.1,0.1-3.1
			c-6,4.5-12.8,7.9-19.9,10.3c-15.6,5.2-32.2,5.2-48.3,2.9c-8.8-1.3-17.6-3.3-26.2-5.5c-8-2.1-16.2-4-23.2-8.6
			c-1.8-1.2-0.1-4.1,1.7-2.9c3.7,2.4,7.8,4,12.1,5.4c4.5,1.4,9,2.5,13.5,3.7c13.9,3.5,28.3,6.2,42.6,6.1c-1.5-0.8-3-1.9-4.2-3.1
			c-3.3-3.5-5.1-8.2-5.7-12.9c-0.5-4.1,0.1-8.4,2.1-12c2.3-4.1,6.3-6.5,10.7-7.8c8.1-2.4,18.3-1.6,24.2,5.1c5.8,6.6,5.1,17-0.3,23.6
			c-1.4,1.7-3,3.1-4.8,4.2c9.2-2.4,18.1-6.5,25.5-12.5c-0.1-1.9-0.2-3.7,0.1-5.6c0.6-3.9,2.5-7.5,4.1-11.1c0.1-0.2,0.2-0.4,0.2-0.6
			c-0.1-0.1-0.2-0.2-0.3-0.3c-5.8-7.7-13.4-13.9-21.8-18.3c-7.5-3.9-15.7-6.5-24.1-7.4c-8.9-1-17.8,0-26.4,2.7
			c-18.5,5.8-34,18.4-48.2,31.2c-1.6,1.5-4-0.9-2.4-2.4C357.7,198.4,366.4,191.1,376,184.9z M180.8,181.2c-3.5,0.4-7.1,0.7-10.6,1
			c-14.5,1-29,0.6-43.4-1.4c-14.2-2-28.3-5.7-41.6-11.2c-11.5-4.8-22.4-10.8-32.3-18.3c-9.9-7.4-18.9-16-26.5-25.8
			c-3.8-4.9-7.2-10.1-10.3-15.5c-1.6-2.8-3.6-5.9-3.9-9.1c-0.2-3.2,2-5.8,4.9-6.8c3-1,6.1-0.1,8.7,1.4c2.8,1.6,5.3,3.8,8,5.7
			c5,3.5,10.2,6.8,15.6,9.8c10.8,6.1,22,11.2,33.4,16c11.4,4.8,23,9.4,34.4,14.2c11.3,4.8,22.5,9.9,33.2,15.9
			c10.5,5.9,20.5,12.8,29.5,20.8c0.2,0,0.5,0,0.7-0.1c0.9-0.1,1.7,0.9,1.7,1.7C182.5,180.5,181.7,181.1,180.8,181.2z M408.7,331.6
			c3.5-5.1,7.4-10,11.6-14.6c2.9-3.3,6.9-8.4,12-6.6c2.5,0.9,3.8,3.1,3.5,5.7c-0.3,2.2-1.5,4.5-2.5,6.5
			c-4.3,8.2-11.6,14.6-20.1,18.1c-0.5,0.2-1.3,0-1.7-0.4c-1.4-1.7-2.7-4.4-2.7-6.8C408.4,332.7,408.4,332.1,408.7,331.6z
			 M365.7,314.9c2.8-0.6,5.8,0.6,8.2,2c3.3,1.9,6.5,4,9.7,6c3.2,2,6.4,4,9.6,6c2.4,1.6,5.2,3.9,5.1,7.1c-0.1,1.7-0.9,3.3-2.1,4.2
			c0.6,0.4,0.8,1.2,0.6,1.9c-0.3,1-1.2,1.3-2.1,1.2c-7.3-1.3-14.3-4-20.5-8c-2.7-1.7-5.3-3.7-7.7-5.9c-2.3-2.1-4.6-4.6-5.2-7.8
			C360.8,318.5,362.5,315.5,365.7,314.9z M311.9,243.5c-8,1.8-16,3.7-23.9,5.5c-7,1.6-14,3.4-21.1,4.6c-6.7,1.1-13.3,1.5-20,0.4
			c-12.4-2-23.9-8.1-34-15.4c-0.7-0.5-1.1-1.5-0.6-2.3c0.4-0.7,1.6-1.2,2.3-0.6c5.6,4.1,11.6,7.8,18,10.6c5.5,2.4,11.3,4.1,17.3,4.8
			c6.6,0.7,13.2,0,19.7-1.4c6.9-1.4,13.7-3.1,20.6-4.7c6.9-1.6,13.9-3.2,20.8-4.8C313.1,239.7,314,243,311.9,243.5z M331.5,214.7
			c-2.8,9.6-9.9,18.1-19.1,22.1c-5.7,2.5-11.9,3.3-18.1,3.8c-6.3,0.6-12.6,0.7-19,0.5c-12.7-0.5-25.4-2.5-37.7-6.1
			c-9.9-2.9-19.8-6.8-28.2-13c-7.6-5.6-13.9-13-16.4-22.2c-0.9-0.5-1.8-1.1-2.6-1.9c-1.6-1.5,0.8-3.9,2.4-2.4c0.5,0.4,1,0.8,1.5,1.1
			c0.6-0.1,1.3,0.2,1.6,0.9c1,0.4,2,0.8,3,1c11.4,2.4,21.1-6.7,30.1-12.1c10.2-6.1,21.5-10.7,33.1-13.4c11.4-2.6,23.5-3.8,35.2-2.5
			c5.8,0.6,11.5,2,16.7,4.6c4.8,2.4,8.9,6,12,10.3c0.4,0.6,0.8,1.2,1.2,1.8c1.3-2.9,0.9-6.5-0.7-9.2c-2.5-4.5-7.2-7.2-11.8-9.4
			c-18.2-8.6-39.6-7.4-58.5-1.9c-20.6,6-39.3,17-58.2,27.1c-1.9,1-3.7-1.9-1.7-2.9c11.1-5.9,22.1-12.1,33.5-17.5
			c19.6-9.2,41-16.1,62.8-14c5.3,0.5,10.5,1.5,15.5,3.1c4.8,1.5,9.6,3.5,13.8,6.3c1.1,0.8,2.3,1.6,3.3,2.6c0.2-0.4,0.5-0.8,1-0.9
			c-0.1-0.6-0.3-1.1-0.7-1.6c-0.5-0.7-1.4-1.5-2.1-2.2c-0.8-0.8-1.7-1.7-2.5-2.5c-2.2-2.1-4.4-4.2-6.6-6.2c-0.4,0.4-1,0.6-1.6,0.4
			c-7.2-2.9-14.6-5.1-22.3-6.4c-13.5-2.4-27.4-2.2-40.9,0.3c-13.5,2.6-26.4,7.5-38.1,14.8c-1.9,1.2-3.6-1.8-1.7-2.9
			c6.7-4.2,13.9-7.7,21.4-10.4c13.2-4.8,27.3-7.1,41.3-6.9c12.4,0.2,24.9,2.3,36.6,6.5c-5.4-4.7-10.9-9.2-17-12.9
			c-6.7-4-14.1-6.6-22-7.3c-16.2-1.6-32.3,3-47.6,7.5c-2.1,0.6-3-2.7-0.9-3.3c9.5-2.8,19-5.5,28.8-6.9c8.5-1.2,17.2-1.5,25.7,0.2
			c8.3,1.6,15.8,5.3,22.7,10.1c7.1,5,13.6,10.8,20,16.7c1.6,1.5,3.2,3,4.8,4.6c1.5,1.5,3.2,3,4.6,4.6c1.6,1.9,2.5,6.5-0.6,7.1
			c1.5,1.8,2.7,3.9,3.2,6.2c0.9,3.6,0.5,7.7-1.8,10.8C332.8,198.2,333.7,206.8,331.5,214.7z"/>
		<path d="M312,232.2c-0.3,0.4-0.5,0.8-0.5,1.3c-2.7,1.2-5.5,2.1-8.4,2.7c-6,1.2-12.2,1.5-18.3,1.7c-0.9,0-1.8,0-2.7,0
			c-0.2-0.7-0.7-1.3-1.6-1.3c-6.1-0.4-11.2-6.1-11.7-12.1c-0.6-7.1,3.6-13.7,9.5-17.3c6.3-3.9,14.5-5,21.8-3.6
			c3.4,0.6,6.9,1.9,9.6,4.2c2.1,1.8,3.7,4.2,4.6,6.8C316.6,220.3,316.1,227.3,312,232.2z"/>
		<path d="M432.3,315.5c-0.3,1.9-1.4,3.8-2.2,5.4c-1.8,3.4-4.2,6.5-7,9.1c-2.9,2.7-6.2,5-9.9,6.7c-0.5-0.8-0.8-1.7-1-2.5
			c-0.1-0.4-0.1-1-0.1-1.3c0.1-0.3,0.2-0.6,0.4-0.6c0.8-0.3,1.4-1.1,1.2-2c2.1-2.9,4.4-5.8,6.7-8.5c1.6-1.8,3.2-3.6,4.8-5.3
			c1.2-1.3,2.7-2.9,4.6-3.1C431.3,313.2,432.6,314,432.3,315.5z"/>
		<path d="M394.8,336.3c-0.1,0.6-0.7,1.6-1.3,1.5c-0.9-0.2-1.8,0.2-2.1,1.2c0,0,0,0.1,0,0.1c-3.9-1-7.8-2.4-11.4-4.3
			c-4.8-2.5-9.5-5.7-13.1-9.7c-1.2-1.3-3.1-3.9-2-5.8c1-1.8,3.5-1.1,5-0.5c2.6,0.9,4.9,2.7,7.2,4.1c2.8,1.8,5.6,3.5,8.4,5.3
			c1.6,1,3.2,2,4.8,3c1.2,0.7,2.4,1.5,3.4,2.5C394.4,334.3,395,335.2,394.8,336.3z"/>
		<path class="st4" d="M329.3,205.2c0.2,9.6-4.5,18.8-12,24.7l0,0c2-4.5,2.3-9.6,1-14.4c-0.8-3.2-2.4-6.2-4.6-8.7
			c-2.6-2.9-6.1-4.8-9.8-5.9c-8.2-2.4-18-1.5-25.6,2.4c-7.2,3.7-12.7,11-12.9,19.3c-0.2,6.1,3.1,12,8.1,15.1
			c-8.6-0.4-17.1-1.5-25.5-3.4c-10.5-2.3-20.9-5.5-30.3-10.8c-8.1-4.5-15.5-10.7-19.6-19.2c-0.4-0.8-0.8-1.7-1.1-2.6
			c2.4,0.7,4.9,0.9,7.4,0.6c5.6-0.5,10.6-2.9,15.3-5.8c5-3.1,9.7-6.5,14.8-9.3c5-2.7,10.3-5.1,15.6-7c10.9-3.9,22.3-6.1,33.8-6.5
			c10.9-0.4,22.8,0.4,32,6.8c3.7,2.5,6.7,5.9,8.9,9.8c-0.8,1.1,0.2,2.4,1.3,2.5C328.2,196.7,329.2,201,329.3,205.2z"/>
		<path class="st5" d="M175.5,178.4c-12.3,1.1-24.7,1.3-37,0.3c-14-1.1-27.9-3.8-41.2-8.2c-12-3.9-23.5-9.3-34.1-16.2
			c-10.1-6.5-19.4-14.2-27.5-23.1c-4-4.4-7.7-9.1-11.1-14c-1.7-2.5-3.3-5.1-4.8-7.7c-0.7-1.3-1.4-2.6-2.1-3.9
			c-0.7-1.4-1.6-2.9-1.9-4.5c-0.5-2.5,1.6-4.1,3.9-4.2c3-0.1,5.7,2,8,3.7c4.8,3.6,9.8,7,14.9,10.1c10.4,6.2,21.3,11.5,32.3,16.3
			c11.2,4.9,22.5,9.3,33.7,14c11.1,4.6,22.1,9.3,32.8,14.8c10.5,5.4,20.7,11.6,30,19C172.8,176.1,174.2,177.2,175.5,178.4z"/>
		<path d="M447.8,202.4c-5.8-6.7-16.1-7.5-24.2-5.1c-4.4,1.3-8.4,3.7-10.7,7.8c-2,3.6-2.6,7.9-2.1,12c0.6,4.7,2.3,9.5,5.7,12.9
			c1.2,1.2,2.6,2.3,4.2,3.1c2.3,1.2,4.9,1.6,7.4,0.6c5.1,0.4,10.3-0.7,14.6-3.4c1.8-1.1,3.4-2.5,4.8-4.2
			C452.9,219.4,453.5,209.1,447.8,202.4z M446.2,222c-3.4,5.8-10.1,8.5-16.6,8.3c-0.5-0.5-1.2-0.7-2-0.2c-0.1,0-0.1,0.1-0.2,0.1
			c-1.1-0.1-2.2-0.3-3.3-0.6c-0.8-0.2-1.4,0.1-1.8,0.6c-1.2-0.6-2.4-1.5-3.3-2.4c-2.5-2.5-3.9-5.9-4.6-9.4
			c-0.7-3.3-0.5-6.9,0.7-10.1c1.4-3.4,4.1-5.8,7.5-7c6.6-2.5,15.3-2.8,20.9,1.9C449.2,207.7,449.7,216,446.2,222z"/>
		<path d="M446.2,222c-3.4,5.8-10.1,8.5-16.6,8.3c-0.5-0.5-1.2-0.7-2-0.2c-0.1,0-0.1,0.1-0.2,0.1c-1.1-0.1-2.2-0.3-3.3-0.6
			c-0.8-0.2-1.4,0.1-1.8,0.6c-1.2-0.6-2.4-1.5-3.3-2.4c-2.5-2.5-3.9-5.9-4.6-9.4c-0.7-3.3-0.5-6.9,0.7-10.1c1.4-3.4,4.1-5.8,7.5-7
			c6.6-2.5,15.3-2.8,20.9,1.9C449.2,207.7,449.7,216,446.2,222z"/>
		<g>
			<g>
				<path d="M412.6,475.9c-0.3-0.4-0.6-0.9-0.8-1.4c-0.1-0.3-0.3-0.5-0.6-0.6c-0.2-0.2-0.5-0.3-0.8-0.4c-0.3-0.1-0.6-0.1-0.9,0
					c-0.3,0-0.6,0.1-0.8,0.3c-0.2,0.1-0.3,0.2-0.5,0.4c-0.3,0.3-0.5,0.6-0.6,1c0,0.2-0.1,0.4-0.1,0.6c0,0.4,0.1,0.8,0.3,1.1
					c0.3,0.5,0.5,0.9,0.8,1.4c0.1,0.3,0.3,0.5,0.6,0.6c0.2,0.2,0.5,0.3,0.8,0.4c0.3,0.1,0.6,0.1,0.9,0c0.3,0,0.6-0.1,0.8-0.3
					c0.2-0.1,0.3-0.2,0.5-0.4c0.3-0.3,0.5-0.6,0.6-1c0-0.2,0.1-0.4,0.1-0.6C413,476.6,412.9,476.2,412.6,475.9L412.6,475.9z"/>
			</g>
		</g>
		<g>
			<g>
				<path d="M193.5,398.2c-0.1-0.9-0.1-1.9-0.1-2.8c0-0.6-0.2-1.2-0.7-1.6c-0.2-0.2-0.4-0.4-0.7-0.5c-0.3-0.1-0.6-0.2-0.9-0.2
					c-0.6,0-1.2,0.2-1.6,0.7c-0.4,0.4-0.7,1-0.7,1.6c0,0.9,0.1,1.9,0.1,2.8c0,0.3,0.1,0.6,0.2,0.9c0.1,0.3,0.2,0.5,0.5,0.7
					c0.2,0.2,0.4,0.4,0.7,0.5c0.3,0.1,0.6,0.2,0.9,0.2c0.6,0,1.2-0.2,1.6-0.7C193.3,399.3,193.6,398.8,193.5,398.2L193.5,398.2z"/>
			</g>
		</g>
		<circle class="st4" cx="294.1" cy="224.4" r="6.2"/>
		<circle class="st4" cx="432.2" cy="220.6" r="6.2"/>
		<path d="M566.5,371.6c-3.6,11.8-7.2,23.6-10.7,35.3c-7.2,23.5-14.3,47.1-21.5,70.7c-7.2,23.5-14.3,47.1-21.5,70.6
			c-0.2,0.5-0.4,0.9-0.8,1.1c-1.5,1.2-4.3-0.1-3.6-2.3c0.6-1.9,1.1-3.8,1.7-5.6v0c0.3-0.9,0.6-1.9,0.9-2.8
			c7.1-23.2,14.1-46.4,21.2-69.6c7-23,14-46,21-69.1c1.8-5.8,3.5-11.6,5.3-17.4c0.9-2.9,1.8-5.8,2.6-8.7c0.5-1.5,0.9-3,1.4-4.5
			c0.3-1.1,0.7-2.2,0.8-3.3c0.2-2.3-3-2.1-4.6-2.3c-3-0.4-6-0.8-9-1.2c-6-0.8-12-1.6-18-2.4c-22.7-3-45.3-6.1-68-9.1
			c-1.1-0.2-2.3-0.3-3.4-0.5c-0.2,0-0.3,0-0.5-0.1c-9.3-1.2-18.5-2.5-27.8-3.7c-3.3-0.4-6.5-0.9-9.8-1.3c-8.5-1.1-16.9-2.3-25.4-3.4
			c-2.3-0.3-4.6-0.6-6.8-0.9c-0.1,0.4-0.3,0.7-0.4,1.1c-0.5,1.2-0.9,2.4-1.4,3.7c-0.2,0.6-0.4,1.2-0.7,1.7c-0.4,1.1-0.8,2.2-1.3,3.4
			c-2.5,6.8-5.1,13.5-7.6,20.3c-0.4,1.1-0.8,2.2-1.2,3.3c-3.1,8.2-6.1,16.4-9.1,24.6c-0.4,1.2-0.9,2.3-1.3,3.5
			c-0.4,1.1-0.8,2.2-1.2,3.3c-3,8-5.9,16.1-8.9,24.1c-0.7,1.8-1.3,3.6-2,5.5c-2.1,5.7-4.2,11.5-6.3,17.2c-4.9,13.3-9.7,26.7-14.5,40
			c0,0.1-0.1,0.2-0.1,0.3c-1.4,3.9-2.8,7.9-4.3,11.9c-0.1,0.4-0.3,0.8-0.4,1.2c-2.3,6.3-4.5,12.6-6.8,18.9
			c-1.4,3.9-2.8,7.7-4.1,11.6c-2.6,7.3-5.2,14.5-7.7,21.8c-0.1,0.3-0.2,0.6-0.3,0.9c-0.1,0.2-0.1,0.3-0.2,0.4c0,0,0,0,0,0
			c0,0,0,0.1,0,0.1c-0.4,1.2-0.9,2.5-1.3,3.7c-5.6,15.9-11.1,31.8-16.7,47.7c0,0,0,0,0,0c-0.2,0.5-0.3,1-0.5,1.5
			c-0.1,0.2-0.2,0.5-0.2,0.7c0,0.1-0.1,0.2-0.1,0.3c-0.7,1.3-2.2,1.5-3.3,0.9c-0.4-0.2-0.8-0.5-0.9-1c-0.2-0.4-0.2-0.9,0-1.5
			c0.3-1,0.7-1.9,1-2.9c0.4-1.3,0.9-2.5,1.3-3.8c0.8-2.3,1.6-4.6,2.4-7c0.5-1.4,1-2.8,1.5-4.3c1.5-4.4,3.1-8.9,4.7-13.3
			c0.5-1.4,1-2.9,1.5-4.3c2.1-5.9,4.1-11.8,6.2-17.6v0c0.1-0.3,0.2-0.6,0.3-0.8c0.4-1.2,0.8-2.4,1.3-3.6c0.1-0.2,0.1-0.3,0.2-0.5
			c0.3-0.7,0.5-1.5,0.8-2.2c0.3-0.7,0.5-1.4,0.8-2.2c0.5-1.4,1-2.8,1.5-4.3c1.4-4.1,2.9-8.2,4.3-12.2c0.3-0.8,0.5-1.5,0.8-2.3
			c0.2-0.7,0.5-1.4,0.7-2.1c1.6-4.6,3.3-9.3,5-13.9c1.7-4.8,3.5-9.7,5.2-14.5c0.3-0.8,0.6-1.5,0.8-2.3c6.1-17,12.3-34,18.5-51
			c0.3-0.8,0.6-1.6,0.9-2.4c1.9-5.1,3.7-10.1,5.6-15.2c0.4-1.2,0.9-2.4,1.3-3.6c0.1-0.4,0.3-0.8,0.4-1.2c2.4-6.4,4.7-12.9,7.1-19.3
			c0.4-1.1,0.8-2.2,1.2-3.3c1.3-3.7,2.7-7.3,4.1-11c2.1-5.7,4.2-11.4,6.4-17c0.4-1.1,0.8-2.2,1.2-3.3c2.5-6.7,5-13.4,7.5-20.1
			c0.4-1.1,0.8-2.2,1.3-3.3c0.8-2.2,1.7-4.4,2.5-6.6c0.3-0.9,0.7-1.9,1.1-2.8c0-0.1,0.1-0.2,0.2-0.4c0.5-1,1.5-1.4,2.6-1.2
			c0.7,0.1,1.3,0.2,2,0.3c0.8,0.1,1.5,0.2,2.3,0.3h0c0.4,0.1,0.7,0.1,1.1,0.2c1.2,0.2,2.3,0.3,3.5,0.5c0.1,0,0.1,0,0.2,0
			c4.2,0.6,8.5,1.1,12.7,1.7c1.3,0.2,2.5,0.3,3.8,0.5c6.5,0.9,13.1,1.8,19.6,2.6c2.2,0.3,4.5,0.6,6.7,0.9c6.2,0.8,12.4,1.7,18.6,2.5
			c1.2,0.2,2.4,0.3,3.6,0.5c2.8,0.4,5.5,0.7,8.3,1.1c4.4,0.6,8.8,1.2,13.2,1.8h0c0,0,0,0,0,0c7.3,1,14.5,2,21.8,2.9h0
			c2.9,0.4,5.8,0.8,8.8,1.2c0,0,0,0,0,0c9.7,1.3,19.5,2.6,29.2,3.9c3.1,0.4,6.2,0.8,9.3,1.2c2.9,0.4,5.9,0.6,8.8,1.2
			c0.5,0.1,1.1,0.3,1.6,0.5c0.3,0.1,0.5,0.2,0.8,0.4c0.2,0.1,0.4,0.2,0.6,0.4c0.4,0.3,0.8,0.7,1.1,1.1c0.5,0.6,0.9,1.3,1.1,2.1
			c0.1,0.3,0.1,0.6,0.2,0.9v0C568,367.2,567.2,369.5,566.5,371.6z"/>
		<path d="M413.1,620.4c-0.1,0-0.2,0-0.2,0c-8.9-0.3-17.8-0.5-26.7-0.8c-16-0.5-32-0.9-48.1-1.3c-16-0.4-31.9-0.7-47.9-1
			c-1.6,0-2.3-1.4-2.2-2.6c0-0.3,0.1-0.6,0.2-0.8c0.3-0.7,1-1.2,2-1.2c0.5,0,1,0,1.5,0c0.1,0,0.3,0,0.4,0c8.4,0.2,16.7,0.3,25.1,0.5
			c16,0.3,32,0.7,48.1,1.2c14.2,0.4,28.3,0.8,42.5,1.2c1.8,0,3.6,0.1,5.4,0.2C416,615.9,416,620.5,413.1,620.4z"/>
		<path class="st7" d="M641.1,344c-6.4,15-12.8,30-19.2,44.9c-7.1,16.5-14.1,33-21.2,49.4c-7,16.4-14.1,32.8-21.1,49.2
			c-7.1,16.4-14.2,32.8-21.3,49.2c-6.5,15-13.1,30-19.8,45c0.5-4.3,1.3-8.5,2.5-12.7c1.6-5.6,4.1-10.9,5.9-16.4
			c1.7-5.5,2.4-11.5-0.1-16.9c-2.1-4.6-6.3-8.4-11.5-8.9c-5.6-0.5-9.8,3.7-12.7,8c-3.2,4.9-6.1,10.1-8.4,15.4
			c-0.4,1-0.8,2.1-1.2,3.2c-0.3-1.4-0.6-2.7-0.9-4c0.3-0.2,0.6-0.6,0.8-1.1c7.2-23.5,14.3-47.1,21.5-70.6
			c7.2-23.6,14.3-47.1,21.5-70.7c3.6-11.8,7.2-23.5,10.7-35.3c0.7-2.1,1.5-4.4,1.3-6.6v0c20-5.7,40-11.4,60-17.2
			C632.2,346.5,636.6,345.3,641.1,344z"/>
		<path d="M647,341.6c-0.9,2.1-1.8,4.2-2.7,6.3c-7.1,16.4-14.1,32.9-21.1,49.3c-7,16.5-14.1,32.9-21.2,49.4
			c-7,16.4-14.1,32.8-21.2,49.2c-7.1,16.4-14.2,32.8-21.3,49.1c-7.1,16.3-14.3,32.6-21.6,48.8v0c0,0.1-0.1,0.1-0.1,0.2
			c-0.5,1.1-2.1,1.4-3.1,0.8c-1.1-0.7-1.3-2-0.8-3.1c0.9-2.1,1.8-4.1,2.8-6.2c0.6-1.3,1.1-2.5,1.7-3.8c6.7-15,13.2-30,19.8-45
			c7.2-16.4,14.2-32.8,21.3-49.1c7.1-16.4,14.1-32.8,21.2-49.2c7.1-16.5,14.1-32.9,21.2-49.4c6.4-15,12.8-30,19.2-44.9
			c-4.4,1.3-8.9,2.5-13.3,3.8c-20,5.7-40,11.4-60,17.2v0c-0.8,0.2-1.5,0.4-2.3,0.7c-2.6,0.8-3.9-3-1.7-4.2c0.2-0.1,0.3-0.2,0.5-0.2
			c0,0,0,0,0,0h0c0,0,0.1,0,0.1,0c0.3-0.1,0.7-0.2,1-0.3c0.4-0.1,0.8-0.2,1.2-0.3h0c0.1,0,0.1,0,0.2-0.1c0.3-0.1,0.6-0.2,0.8-0.2
			c0.5-0.1,0.9-0.3,1.4-0.4c0.1,0,0.2-0.1,0.4-0.1c0,0,0.1,0,0.1,0c0.8-0.2,1.5-0.4,2.2-0.6c3.5-1,6.9-2,10.4-3
			c15.2-4.4,30.5-8.7,45.7-13.1c0,0,0,0,0,0c2.1-0.6,4.2-1.2,6.3-1.8c0.3-0.1,0.5-0.2,0.8-0.2c0,0,0,0,0,0c3-0.9,5.9-1.7,8.9-2.6
			c0,0,0,0,0,0c0.2,0,0.3-0.1,0.5-0.1c0.4-0.1,0.8-0.1,1.2,0c0.8,0.2,1.3,0.8,1.5,1.5C647.2,340.4,647.2,341.1,647,341.6z"/>
		<path class="st8" d="M484.6,349.2c-4.4-0.6-8.8-1.2-13.2-1.8c-24.4-3.3-48.8-6.6-73.2-9.9c-1.6-0.2-3.2-0.4-4.7-0.6h0
			c0-1.6,0.2-3.2,0.6-4.8c16.4,2.4,32.8,5.2,49.2,8.3C457,343.1,470.8,346,484.6,349.2z"/>
		<path d="M520.6,358.2c-9.2-2.5-18.5-4.8-27.8-7c-2.8-0.7-5.5-1.3-8.3-1.9c0,0,0,0,0,0h0c-13.7-3.2-27.5-6.1-41.4-8.8
			c-16.3-3.1-32.7-5.9-49.2-8.3c-0.4,1.6-0.7,3.2-0.6,4.8h0c0,0.6,0,1.2,0.1,1.7c0.2,1.5-2.1,1.4-2.3,0c-0.1-0.7-0.1-1.4-0.1-2.1
			c0-2.1,0.3-4.1,1-6.1c0.2-0.6,0.8-0.9,1.4-0.8c3,0.4,6,0.9,9,1.3c0.8,0.1,1.5,0.2,2.3,0.4c5.7,0.9,11.3,1.8,17,2.8
			c16.7,2.9,33.3,6.1,49.8,9.7c11.6,2.5,23.2,5.3,34.7,8.2h0c5,1.2,9.9,2.5,14.8,3.8C522.6,356.4,522,358.5,520.6,358.2z"/>
		<path class="st8" d="M515.1,353.3c-2.9-0.4-5.8-0.8-8.8-1.2h0c-11.5-2.9-23.1-5.6-34.7-8.2c-16.5-3.6-33.2-6.8-49.8-9.7
			c-5.7-1-11.3-1.9-17-2.8c-0.2-1.5-0.2-3,0.2-4.5c20.5,3.8,40.9,8.3,61.1,13.6c10.3,2.7,20.6,5.7,30.9,8.5
			C503,350.6,509,352,515.1,353.3z"/>
		<path d="M564.8,360.5c-0.1,0.2-0.2,0.5-0.4,0.6c0,0-0.1,0.1-0.1,0.1h0c0,0,0,0,0,0c-0.1,0.1-0.3,0.2-0.5,0.2c-0.1,0-0.2,0-0.4,0
			c-11.8-1.8-23.6-3.5-35.4-5.6c-4.3-0.8-8.6-1.6-12.9-2.5c0,0,0,0,0,0C509,352,503,350.6,497,349c-10.3-2.7-20.5-5.8-30.9-8.5
			c-20.2-5.3-40.5-9.8-61.1-13.6c-0.4,1.5-0.5,3-0.2,4.5c0,0,0,0.1,0,0.1c0.3,1.4-1.9,2-2.2,0.6c-0.1-0.4-0.1-0.7-0.2-1.1
			c-0.2-1.9,0-3.9,0.7-5.7c0.2-0.6,0.8-0.9,1.4-0.8c3.8,0.7,7.5,1.4,11.3,2.1c0.7,0.1,1.5,0.3,2.2,0.4c7.3,1.5,14.5,3,21.8,4.6
			c10.3,2.4,20.7,4.9,30.9,7.6c10.3,2.8,20.6,5.8,30.9,8.5c20.2,5.1,40.8,8.2,61.3,11.2h0c0.4,0.1,0.7,0.1,1.1,0.2
			C564.7,359.4,564.9,360,564.8,360.5z"/>
		<path class="st8" d="M562.9,359.1c-20.6-3.1-41.2-6.1-61.3-11.2c-10.4-2.6-20.6-5.7-30.9-8.5c-10.3-2.7-20.6-5.3-30.9-7.6
			c-7.2-1.6-14.5-3.2-21.8-4.6c0.9-2,1.8-4,2.7-6c19.2,5.6,38.3,11.2,57.6,16.6c19.5,5.4,39.2,10.6,58.9,15.1
			c5.5,1.3,11.1,2.5,16.6,3.7c2.4,0.5,4.8,0.8,7.1,1.6C561.5,358.4,562.3,358.7,562.9,359.1z"/>
		<path d="M566.7,361.5c0,0.2,0,0.4-0.1,0.5c-0.4,0.9-2.1,0.7-2.2-0.5c0-0.1,0-0.2,0-0.2c0,0,0,0,0-0.1c0-0.4-0.2-0.7-0.4-1
			c-0.3-0.4-0.7-0.8-1.1-1.1h0c-0.6-0.4-1.4-0.7-2-0.9c-2.3-0.8-4.8-1.1-7.1-1.6c-5.6-1.2-11.1-2.4-16.6-3.7
			c-19.8-4.6-39.4-9.7-58.9-15.2c-8.6-2.4-17.1-4.8-25.6-7.3c-1.1-0.3-2.2-0.6-3.3-0.9c-5.8-1.7-11.6-3.4-17.3-5
			c-1.1-0.3-2.3-0.6-3.4-1c-2.5-0.7-5.1-1.5-7.6-2.2c-0.1,0-0.2-0.1-0.3-0.1c-0.1,0.3-0.3,0.7-0.4,1c-0.7,1.7-1.5,3.4-2.2,5.1
			c0,0.1-0.1,0.2-0.1,0.2c-0.4,0.9-1.5,0.6-1.9-0.1c-0.1-0.2-0.2-0.4-0.2-0.6c0-0.2,0-0.3,0.1-0.5c1-2.4,2.1-4.7,3.1-7.1
			c0.2-0.5,0.9-0.6,1.3-0.5c0.8,0.2,1.6,0.5,2.3,0.7c2.4,0.7,4.8,1.4,7.2,2.1c1.1,0.3,2.2,0.7,3.3,1c5.5,1.6,11.1,3.2,16.6,4.8
			c1.1,0.3,2.2,0.6,3.3,1c0.2,0.1,0.5,0.1,0.7,0.2c20,5.8,40,11.3,60.1,16.4c10.1,2.6,20.2,5,30.3,7.3c3.6,0.8,7.3,1.6,10.9,2.4
			c0.7,0.2,1.5,0.3,2.2,0.5c0.7,0.2,1.4,0.3,2.1,0.4c2.9,0.6,6.5,2,7.1,5.2h0C566.6,360.9,566.7,361.2,566.7,361.5z"/>
		<path d="M647.2,339.2c0,0.2,0,0.4-0.1,0.6c-0.2,0.3-0.5,0.6-0.9,0.7c-3.7,0.5-7.4,0.6-11.2,0.5c0,0,0,0,0,0
			c-4.5-0.1-8.9-0.5-13.4-1.2c-4.8-0.7-9.6-1.5-14.5-2.4c-5.4-1-10.8-1.9-16.2-2.6c-4.3-0.5-8.6-0.9-13-0.8c-3.4,0-7,0.1-10.3,0.9
			c-2.9,0.7-5.5,2.3-6,5.5c-0.5,3.2,0.8,6.9,2.1,9.8c0.2,0.4,0.3,0.8,0.5,1.1c1,1.9,2.1,3.8,3.4,5.5c0.5,0.6,1,1.3,1.5,1.9
			c0.2,0.2,0.3,0.5,0.3,0.7v0.1c0,0.1,0,0.2-0.1,0.4c-0.1,0.2-0.2,0.3-0.3,0.4c-0.4,0.4-1,0.5-1.5,0.1c0,0,0-0.1-0.1-0.1
			c-0.7-0.8-1.3-1.5-1.9-2.4c-1.8-2.4-3.3-5.1-4.4-7.9c-0.4-0.9-0.7-1.9-1-2.9c-0.5-1.6-0.9-3.3-0.9-4.9c0-1.2,0.1-2.4,0.5-3.6
			c1-3.1,3.8-4.9,6.8-5.8c3.4-0.9,7-1,10.4-1.1c7.7-0.1,15.4,0.9,23,2.2c14.5,2.4,29.1,5.9,43.9,4.5c0,0,0,0,0,0
			c0.6,0,1.1-0.1,1.7-0.2c0.2,0,0.4,0,0.6-0.1C646.9,338.1,647.2,338.6,647.2,339.2z"/>
		<path class="st8" d="M591,334.8c-3.4,0.2-6.9,0.5-10.3,1.1c-7,1.2-15,4.8-16.3,12.6c-0.2,0.9-0.2,1.8-0.2,2.7
			c-0.2-0.4-0.4-0.7-0.5-1.1c-1.3-2.9-2.6-6.6-2.1-9.8c0.5-3.2,3.1-4.8,6-5.5c3.3-0.8,6.9-0.9,10.3-0.9
			C582.3,334,586.7,334.3,591,334.8z"/>
		<path d="M607.2,337.4c-0.2,0.1-0.4,0.2-0.7,0.2c-4.4-0.5-8.9-0.7-13.4-0.6c-3.9,0.1-7.9,0.4-11.8,1.1c-3.5,0.6-6.9,1.6-9.8,3.6
			c-2.6,1.9-4.6,4.6-4.9,7.9c-0.2,2.4,0.2,4.8,1.1,7.1c0.4,1.1,0.9,2.1,1.4,3.1c0,0,0,0,0,0c0,0.1,0.1,0.2,0.1,0.3
			c0.2,1.1-1.5,2-2.1,0.8c-0.1-0.2-0.2-0.3-0.2-0.5c-0.4-0.9-0.8-1.8-1.2-2.7c-0.8-2.1-1.4-4.3-1.4-6.6c0-0.9,0-1.8,0.2-2.7
			c1.3-7.8,9.3-11.4,16.3-12.6c3.4-0.6,6.8-1,10.3-1.1c5.2-0.3,10.4-0.1,15.5,0.5C607.6,335.5,607.9,337,607.2,337.4z"/>
		<path class="st8" d="M635,341c-0.3,0.1-0.5,0.2-0.8,0.2c-10.5-0.9-21.1-1-31.6-0.2c-5.1,0.4-10.3,0.9-15.4,1.9
			c-4.5,0.9-9,2.4-12.4,5.5c-3.1,2.8-5.2,6.7-5.3,10.8c0-0.2-0.1-0.5-0.3-0.7c-0.5-0.6-1.1-1.2-1.5-1.9c-0.8-2.3-1.3-4.7-1.1-7.1
			c0.3-3.2,2.3-6,4.9-7.9c2.9-2.1,6.4-3,9.8-3.6c3.9-0.7,7.8-1,11.8-1.1c4.5-0.1,9,0.1,13.4,0.6c0.3,0,0.5,0,0.7-0.2
			c4.8,0.9,9.6,1.8,14.4,2.4C626,340.5,630.5,340.9,635,341z"/>
		<path class="st8" d="M627.8,343.1c-15.2,4.4-30.5,8.7-45.7,13.1c-3.5,1-6.9,2-10.4,3c0.1-3.4,2-6.7,4.5-8.9
			c3.3-2.9,7.6-4.3,11.9-5.1c4.8-0.9,9.6-1.4,14.5-1.7c5.1-0.4,10.1-0.6,15.2-0.6C621.1,342.8,624.5,342.9,627.8,343.1z"/>
		<path d="M635.2,343.6c-2.5-0.2-4.9-0.4-7.4-0.5c0,0,0,0,0,0c-3.3-0.2-6.7-0.3-10-0.3c-5.1,0-10.2,0.2-15.2,0.6
			c-4.8,0.4-9.7,0.8-14.5,1.7c-4.2,0.8-8.6,2.2-11.9,5.1c-2.5,2.3-4.5,5.5-4.5,8.9c0,0.5,0,1,0.1,1.5c0.2,1.4-2,2-2.2,0.6
			c-0.1-0.5-0.1-1-0.1-1.5c0-0.1,0-0.2,0-0.3v-0.1c0-4.1,2.1-8,5.3-10.8c3.5-3.1,8-4.6,12.4-5.5c5.1-1,10.3-1.5,15.4-1.9
			c10.5-0.8,21.1-0.8,31.6,0.2c0.4,0,0.7,0.1,1.1,0.1C636.7,341.5,636.7,343.7,635.2,343.6z"/>
		<path d="M566.8,360.5c-0.1,0-0.2,0-0.2,0.1h0c-0.6-3.2-4.3-4.5-7.1-5.2c-0.7-0.2-1.4-0.3-2.1-0.4c1.1-2.6,2-5.2,2.8-7.9
			c0.3,1,0.7,2,1,2.9c1.1,2.8,2.6,5.5,4.4,7.9C566,358.8,566.4,359.7,566.8,360.5z"/>
		<path d="M561.3,343.1c-0.4,1.3-0.7,2.7-1.1,4c-0.8,2.7-1.8,5.3-2.8,7.9c-0.1,0.3-0.3,0.7-0.4,1c-0.2,0.6-0.7,1-1.4,0.8
			c-0.5-0.2-1-0.8-0.8-1.4c0.1-0.3,0.2-0.6,0.4-0.9c1.6-3.9,2.9-8,4-12c0-0.1,0.1-0.2,0.1-0.3C559.8,341.2,561.7,341.8,561.3,343.1z
			"/>
		<path d="M315.8,533.9c-0.3-0.2-0.7-0.4-1-0.6c-1.1-0.7-2.2-1.3-3.3-2c-11.3-6.8-23.6-12.4-36.8-14.4c-11.2-1.7-23.1-0.4-33.3,4.7
			c-5,2.5-9.4,5.8-13.1,10.1c-4.3,5-7.1,11-9.7,17c-5.8,13.4-10.8,27-15.5,40.8c-4.3,12.5-8.2,25-12.2,37.6h-4.7
			c0.2-0.7,0.5-1.5,0.7-2.2c4.5-14.3,9.1-28.6,14-42.8c2.5-7.1,5.1-14.1,7.8-21.1c2.7-6.8,5.4-13.6,8.6-20.2
			c2.9-5.9,6.5-11.5,11.4-15.9c4.5-4,9.7-7.1,15.3-9.3c11.6-4.5,24.4-4.8,36.5-2.2c12.8,2.8,24.7,8.7,35.8,15.5
			c0.6,0.4,1.2,0.7,1.7,1.1C320.5,531.5,318.2,535.4,315.8,533.9z"/>
		<path d="M312.9,548.6c-0.3,1.1-1.6,2-2.8,1.6c-0.4-0.1-0.8-0.3-1.2-0.4c-3.4-1.1-6.8-2.1-10.3-3c-2.2-0.6-4.5-1.1-6.8-1.6
			c-4.5-1-9-1.7-13.6-2.3c-0.2,0-0.4,0-0.6-0.1c-6.7-0.8-13.4-1-20,0.5c-1.2,0.3-2.4-0.4-2.8-1.6c-0.3-1.1,0.4-2.5,1.6-2.8
			c4-0.9,8.2-1.4,12.3-1.4c7.2,0.1,14.6,1.3,21.7,2.7c6.7,1.3,13.4,3.1,19.9,5.2c0.3,0.1,0.6,0.2,0.9,0.3
			C312.5,546.2,313.2,547.3,312.9,548.6z"/>
		<path d="M310.7,558.4c0,0.4-0.1,0.7-0.3,1.1c0,0.1-0.1,0.2-0.2,0.2c0,0,0,0,0,0c-0.7,0.8-2,1.2-2.9,0.6c-0.5-0.4-1.1-0.8-1.6-1.2
			v0c-8.4-6-17.5-11.2-27-15.3c-0.4-0.2-0.8-0.6-0.9-1c-0.3-0.7-0.2-1.5,0.1-2.1c0.7-1.1,2-1.3,3.1-0.8c3.7,1.6,7.4,3.4,10.9,5.3
			c5.3,2.8,10.4,6,15.3,9.5c0.8,0.6,1.6,1.1,2.4,1.7C310.2,556.8,310.7,557.6,310.7,558.4z"/>
		<path d="M301.7,580.5c-0.7,1.1-2,1.3-3.1,0.8c-0.2-0.1-0.5-0.2-0.7-0.3c-3.8-1.8-7.5-3.6-11.3-5.4c-3.5-1.7-6.9-3.3-10.4-5
			c-3.2-1.5-6.4-3-9.7-4.1c-6.7-2.2-13.9-2.5-20.7-0.8c-2.8,0.7-4-3.7-1.2-4.4c4.2-1,8.5-1.5,12.8-1.2c3.8,0.3,7.6,1,11.2,2.3
			c3.6,1.3,7,2.9,10.5,4.6c6.8,3.2,13.6,6.5,20.4,9.7c0.5,0.2,1,0.5,1.5,0.7C302,577.9,302.3,579.5,301.7,580.5z"/>
		<path d="M294.7,597.1c-0.3,1.1-1.6,2-2.8,1.6c0,0-0.1,0-0.1,0c-4-1.3-8-2.6-12-3.9c-3.6-1.2-7.1-2.3-10.7-3.5
			c-1.8-0.6-3.6-1.2-5.3-1.8c-1.7-0.6-3.4-1.2-5.1-1.5c-3.3-0.7-7,0.7-10.2,1.5c-3.5,0.9-6.9,2-10.3,3.2c-1.2,0.4-2.5-0.5-2.8-1.6
			c-0.3-1.2,0.4-2.4,1.6-2.8c4-1.4,8-2.6,12.1-3.6c3.8-1,7.5-1.9,11.4-0.9c3.7,0.9,7.2,2.3,10.8,3.5c7.3,2.4,14.6,4.8,21.9,7.2
			c0.1,0,0.1,0,0.2,0.1C294.3,594.8,295,595.9,294.7,597.1z"/>
		<path class="st7" d="M563.3,366c-0.1,1.1-0.5,2.2-0.8,3.3c-0.5,1.5-0.9,3-1.4,4.5c-0.9,2.9-1.8,5.8-2.6,8.7
			c-1.8,5.8-3.5,11.6-5.3,17.4c-7,23-14,46-21,69.1c-7.1,23.2-14.1,46.4-21.2,69.6c-0.3,0.9-0.6,1.9-0.9,2.8
			c-1.1-4.6-2.3-9.2-3.5-13.7c-1.8-6.6-3.6-13.2-5.8-19.6c-1.9-5.5-4.2-10.8-7.8-15.3c-1.7-2.1-3.8-4-6.1-5.5
			c-2.7-1.7-6.2-3.1-9.4-2c-5.1,1.8-6.3,7.8-6.1,12.6c0.1,3.3,0.8,6.7,1.2,10c0.5,3.7,1.1,7.4,1.6,11c1.1,7.3,2.3,14.7,3.6,22
			c2.3,13.1,4.9,26.2,7.7,39.3c-6.4-8.4-12.7-16.8-19.1-25.2c-4-5.3-8-10.8-12.2-15.9c-3.6-4.4-7.9-8.5-13.4-10.3
			c-4.4-1.4-9.7-0.7-13.6,1.8c-2,1.4-3.6,3.2-4.6,5.4c-1.1,2.7-0.9,5.7,0,8.4c1.1,3,2.8,5.6,4.6,8.2c1.8,2.6,3.5,5.1,5.2,7.7
			c3.5,5.2,6.8,10.5,9.9,15.9c6.1,10.7,11.4,21.9,14.5,33.8c0.2,0.7,0.4,1.4,0.5,2.1c-1.4-0.2-2.9-1.3-4-2.1
			c-2.3-1.8-4.4-3.7-6.5-5.7c-4.2-3.9-8.2-7.9-12.4-11.6c-8.3-7.5-17.8-14.2-28.9-16.7c-5.2-1.2-11-1.4-16.2,0
			c-2.6,0.7-5.1,2.1-6.7,4.4c-1.5,2.1-1.7,4.8-1.2,7.2c1.2,5.2,5.4,9.2,9.2,12.6c4.6,4.2,9.3,8.5,13.9,12.7c1,0.9,2,1.8,3,2.7
			c-14.2-0.4-28.3-0.8-42.5-1.2c-16-0.4-32-0.8-48.1-1.2c-8.4-0.2-16.7-0.4-25.1-0.5c0.1-0.3,0.2-0.6,0.2-0.9c0-0.2,0-0.4-0.1-0.6
			c0,0,0,0,0,0c5.9-17.2,11.9-34.3,18-51.4c0,0,0-0.1,0-0.1c0,0,0,0,0,0c0.1-0.1,0.1-0.2,0.2-0.2c0.2-0.4,0.3-0.7,0.3-1.1
			c6.2-17.5,12.4-34.9,18.6-52.3c6.4-17.8,12.8-35.6,19.3-53.4c6.5-17.9,13.1-35.7,19.7-53.6c6.6-17.8,13.2-35.5,19.9-53.2
			c0.6-1.6,1.2-3.2,1.8-4.8c23.3,3.1,46.5,6.3,69.8,9.4c24,3.2,47.9,6.4,71.9,9.7c6,0.8,12,1.6,18,2.4c3,0.4,6,0.8,9,1.2
			C560.3,363.9,563.5,363.8,563.3,366z"/>
		<path d="M292.3,611.9c0,0.3-0.1,0.6-0.2,0.9c-0.2,0.4-0.4,0.7-0.8,1c-0.4,0.3-0.8,0.4-1.3,0.4c-0.6-0.1-1.2-0.2-1.8-0.2l-1.2-0.2
			c-3.4-0.4-6.8-0.9-10.2-1.3c-0.2,0-0.4-0.1-0.7-0.1c-1.5-0.2-3-0.4-4.6-0.7c-2.1-0.3-4.3-0.6-6.4-0.6c-3.7-0.2-7.3,0.6-10.9,1.1
			c-2,0.3-4,0.6-6,0.9c-1.7,0.3-3.5,0.4-5.2,0.9c-1.2,0.3-1.4,0.7-1.8,1.7c-0.6,1.6-1.2,2.9-2.6,3.9c-1,0.7-2.5,0.2-3.1-0.8
			c-0.7-1.1-0.2-2.3,0.8-3.1c-0.1,0.1,0.1-0.3,0.1-0.1c0.1-0.1,0.1-0.2,0.2-0.3c0.1-0.2,0.1-0.2,0.3-0.7c0.3-0.8,0.6-1.6,1-2.3
			c1.1-1.7,2.8-2.5,4.8-2.9c3.9-0.7,7.8-1.2,11.7-1.8c3.9-0.6,7.8-1.3,11.8-1c4,0.3,8,1,12,1.5c3.3,0.4,6.6,0.9,9.9,1.3
			c0.7,0.1,1.3,0.2,2,0.3c1,0.1,1.9,0.7,2.2,1.6c0,0,0,0,0,0C292.2,611.4,292.3,611.7,292.3,611.9z"/>
		<path class="st0" d="M270.7,627.1c3.6-4,5.7-9.3,5.6-14.7c0.2,0,0.4,0.1,0.7,0.1c3.4,0.5,6.8,0.9,10.2,1.3c0.2,0.4,0.5,0.7,0.9,1
			c-0.1,1.2,0.6,2.5,2.2,2.6c16,0.3,31.9,0.7,47.9,1c16,0.4,32,0.8,48.1,1.3c8.9,0.3,17.8,0.5,26.7,0.8c2.4,2.2,4.9,4.5,7.3,6.7
			H270.7z"/>
		<path d="M270.7,627.1h-7c0.1-0.1,0.2-0.1,0.2-0.2c2.6-1.6,4.7-4,6.1-6.8c1.3-2.6,1.8-5.4,1.6-8.4c0-0.2,0-0.4,0-0.6
			c-0.1-1.2,1.1-2.3,2.3-2.3c1.3,0,2.2,1.1,2.3,2.3c0,0.4,0.1,0.8,0.1,1.3C276.4,617.7,274.3,623.1,270.7,627.1z"/>
		<path class="st4" d="M254.9,541.7c0.3,1.2,1.6,1.9,2.8,1.6c6.6-1.5,13.3-1.3,20-0.5c0.2,0.4,0.5,0.8,0.9,1
			c9.5,4.1,18.6,9.2,27,15.3v0c-2.1,5.9-4.1,11.8-6.2,17.6c-6.8-3.2-13.6-6.5-20.4-9.7c-3.4-1.6-6.9-3.3-10.5-4.6
			c-3.6-1.3-7.4-2-11.2-2.3c-4.3-0.3-8.6,0.1-12.8,1.2c-2.8,0.7-1.6,5.1,1.2,4.4c6.8-1.7,14-1.4,20.7,0.8c3.4,1.1,6.5,2.6,9.7,4.1
			c3.5,1.7,6.9,3.3,10.4,5c3.8,1.8,7.5,3.6,11.3,5.4c-1.6,4.4-3.1,8.9-4.7,13.3c-0.1,0-0.1,0-0.2-0.1c-7.3-2.4-14.6-4.8-21.9-7.2
			c-3.6-1.2-7.2-2.6-10.8-3.5c-3.9-0.9-7.6,0-11.4,0.9c-4.1,1-8.1,2.3-12.1,3.6c-1.1,0.4-1.9,1.5-1.6,2.8c0.3,1.1,1.6,2,2.8,1.6
			c3.4-1.2,6.8-2.3,10.3-3.2c3.2-0.8,6.8-2.2,10.2-1.5c1.7,0.4,3.4,1,5.1,1.5c1.8,0.6,3.6,1.2,5.3,1.8c3.6,1.2,7.1,2.3,10.7,3.5
			c4,1.3,8,2.6,12,3.9c-0.8,2.3-1.6,4.6-2.4,7c-0.4,1.3-0.9,2.5-1.3,3.8c-3.3-0.4-6.6-0.9-9.9-1.3c-4-0.5-8-1.2-12-1.5
			c-4-0.3-7.9,0.4-11.8,1c-3.9,0.6-7.8,1.1-11.7,1.8c-1.9,0.3-3.7,1.2-4.8,2.9c-0.5,0.7-0.7,1.5-1,2.3c-0.2,0.5-0.2,0.5-0.3,0.7
			c-0.1,0.1-0.1,0.2-0.2,0.3c0.1-0.2-0.2,0.2-0.1,0.1c-1,0.7-1.4,2-0.8,3.1c0.6,1,2.1,1.5,3.1,0.8c1.4-1,2-2.3,2.6-3.9
			c0.4-1,0.6-1.4,1.8-1.7c1.7-0.4,3.5-0.6,5.2-0.9c2-0.3,4-0.6,6-0.9c3.6-0.5,7.3-1.3,10.9-1.1c2.1,0.1,4.3,0.3,6.4,0.6
			c0.2,3-0.4,5.8-1.6,8.4c-1.4,2.9-3.5,5.2-6.1,6.8c-0.1,0.1-0.2,0.1-0.2,0.2h-72.8c4-12.6,7.9-25.1,12.2-37.6
			c4.7-13.8,9.7-27.5,15.5-40.8c2.6-6,5.5-12,9.7-17c3.7-4.3,8.1-7.6,13.1-10.1c10.2-5.1,22.1-6.4,33.3-4.7
			c13.2,2,25.4,7.6,36.8,14.4c1.1,0.7,2.2,1.3,3.3,2c-1.5,4.1-2.9,8.2-4.3,12.2c-6.5-2.1-13.2-3.9-19.9-5.2
			c-7.1-1.4-14.4-2.6-21.7-2.7c-4.1,0-8.3,0.4-12.3,1.4C255.3,539.2,254.6,540.6,254.9,541.7z"/>
		<g>
			<path d="M392.3,448.8c3-7.4,6.8-14.4,10.6-21.4c3.4-6.3,6.5-13.7,13.3-17c3.6-1.7,7.9-2.4,11.9-2.6c3.3-0.2,6.9-0.1,9.8,1.6
				c5.8,3.5,2.4,11.3-1.2,15c-5.6,5.8-13.7,8.2-21.3,9.9c0.2,0.7,0.4,1.5,0.6,2.2c5.5-1.9,12.2-3.3,17.8-0.9
				c2.1,0.9,3.9,2.4,4.4,4.7c0.5,2.2-0.4,4.5-1.4,6.3c-3,5.2-8.5,8.1-14.1,9.4c-6.2,1.5-12.7,2-19,1.4c-3.3-0.4-16.2-2.3-11.6-8.1
				c0.9-1.1-0.7-2.7-1.6-1.6c-1,1.2-1.8,2.7-1.7,4.3c0.1,1.4,0.8,2.6,1.8,3.5c2.1,2,5.3,2.8,8.1,3.4c7,1.6,14.4,1.3,21.5,0
				c6.7-1.2,13.2-3.7,17.4-9.4c1.6-2.2,2.9-4.8,3-7.6c0.1-2.7-1.2-5.2-3.4-6.9c-2.7-2.1-6.2-2.8-9.5-2.8c-4.2-0.1-8.4,0.8-12.4,2.2
				c-1.4,0.5-0.8,2.5,0.6,2.2c7.4-1.7,15-4,20.8-9.1c4.6-4.1,9.2-12.2,4.6-17.9c-2.1-2.6-5.6-3.6-8.8-3.9c-4.2-0.4-8.5,0.1-12.5,1.1
				c-4.1,1-7.8,2.9-10.7,6c-2.6,2.7-4.4,6-6.2,9.2c-4.6,8.7-9.4,17.2-13.1,26.3C389.6,449.5,391.8,450.1,392.3,448.8L392.3,448.8z"
				/>
			<path d="M411.3,442.7c2-1.4,4.4-2.2,6.8-1.6c0.9,0.2,1.7,0.6,2.3,1.3c0.8,0.9-0.3,2-1,2.6c-1.9,1.9-4.5,3.5-7.1,4.3
				c-1.4,0.5-4.7,1.2-5.5-0.7c-0.4-1,0.3-2.2,0.9-2.9C408.7,444.4,410,443.5,411.3,442.7c1.2-0.8,0.1-2.7-1.1-2
				c-2.5,1.6-6,4.1-5.6,7.5c0.3,3.3,3.9,4,6.6,3.6c3.5-0.6,7.1-2.6,9.6-5c1.1-1,2.3-2.4,2.3-4.1c-0.1-1.4-1.4-2.6-2.6-3.2
				c-3.3-1.7-7.4-0.9-10.3,1.2C409,441.6,410.1,443.6,411.3,442.7L411.3,442.7z"/>
			<path d="M420.4,417.4c-1.5,0.5-2.9,1.4-4,2.6c-1,1.1-1.9,2.4-2.1,3.8c-0.3,1.4,0.1,2.8,1.3,3.8c1.2,1,2.9,1.3,4.5,1.3
				c0.9,0,1.9-0.1,2.8-0.4c1-0.3,1.7-0.9,2.4-1.7c0.7-0.8,1.3-1.6,1.8-2.5c0.9-1.6,1.6-3.6,0.8-5.4
				C426.5,416.3,422.7,416.9,420.4,417.4c-0.6,0.1-0.9,0.8-0.8,1.4c0.2,0.6,0.8,0.9,1.4,0.8c1.2-0.3,2.2-0.4,3.5-0.3
				c-0.2,0,0,0,0.1,0c0.1,0,0.2,0,0.3,0.1c0.1,0,0.2,0.1,0.3,0.1c0.3,0.1-0.1-0.1,0,0c0.1,0.1,0.3,0.2,0.4,0.2c0,0-0.2-0.2,0,0
				c0.1,0.1,0.1,0.1,0.2,0.2c0,0-0.1-0.2,0,0c0,0.1,0.1,0.1,0.1,0.2c0.1,0.2-0.1-0.2,0,0c0,0.1,0,0.1,0.1,0.2c0,0,0.1,0.2,0,0.2
				c0,0,0-0.3,0,0c0,0.2,0,0.3,0,0.5c0,0,0,0.1,0,0.1c0,0,0-0.3,0-0.1c0,0.1,0,0.2,0,0.2c0,0.2-0.1,0.4-0.1,0.5
				c-0.1,0.2-0.1,0.3-0.2,0.5c-0.1,0.1-0.1,0.2,0,0c0,0.1-0.1,0.2-0.1,0.3c-0.3,0.7-0.8,1.4-1.3,2.1c-0.2,0.2,0,0-0.1,0.1
				c-0.1,0.1-0.1,0.1-0.2,0.2c-0.2,0.2-0.4,0.4-0.6,0.6c-0.5,0.6-1.1,0.8-1.9,1c-1.3,0.2-2.5,0.2-3.7-0.2c-0.1,0-0.1,0-0.2-0.1
				c0.2,0.1,0,0,0,0c-0.1-0.1-0.2-0.1-0.3-0.2c-0.1,0-0.1-0.1-0.2-0.1c-0.1-0.1,0.1,0.1,0,0c-0.1-0.1-0.2-0.2-0.3-0.3
				c-0.1-0.1,0.1,0.1,0,0c0-0.1-0.1-0.1-0.1-0.2c0-0.1-0.1-0.3-0.1-0.1c0-0.1-0.1-0.2-0.1-0.4c0,0,0-0.2,0-0.1c0,0.2,0-0.1,0-0.1
				c0-0.1,0-0.2,0-0.4c0,0.3,0-0.1,0.1-0.2c0-0.1,0.1-0.3,0.1-0.4c0,0,0-0.1,0.1-0.1c0-0.1-0.1,0.1,0-0.1c0.3-0.6,0.7-1.2,1-1.6
				c0.9-1.1,2-2,3.3-2.4c0.6-0.2,1-0.8,0.8-1.4C421.6,417.6,421,417.2,420.4,417.4L420.4,417.4z"/>
			<path d="M442.7,416.4c4.6-3.4,10.5-5.8,16.3-4.9c4.6,0.8,8.1,4.1,9,8.7c0.9,4.7-0.9,9.7-3.4,13.6c-3.2,4.9-8,9-13.1,11.9
				c-4.4,2.5-10.1,4.8-15.2,2.9c-1.4-0.5-2,1.7-0.6,2.2c5,1.8,10.6,0.1,15.1-2.2c5.7-2.8,11-7.2,14.8-12.3c3.2-4.4,5.5-9.9,4.8-15.4
				c-0.6-5-3.7-9.3-8.6-11c-6.9-2.4-14.6,0.5-20.2,4.6C440.4,415.3,441.6,417.2,442.7,416.4L442.7,416.4z"/>
			<path d="M449,426.9c1.4-0.3,3-0.7,4.5-0.5c0.3,0,0.5,0.1,0.8,0.2c-0.3-0.1,0.4,0.3,0.1,0.1c0.1,0.1,0.1,0.1,0.2,0.2
				c-0.2-0.2,0,0,0,0c0,0,0.1,0.3,0.1,0.1c-0.1-0.2,0,0.2,0.1,0.2c0,0.1,0.1,0.3,0,0.1c0,0.1,0,0.2,0,0.3c0,0.1,0,0.2,0,0.3
				c0,0-0.1,0.4,0,0.1c0,0.2-0.1,0.4-0.2,0.6c0,0.1,0,0.1-0.1,0.2c0,0-0.2,0.4-0.1,0.3c-0.4,1-1,1.8-1.7,2.5c-1.5,1.5-3.9,2.8-6,2.5
				c-0.3,0-0.5-0.1-0.7-0.2c-0.1,0-0.3-0.1-0.5-0.2c-0.3-0.2-0.5-0.4-0.7-0.7c-0.2-0.3,0,0.2-0.1-0.1c0-0.1-0.1-0.2-0.1-0.3
				c0-0.1,0-0.2,0-0.4c0-0.4,0.2-1,0.3-1.3c1-2,3.4-4.3,5.6-4.3c1.5-0.1,1.5-2.3,0-2.3c-3,0.1-5.9,2.5-7.3,5c-0.7,1.2-1.1,2.6-0.8,4
				c0.3,1.3,1.3,2.3,2.5,2.8c2.9,1.2,6.3-0.1,8.6-2c1.8-1.5,3.7-4.1,3.5-6.6c-0.4-4.2-5.8-3.1-8.6-2.5
				C446.9,425,447.6,427.2,449,426.9L449,426.9z"/>
			<path d="M470,420.5c3.9-5.3,10.4-8.6,16.9-9.4c3.2-0.4,6.5-0.1,9.3,1.5c2.4,1.4,4.2,3.7,4.9,6.3c2,7.1-3.2,13.7-8.4,17.9
				c-5.4,4.4-12,7.4-18.5,9.6c-3.9,1.3-8.7,3-12.8,2c-1.4-0.3-2.8-1-3.2-2.5c-0.5-1.8,1.3-3.4,2.6-4.4c1.1-0.9-0.5-2.5-1.6-1.6
				c-1.5,1.2-3,2.8-3.3,4.7c-0.2,1.6,0.4,3.2,1.6,4.3c2.9,2.6,7.4,2.1,10.9,1.4c4.3-0.8,8.4-2.4,12.4-4c3.7-1.6,7.2-3.4,10.5-5.6
				c6.4-4.3,12.9-11.1,12.5-19.4c-0.2-3.4-1.6-6.6-4.1-8.9c-2.6-2.4-6-3.6-9.5-3.7c-8.3-0.3-17.3,3.9-22.2,10.7
				C467.2,420.6,469.2,421.7,470,420.5L470,420.5z"/>
			<path d="M483.9,425.6c-2.3-0.2-4.8,0.1-6.8,1.4c-1.5,0.9-2.6,2.3-3.2,3.9c-0.3,0.9-0.4,1.9,0,2.8c0.5,0.9,1.5,1.5,2.5,1.7
				c2.6,0.4,5.2-0.9,7-2.8c1.5-1.7,3-4.5,1.3-6.6c-0.4-0.5-1.2-0.4-1.6,0c-0.5,0.5-0.4,1.1,0,1.6c-0.2-0.2,0,0,0,0
				c0,0.1,0.1,0.3,0,0c0,0.1,0,0.2,0.1,0.2c0.1,0.2,0-0.2,0,0c0,0.2,0,0.3,0,0.5c0,0.3,0.1-0.2,0,0.1c0,0.1,0,0.2-0.1,0.3
				c-0.1,0.5-0.2,0.5-0.4,1c-0.2,0.4-0.5,0.8-0.7,1c-0.7,0.8-1.3,1.4-2.2,1.9c-0.9,0.5-1.7,0.7-2.6,0.7c-0.1,0-0.2,0-0.2,0
				c0.2,0-0.1,0-0.1,0c-0.1,0-0.2,0-0.3-0.1c0,0-0.3-0.2-0.1,0c-0.1,0-0.4-0.3-0.2-0.1c-0.1-0.1-0.1-0.1-0.2-0.2
				c0.2,0.2,0-0.1-0.1-0.1c0.1,0.2,0,0.1,0,0c0-0.1,0-0.1-0.1-0.2c0,0.3,0,0,0-0.1c0-0.3-0.1,0.2,0-0.1c0.1-0.2,0.1-0.5,0.2-0.7
				c0.1-0.2-0.1,0.2,0,0c0,0,0-0.1,0.1-0.2c0.1-0.1,0.1-0.3,0.2-0.4c0.1-0.1,0.1-0.2,0.2-0.3c0-0.1,0.1-0.1,0.1-0.2
				c0.2-0.3-0.1,0.1,0.1-0.1c0.2-0.2,0.4-0.5,0.6-0.7c0.1-0.1,0.2-0.2,0.3-0.3c0,0,0.3-0.2,0.1-0.1c0.1-0.1,0.2-0.2,0.3-0.2
				c0.8-0.6,1.4-0.8,2.4-1c1.1-0.2,2.2-0.3,3.3-0.2c0.6,0.1,1.1-0.6,1.1-1.1C485.1,426,484.5,425.6,483.9,425.6L483.9,425.6z"/>
			<path d="M503.7,423.7c0.9-2,2-3.9,3-5.9c0.9-1.9,1.6-3.8,2.7-5.6c1.1-1.8,2.5-3.3,4.4-4.3c0.8-0.4,1.6-0.8,2.5-0.9
				c0.3,0,1.1-0.2,1.3,0.1c0-0.3-0.1-0.6-0.1-0.9c-2.2,5.3-4.4,10.6-6.6,15.9c-0.5,1.1,1.1,1.8,1.9,1.1c3.4-2.9,7-5.6,10.7-8
				c1.9-1.2,3.9-2.4,5.8-3.5c0.9-0.5,1.8-1,2.7-1.4c0.5-0.3,1-0.5,1.5-0.8c0.2-0.1,0.4-0.2,0.6-0.3c0.2-0.1,0.4-0.2,0.6-0.2
				c-0.1-0.2-0.1-0.2-0.1-0.1c0.2,0.4,0,1.4,0,1.9c-0.1,0.7-0.2,1.4-0.3,2.1c-0.4,1.5-1.1,3-2.1,4.2c-1.4,1.5-3.2,2.3-5.1,2.9
				c-2.2,0.6-4.4,1.2-6.5,2.1c-3,1.2-9,3.1-7.4,7.5c1.5,4,2.4,7.9,2.3,12.2c0,0.9,0,1.9-0.5,2.6c-0.5,0.7-1.3,1-2.1,1.3
				c-1.9,0.6-4,0.4-5.9,0.4c-1,0-2.1,0.2-3.1-0.1c-0.8-0.2-0.6-0.9-0.4-1.6c0.5-1.9,1.6-3.6,2.2-5.6c0.3-1.1,0.5-2.3,0.5-3.4
				c0-0.9-0.1-2.2-0.7-2.9c-1.4-1.7-3.6,0.2-4.6,1.4c-0.7,0.9-1.2,2-1.8,3c-0.7,1.2-1.3,2.4-2,3.6c-1.3,2.4-2.6,4.8-3.9,7.2
				c0.2-0.2,0.5-0.3,0.7-0.5c-1.5,0.3-3.1,0.7-4.6,0.8c-0.9,0.1-2.5,0.2-3.2-0.6c-0.5-0.5-0.3-1.4-0.1-2c0.4-1,1.2-1.8,2.1-2.3
				c1.3-0.7,0.1-2.7-1.1-2c-1.7,1-3.1,2.7-3.4,4.8c-0.2,1.8,0.6,3.4,2.4,4c2.3,0.8,5,0.2,7.2-0.2c0.6-0.1,1.4-0.2,1.8-0.6
				c0.5-0.4,0.8-1.3,1.1-1.9c0.8-1.4,1.5-2.8,2.3-4.3c0.7-1.3,1.4-2.6,2.1-3.9c0.6-1.2,1.2-2.5,2-3.6c0.3-0.4,0.6-0.8,1-1.1
				c0.2-0.1,0.3-0.2,0.5-0.3c-0.1,0-0.2,0-0.3-0.1c0,0.2,0.1,0.3,0.1,0.5c0.2,1.3-0.1,2.7-0.5,4c-0.7,2.2-2.2,4.3-2.3,6.6
				c0,0.9,0.3,1.8,1,2.4c1.1,0.8,2.5,0.8,3.8,0.8c4,0,11.3,0.7,11.8-5c0.3-2.7,0-5.5-0.4-8.2c-0.2-1.1-0.5-2.3-0.8-3.4
				c-0.2-0.6-0.4-1.2-0.6-1.8c-0.2-0.6-0.6-1.2-0.7-1.8c-0.1-1.1,1.4-1.8,2.2-2.3c1.3-0.7,2.8-1.3,4.2-1.9c2.5-1,5.2-1.5,7.7-2.4
				c4.3-1.6,7-5.2,7.6-9.7c0.2-1.8,0.7-5.4-2.1-5.2c-1.4,0.1-2.9,1.1-4.1,1.7c-1.3,0.7-2.6,1.4-3.9,2.1c-5.5,3.2-10.7,6.9-15.5,11
				c0.6,0.4,1.3,0.7,1.9,1.1c1.4-3.4,2.8-6.8,4.2-10.2c0.7-1.7,1.4-3.3,2.1-5c0.3-0.7,0.5-1.3-0.1-1.9c-0.3-0.4-0.8-0.6-1.3-0.8
				c-2.2-0.7-4.8,0.6-6.5,1.8c-2.4,1.7-4.1,4.2-5.4,6.9c-0.7,1.5-1.3,3-2.1,4.4c-0.8,1.5-1.7,3.1-2.4,4.7
				C501.1,423.8,503.1,425,503.7,423.7L503.7,423.7z"/>
			<path d="M423.2,456.1c-5,4.3-9.2,10.4-10.9,16.8c-0.6,2.4-1,5.1,0.1,7.4c1.1,2.5,3.7,4,6.3,4.6c7.7,1.6,15.3-2.7,20.7-7.7
				c2.7-2.6,5.2-5.5,7-8.8c1.4-2.6,2.6-5.6,2.4-8.6c-0.1-1.4-0.5-2.7-1.3-3.8c-1-1.4-2.6-2.1-4.1-2.8c-1.9-0.8-3.9-1-5.9-1
				c-2-0.1-4,0-6,0.5c-1.4,0.4-0.8,2.6,0.6,2.2c1.5-0.4,3.1-0.5,4.7-0.4c1.5,0,3.1,0,4.5,0.5c2.3,0.6,4.7,1.8,5.1,4.3
				c0.5,2.4-0.5,5-1.5,7.1c-1.4,2.9-3.4,5.6-5.7,7.9c-4.7,4.8-11.1,9.1-18.2,8.7c-2.2-0.1-4.9-0.9-6.1-2.9c-1.1-1.7-0.9-3.9-0.5-5.8
				c1.5-6.3,5.6-12.3,10.5-16.4C426,456.7,424.4,455.1,423.2,456.1L423.2,456.1z"/>
			<path d="M424,469.1c-0.8,0.7-1.4,1.8-1.1,2.9c0.3,1,1.3,1.7,2.2,2.1c2.2,0.8,4.5,0.2,6.3-1.2c0.8-0.6,1.4-1.4,1.9-2.2
				c0.4-0.8,0.8-1.7,0.7-2.6c-0.1-0.9-0.5-1.8-1.4-2.2c-0.9-0.4-1.9-0.4-2.9-0.3c-2.3,0.4-4.6,1.9-6,3.8c-0.4,0.5-0.1,1.3,0.4,1.6
				c0.6,0.3,1.2,0.1,1.6-0.4c-0.2,0.2,0-0.1,0.1-0.1c0.1-0.1,0.1-0.1,0.2-0.2c0.1-0.1,0.3-0.3,0.4-0.4c0.2-0.1,0.3-0.3,0.5-0.4
				c-0.2,0.1,0.1-0.1,0.1-0.1c0.1-0.1,0.2-0.2,0.3-0.2c0.3-0.2,0.7-0.4,1.1-0.6c0.1,0,0.2-0.1,0.3-0.1c0,0,0.3-0.1,0.1,0
				c0.2-0.1,0.4-0.2,0.6-0.2c0.3-0.1,0.7-0.2,1-0.3c0.3-0.1-0.2,0,0,0c0.1,0,0.2,0,0.2,0c0.1,0,0.4-0.1,0.5,0c-0.2-0.1-0.1,0,0,0
				c0.1,0,0.1,0,0.2,0.1c0,0,0.2,0,0.2,0.1c-0.2-0.2-0.1-0.1,0,0c0.2,0.1,0,0,0,0c0,0,0.1,0.1,0.1,0.1c0.2,0.1-0.1-0.2,0,0
				c0,0,0,0.1,0.1,0.1c0.1,0.1,0,0.1,0-0.1c0,0,0.1,0.3,0.1,0.3c0,0,0-0.3,0,0c0,0.1,0,0.1,0,0.2c0,0.1,0.1,0.2,0,0
				c0,0.1,0,0.2,0,0.2c0,0.2-0.1,0.3-0.2,0.5c-0.1,0.3,0.1-0.2,0,0c0,0.1-0.1,0.2-0.1,0.2c-0.1,0.2-0.2,0.3-0.3,0.5
				c0,0.1-0.1,0.2-0.2,0.2c0,0-0.2,0.3,0,0.1c-0.1,0.2-0.3,0.3-0.4,0.5c-0.1,0.1-0.2,0.2-0.3,0.3c-0.1,0.1-0.1,0.1-0.2,0.2
				c0,0-0.3,0.2-0.1,0.1c-0.3,0.3-0.7,0.5-1.1,0.7c-0.3,0.1,0.2-0.1-0.1,0c-0.1,0-0.2,0.1-0.3,0.1c-0.2,0.1-0.4,0.1-0.6,0.1
				c0.2,0-0.1,0-0.1,0c-0.1,0-0.2,0-0.3,0c-0.2,0-0.5,0-0.7,0c0.3,0-0.1,0-0.1,0c-0.1,0-0.2,0-0.3-0.1c-0.1,0-0.2-0.1-0.3-0.1
				c-0.1,0-0.4-0.2-0.2,0c-0.2-0.1-0.3-0.2-0.5-0.3c-0.2-0.1,0.1,0.2,0,0c-0.1-0.1-0.1-0.1-0.2-0.2c0.2,0.2,0.1,0.1,0,0
				c-0.2-0.3,0.1,0.1,0,0c0-0.1-0.1-0.3,0,0c0,0,0-0.1,0-0.1c0,0.2,0,0.2,0,0.1c0-0.1,0.1-0.3,0,0c0.1-0.1,0.1-0.2,0.2-0.3
				c-0.1,0.2,0,0,0.1-0.1c0.1-0.1,0.2-0.2,0.3-0.3c0.5-0.4,0.4-1.2,0-1.6C425.1,468.6,424.5,468.7,424,469.1L424,469.1z"/>
			<path d="M439.1,482.7c3.4-6.6,6.8-13.1,10.3-19.7c1.3-2.4,2.5-5.6,5.3-6.6c1.6-0.6,3.5-0.5,5.2-0.7c1.8-0.2,3.7-0.3,5.5-0.5
				c1.8-0.2,3.6-0.3,5.4-0.5c1.1-0.1,3.2-0.4,4,0.6c0.8,1-0.1,2.6-0.7,3.4c-0.9,1.2-2.2,2.2-3.5,2.9c-3,1.6-5.9,0.6-9,0.5
				c-2.4-0.1-4.9,0.8-6.9,2.2c-1.8,1.3-4,4.4-1.4,6.1c3,1.9,7.2-0.8,9.7-2.2c-0.5-0.1-1-0.3-1.6-0.4c0.4,0.7-0.1,1.6-0.4,2.2
				c-0.6,1.1-1.5,2-2.5,2.6c-1,0.7-2.3,1.2-3.5,1.3c-1.2,0.1-1.8-0.2-2.4-1.2c-0.2-0.4-0.8-0.7-1.3-0.5c-1.8,0.8-3.2,2.4-3.4,4.5
				c-0.1,1,0.2,1.9-0.1,2.9c-0.3,0.9-0.8,1.7-1.4,2.4c-1.2,1.4-3.1,3.1-5.1,3.2c-1.7,0-2.8-1.6-2.1-3.1c0.6-1.3-1.4-2.5-2-1.1
				c-0.9,2.1-0.5,4.4,1.4,5.7c2.1,1.4,4.6,0.6,6.6-0.6c2-1.3,3.8-3.2,4.6-5.5c0.4-1.1,0.4-2.1,0.4-3.3c0-1.2,0.5-2.4,1.7-2.9
				c-0.4-0.2-0.9-0.3-1.3-0.5c0.9,1.5,2.1,2.3,3.9,2.3c1.8,0,3.7-0.6,5.1-1.6c2.3-1.5,5.3-5,3.7-7.9c-0.3-0.5-1-0.7-1.6-0.4
				c-1.5,0.8-3.1,1.7-4.7,2.2c-0.6,0.2-2.8,0.7-2.8-0.3c0-0.9,1.2-1.8,1.9-2.2c1.1-0.7,2.2-1.2,3.5-1.5c2.8-0.6,5.6,0.6,8.4,0.2
				c3.1-0.4,5.9-2.3,7.8-4.7c1.5-2,2.4-5.5-0.3-7.1c-1.3-0.8-3-0.8-4.4-0.7c-1.8,0.1-3.6,0.3-5.4,0.4c-1.8,0.2-3.7,0.3-5.5,0.5
				c-1.7,0.1-3.5,0.2-5.2,0.5c-3,0.6-5,2.9-6.4,5.4c-4,7.3-7.7,14.8-11.6,22.2C436.5,482.8,438.4,484,439.1,482.7L439.1,482.7z"/>
			<path d="M408.9,490.1c0.3-2.7-0.7-5.2-3.3-6.4c-2.9-1.3-6.4-0.8-9.4-0.4c-8.2,1.2-15.8,5.7-22.1,11c-3.3,2.8-6.3,5.9-8.8,9.3
				c-2.2,2.9-4.1,6.3-4.9,9.9c-0.7,2.9-0.5,6,1.3,8.5c1.9,2.5,5,3.7,8.1,3.8c4.3,0.2,8.7-1.5,12.1-3.9c3-2.1,6.5-5.3,6.7-9.2
				c-0.7,0.2-1.4,0.4-2.1,0.6c2.2,2.9,6.6,1.8,9.2,0.3c2.6-1.5,5.5-4.4,5.6-7.6c0.1-3.2-2.9-4.7-5.6-5.3c-3.4-0.7-7.3-0.8-10.7,0.4
				c-1.9,0.7-3.6,1.8-5,3.2c-1.2,1.2-2.3,2.7-2.2,4.5c0,0.5,0.3,0.9,0.8,1.1c0.8,0.2,1.6,0.5,2.3,0.7c-0.3-0.4-0.6-0.7-0.8-1.1
				c0.2,1.4-1.2,2.6-2.2,3.4c-1.3,1-2.9,1.9-4.6,2.2c-1.5,0.3-2.8-0.3-3-1.9c-0.2-2.1,0.9-4.3,2.1-5.9c2.9-4.2,7.5-7.6,12.2-9.4
				c2.4-0.9,5.2-1.5,7.8-1.1c1,0.1,2,0.4,2.9,1c1,0.6,1.9,1.3,3.1,1.4c2.2,0.2,4.4-1.1,6-2.5c1.8-1.6,3.4-3.6,4.3-5.8
				c0.6-1.3-1.4-2.5-2-1.1c-0.9,2.1-2.4,4.1-4.2,5.6c-0.8,0.7-1.8,1.4-2.9,1.6c-1.2,0.3-1.9-0.2-2.9-0.8c-4.8-3.1-11.4-1.2-16,1.2
				c-4.7,2.5-9.6,6.5-11.8,11.5c-0.9,2-1.5,4.5-0.4,6.5c0.9,1.7,2.9,2.4,4.8,2.1c2.3-0.3,4.4-1.5,6.1-2.9c1.4-1.2,3.1-3,2.8-5
				c-0.1-0.5-0.3-0.9-0.8-1.1c-0.8-0.2-1.6-0.5-2.3-0.7c0.3,0.4,0.6,0.7,0.8,1.1c-0.1-1,0.7-2,1.4-2.7c0.9-1,2-1.7,3.2-2.3
				c2.7-1.3,5.7-1.4,8.6-1.1c1.7,0.2,4.7,0.4,5.6,2.2c1,2-1.3,4.4-2.6,5.6c-1.2,1.1-2.7,1.9-4.2,2.3c-1,0.2-2.8,0.5-3.6-0.5
				c-0.7-0.9-2.1-0.6-2.1,0.6c-0.1,2.9-3.1,5.4-5.2,7c-2.7,2-6,3.5-9.4,3.8c-2.6,0.2-5.5-0.2-7.5-2.1c-1.8-1.7-2.2-4.2-1.8-6.6
				c0.6-3.1,2.1-6,3.8-8.6c2.1-3.1,4.7-6,7.5-8.5c5.5-5,12.2-9.4,19.4-11.4c3.1-0.9,6.9-1.5,10.1-0.9c1,0.2,2.1,0.5,2.7,1.4
				c0.7,0.9,0.7,2.2,0.6,3.4C406.5,491.6,408.8,491.6,408.9,490.1L408.9,490.1z"/>
			<path d="M408.6,490.9c3.8-3.9,9.9-6.8,15.5-5.4c5.4,1.3,7.5,7,6.6,12.1c-1.1,6.3-5.4,11.7-10.2,15.7c-2.5,2-5.3,3.8-8.3,4.9
				c-3.2,1.3-6.6,2-10,2.3c-3,0.3-6.3,0.2-9-1.3c-0.6-0.3-1.2-0.7-1.3-1.5c-0.1-1.3,1.1-2.7,1.8-3.6c0.9-1.2-1.1-2.3-2-1.1
				c-1.5,1.9-3.1,4.8-1.2,7c1.5,1.8,4.6,2.5,6.8,2.8c1.9,0.3,3.9,0.1,5.8-0.1c1.9-0.2,3.8-0.6,5.7-1c3.6-0.9,7.1-2.4,10.2-4.5
				c6-4,11.4-9.8,13.4-16.8c1.7-5.8,0.6-13.2-5.2-16.2c-6.7-3.4-15.3,0.1-20.1,5.1C406,490.4,407.6,492,408.6,490.9L408.6,490.9z"/>
			<path d="M410.7,500.7c-1.4,0.8-2.8,1.8-3.9,2.9c-1,1-1.9,2.2-2.3,3.6c-0.3,1.2-0.1,2.5,0.9,3.3c1,0.8,2.3,1,3.5,1
				c2.7-0.2,5.4-1.6,7.1-3.7c1.1-1.4,2.1-3.4,1.6-5.3c-0.8-2.9-4.4-2.6-6.7-2c-1.4,0.4-0.8,2.5,0.6,2.2c0.3-0.1,0.7-0.2,1-0.2
				c0.3-0.1,0.3-0.1,0.7-0.1c0.2,0,0.5,0,0.7,0c0.1,0,0.2,0,0.3,0c0.2,0,0,0,0,0c0.1,0,0.1,0,0.2,0c0.2,0,0.3,0.1,0.5,0.1
				c0.1,0-0.2-0.1-0.1,0c0,0,0.1,0,0.1,0.1c0.1,0,0.1,0.1,0.2,0.1c0.2,0.1-0.1-0.1,0,0c0,0,0.1,0.1,0.2,0.2c0.1,0.1-0.1-0.2,0,0
				c0,0.1,0.1,0.2,0.1,0.2c0.1,0.1-0.1-0.3,0,0c0,0.1,0,0.1,0.1,0.2c0,0.1,0,0.1,0,0.2c0,0.1,0-0.3,0-0.1c0,0,0,0.1,0,0.1
				c0,0.1,0,0.3,0,0.4c0,0.3,0-0.1,0,0c0,0.1,0,0.2-0.1,0.3c0,0.2-0.1,0.3-0.1,0.5c0,0.1-0.1,0.2-0.1,0.2c-0.1,0.2,0.1-0.2,0,0.1
				c-0.2,0.4-0.4,0.7-0.6,1c-0.1,0.1-0.1,0.1-0.2,0.2c0,0-0.1,0.1-0.1,0.1c0,0,0.1-0.2,0.1-0.1c-0.1,0.2-0.3,0.3-0.4,0.5
				c-0.3,0.4-0.7,0.7-1.1,0.9c-1,0.7-2,1.2-3.2,1.4c-0.1,0-0.3,0.1-0.4,0.1c-0.1,0-0.4,0.1-0.2,0c-0.3,0-0.5,0-0.8,0
				c-0.1,0-0.3,0-0.4,0c-0.2,0,0.2,0-0.1,0c-0.2,0-0.4-0.1-0.6-0.2c-0.2-0.1,0,0,0,0c0,0-0.1,0-0.1-0.1c-0.1,0-0.2-0.1-0.2-0.1
				c-0.1-0.1,0.1,0.1,0.1,0c0,0-0.1-0.1-0.1-0.1c0,0-0.1-0.1-0.1-0.1c-0.1-0.1,0,0.1,0,0c0-0.1-0.1-0.2-0.1-0.2c0.1,0.2,0,0,0-0.1
				c-0.1-0.2,0,0.2,0-0.1c0-0.1,0-0.2,0-0.3c0-0.2,0,0.2,0,0c0-0.1,0-0.1,0.1-0.2c0-0.1,0.1-0.2,0.1-0.4c0,0,0.1-0.2,0,0
				c0-0.1,0.1-0.2,0.1-0.2c0.1-0.1,0.1-0.3,0.2-0.4c0.4-0.6,0.6-1,1.1-1.5c1.1-1.1,2.2-2,3.6-2.7c0.5-0.3,0.7-1,0.4-1.6
				C411.9,500.6,411.3,500.4,410.7,500.7L410.7,500.7z"/>
			<path d="M418.7,519.9c3.7-4.7,7.4-9.5,11-14.2c1.8-2.3,3.5-4.5,5.3-6.8c1.6-2,3.1-4.1,4.9-6c1.7-1.7,3.6-3.4,5.9-4.2
				c1.7-0.6,4.2-0.8,5.4,0.9c1.4,1.9,0.7,5,0.3,7.1c-0.5,2.6-1.1,5.1-1.9,7.6c-1.9,6.1-4.5,11.8-7.5,17.4c0.3-0.2,0.7-0.4,1-0.6
				c-1.6,0.1-6.6,0.6-6.3-2.1c0.1-1.8,1.3-3.7,2.1-5.3c0.9-1.9,1.7-3.7,2.6-5.6c0.7-1.5,1.6-3.3,1.2-5c-0.4-1.4-1.8-2-3.1-1.9
				c-1.7,0.1-3.1,1.3-4.1,2.7c-1.2,1.6-2.2,3.2-3.2,4.9c-2.5,3.8-5,7.7-7.6,11.5c0.2-0.2,0.5-0.3,0.7-0.5c-2.2,0.4-4.9,0.3-6.5-1.6
				c-0.9-1.1-2.5,0.5-1.6,1.6c1.3,1.5,3.2,2.2,5.1,2.4c1.1,0.1,2.2,0.1,3.3-0.1c1.3-0.3,2-2.1,2.6-3.1c1.6-2.4,3.1-4.8,4.7-7.1
				c1.4-2.2,2.8-4.5,4.4-6.6c0.6-0.8,1.6-1.9,2.7-1.7c1.1,0.2,0.1,2.1-0.1,2.7c-1.1,2.6-2.4,5.2-3.5,7.8c-0.9,2-2.4,4.6-1.4,6.9
				c0.7,1.6,2.5,2.2,4.1,2.5c0.9,0.1,1.9,0.2,2.8,0.2c0.5,0,1.2,0.1,1.7-0.1c0.7-0.2,0.9-1,1.2-1.5c1.3-2.5,2.6-5,3.7-7.6
				c2.1-4.7,3.8-9.6,4.9-14.6c0.9-3.8,2.5-9.8-1.4-12.5c-3.8-2.7-8.8-0.1-11.9,2.6c-2,1.7-3.6,3.7-5.2,5.8c-2,2.5-3.9,5-5.9,7.6
				c-3.9,5.1-7.9,10.2-11.8,15.3C416.2,519.5,417.8,521.1,418.7,519.9L418.7,519.9z"/>
			<path d="M438.8,499.3c1-1,2.1-2.1,3.1-3.2c0.4-0.4,0.8-0.9,1.2-1.3c0.1,0,0.1-0.1,0.2-0.1c0,0,0.2-0.2,0.1-0.1
				c-0.1,0.1,0.2-0.1,0.2-0.1c0.1,0,0.1-0.1,0.2-0.1c0.1-0.1,0.2-0.1,0.4-0.2c0.1,0,0.1-0.1,0.2-0.1c0.2-0.1-0.1,0,0.1,0
				c0.1,0,0.2-0.1,0.4-0.1c0.1,0,0.1,0,0.2,0c0,0-0.2,0-0.1,0c0.1,0,0.4,0.1,0.1,0c0.2,0,0,0-0.1,0c0.2,0.1-0.2-0.2,0,0
				c0.1,0.1-0.1-0.3,0,0c-0.1-0.1-0.1-0.2,0-0.1c-0.1-0.4,0-0.2,0-0.1c0,0.2,0-0.1,0-0.1c0,0,0,0.2,0,0.2c0,0.1,0,0.2-0.1,0.2
				c0,0,0,0.1,0,0.1c-0.1,0.2,0-0.1,0-0.1c0,0.2-0.2,0.4-0.3,0.6c-0.2,0.4-0.4,0.8-0.6,1.2c-0.5,1-1,2.1-0.4,3.2
				c0.2-0.6,0.5-1.1,0.7-1.7c-1,0.4-2.1,0.7-3.1,0.7c-0.2,0-0.5,0-0.7,0c-0.1,0-0.1,0-0.2,0c0.1,0,0.1,0,0,0c-0.1,0-0.2,0-0.3-0.1
				c-0.2,0-0.4-0.1-0.6-0.2c-0.1,0-0.1,0,0,0c0,0-0.1,0-0.1-0.1c-0.1-0.1-0.2-0.1-0.3-0.2c-0.5-0.3-1.2-0.1-1.6,0.4
				c-0.3,0.5-0.1,1.2,0.4,1.6c2.1,1.3,4.9,0.9,7.1,0c0.7-0.3,1-1,0.7-1.7c-0.1-0.2,0.1,0.2,0,0.1c-0.1-0.2,0.1,0,0,0.1
				c0,0,0-0.2,0-0.2c0-0.2,0,0.1,0,0.1c0,0,0-0.1,0-0.1c0-0.1,0.1-0.2,0.1-0.3c0-0.1,0.1-0.3,0-0.1c0-0.1,0.1-0.2,0.1-0.3
				c0.1-0.2,0.2-0.4,0.3-0.7c0.5-0.9,1.1-1.8,1.1-2.8c0-0.6-0.2-1.1-0.6-1.5c-0.6-0.5-1.3-0.6-2.1-0.5c-1.4,0.3-2.5,1.2-3.5,2.2
				c-1.2,1.3-2.4,2.5-3.7,3.8c-0.4,0.4-0.4,1.2,0,1.6C437.7,499.7,438.4,499.7,438.8,499.3L438.8,499.3z"/>
			<path d="M453.6,490.8c4.6-1.8,9.3-3.4,14.2-4.5c4.2-1,8.9-2.1,13.3-1.7c1.4,0.1,3.3,0.5,3.9,1.9c0.6,1.3,0,2.9-0.7,4.1
				c-0.3,0.4-0.6,0.8-0.9,1.1c-0.4,0.4-0.7,0.5-1.2,0.7c-1.1,0.3-2.3,0.4-3.5,0.4c-0.9,0-1.8-0.1-2.6-0.4c-0.9-0.3-1.7-0.8-2.6-0.9
				c-4-0.7-6.6,3.5-8.2,6.6c-2.3,4.5-4.5,9-6.8,13.5c-1,2-1.9,4.1-3.1,6c-0.6,0.9-2.8,3.6-3.8,1.9c-0.8-1.4,0-3.5,0.6-4.8
				c0.9-2,2.2-3.9,3.4-5.7c1.5-2.1,3-4.2,4.1-6.5c0.9-1.8,1.6-3.7,1.4-5.7c-0.2-1.7-1.1-3.3-2.7-4c-1.9-0.9-4-0.2-5.7,0.8
				c-1.2,0.8-0.1,2.7,1.1,2c1.3-0.8,3.2-1.5,4.3-0.2c1.1,1.3,0.7,3.1,0.2,4.6c-1.6,4.4-5,7.9-7.3,11.9c-1,1.8-1.9,3.8-2.1,5.8
				c-0.1,1.7,0.4,3.7,2.1,4.4c1.9,0.9,3.9-0.5,5.1-1.8c1.5-1.6,2.3-3.7,3.3-5.6c2.3-4.7,4.7-9.3,7-14c0.9-1.9,1.8-3.9,3.3-5.4
				c0.6-0.6,1.5-1.3,2.4-1.4c1-0.1,1.8,0.4,2.7,0.7c1.9,0.8,4.1,0.8,6.1,0.5c1-0.2,2.4-0.3,3.2-0.9c0.8-0.6,1.6-1.6,2.1-2.5
				c1.7-2.9,1.5-6.9-1.9-8.4c-2.1-1-4.6-0.9-6.9-0.8c-2.7,0.2-5.4,0.7-8,1.2c-5.7,1.2-11.2,2.9-16.5,5
				C451.7,489.1,452.3,491.3,453.6,490.8L453.6,490.8z"/>
		</g>
		<g>
			<g>
				<path d="M194.8,91.7c12.3-10.8,27.3-18.3,43.4-21.5c-0.3-1-0.5-1.9-0.8-2.9c-0.9,0.3-1.8,0.5-2.8,0.8c0.3,1,0.5,1.9,0.8,2.9
					c4.4-1.4,9-1.7,13.5-0.7c1.9,0.4,2.7-2.5,0.8-2.9c-5-1.1-10.2-0.9-15.1,0.7c-1.8,0.6-1.1,3.4,0.8,2.9c0.9-0.3,1.8-0.5,2.8-0.8
					c1.9-0.5,1.1-3.3-0.8-2.9c-16.6,3.3-32.1,11.1-44.7,22.3C191.2,90.8,193.3,93,194.8,91.7L194.8,91.7z"/>
			</g>
		</g>
		<g>
			<g>
				<path d="M175.5,72.8c3.6-6.6,9.6-11.5,15.9-15.5c6.6-4.3,13.8-7.6,21.4-10c4.3-1.3,8.6-2.3,13.1-3c1.9-0.3,1.1-3.2-0.8-2.9
					c-15.8,2.4-31.7,9.1-43.8,19.7c-3.3,2.9-6.2,6.2-8.3,10.1C172,73,174.5,74.5,175.5,72.8L175.5,72.8z"/>
			</g>
		</g>
		<g>
			<g>
				<path d="M153.2,57.5c0-2.3,1-4.3,2-6.2c1-2,2.1-3.9,3.2-5.8c2.1-3.7,4.4-7.4,7-10.8c5-6.3,11.6-11.5,19.6-13
					c1.9-0.3,1.1-3.2-0.8-2.9c-8.7,1.6-15.9,7.3-21.2,14.1c-2.9,3.7-5.4,7.7-7.7,11.8c-2.2,3.9-5.3,8.2-5.2,12.8
					C150.2,59.4,153.2,59.4,153.2,57.5L153.2,57.5z"/>
			</g>
		</g>
		<g>
			<g>
				<path d="M122.5,46.1c1.5-6.7,3.1-13.5,6-19.9c2.8-6.2,6.8-11.6,12-16c1.5-1.3-0.7-3.4-2.1-2.1c-5.3,4.6-9.6,10.3-12.5,16.7
					c-3,6.6-4.7,13.6-6.3,20.6C119.2,47.2,122.1,48,122.5,46.1L122.5,46.1z"/>
			</g>
		</g>
		<g>
			<g>
				<path d="M96.8,38.9c0.5-4.8,1.5-9.6,3-14.2c0.7-2.3,1.6-4.5,2.6-6.7c0.5-1.1,1-2.2,1.6-3.2c0.3-0.5,0.6-1.1,0.8-1.6
					c0.1-0.3,0.3-0.5,0.4-0.8c0.1-0.1,0.1-0.3,0.2-0.4c0.3-0.4,0.1-0.4-0.6,0c1.8,0.7,2.6-2.2,0.8-2.9c-1.2-0.5-2.2,0.4-2.8,1.4
					c-0.8,1.2-1.4,2.5-2,3.7c-1.3,2.6-2.4,5.2-3.4,8c-1.9,5.4-3.1,11-3.7,16.7C93.6,40.8,96.6,40.8,96.8,38.9L96.8,38.9z"/>
			</g>
		</g>
		<g>
			<g>
				<path d="M73,35.2c-0.5-6.7,0.5-13.4,2.8-19.7c0.7-1.8-2.2-2.6-2.9-0.8c-2.4,6.5-3.4,13.6-3,20.5C70.1,37.1,73.1,37.1,73,35.2
					L73,35.2z"/>
			</g>
		</g>
		<g>
			<g>
				<path d="M335.9,80.8c2.5-2.8,6.1-3.8,9.6-4.4c4-0.7,8.2-0.9,12.2-0.9c8.4,0.1,16.7,1.5,24.7,4.2c4.5,1.5,8.8,3.5,13,5.8
					c1.7,0.9,3.2-1.6,1.5-2.6c-15.5-8.6-33.7-12.1-51.2-9.5c-4.3,0.6-8.8,1.9-11.9,5.3C332.4,80.2,334.6,82.3,335.9,80.8L335.9,80.8
					z"/>
			</g>
		</g>
		<g>
			<g>
				<path d="M331.4,62.5c2.5-2.7,6.8-3.6,10.2-4.5c3.9-1,7.9-1.8,11.9-2.2c7.9-0.8,16-0.4,23.7,1.6c4.2,1.1,8.2,2.7,11.9,5.1
					c1.6,1.1,3.1-1.5,1.5-2.6c-6.9-4.6-15.1-6.5-23.2-7.2c-8.6-0.8-17.4,0-25.8,2.2c-4.1,1.1-9.2,2.2-12.2,5.4
					C327.9,61.8,330,63.9,331.4,62.5L331.4,62.5z"/>
			</g>
		</g>
		<g>
			<g>
				<path d="M320.1,44.5c7.3-5.1,16-7.2,24.6-9c4.8-1,9.7-1.7,14.6-1.4c4.8,0.3,9.4,1.8,13.9,3.2c1.8,0.6,2.6-2.3,0.8-2.9
					c-4.8-1.5-9.7-3-14.7-3.3c-5-0.3-10,0.4-14.9,1.4c-9,1.8-18.2,4.1-25.8,9.4C317.1,43,318.6,45.6,320.1,44.5L320.1,44.5z"/>
			</g>
		</g>
		<g>
			<g>
				<path d="M307.3,32.1c3.3-12.1,16.1-18.7,27.4-21.7c1.9-0.5,1.1-3.4-0.8-2.9c-12.4,3.3-25.9,10.6-29.5,23.8
					C303.9,33.2,306.8,34,307.3,32.1L307.3,32.1z"/>
			</g>
		</g>
		<g>
			<g>
				<path d="M285.3,22.7c-0.4-7.1,1.5-14.1,5.4-20c1.1-1.6-1.5-3.1-2.6-1.5c-4.1,6.4-6.2,14-5.8,21.5
					C282.4,24.6,285.4,24.6,285.3,22.7L285.3,22.7z"/>
			</g>
		</g>
		<g>
			<g>
				<path d="M263.4,22.3c-1.4-5.8-1.1-11.7,0.7-17.4c0.6-1.8-2.3-2.6-2.9-0.8c-2,6.1-2.2,12.7-0.7,19C261,25,263.8,24.2,263.4,22.3
					L263.4,22.3z"/>
			</g>
		</g>
		<path d="M538.4,581.7c-0.4,4-0.6,8-0.4,12.1v0c0.1,2.6,0.3,5.2,0.7,7.7c1.2,8.9,3.9,17.5,8,25.5h-5.1c-4-8.5-6.6-17.6-7.7-26.9
			c-1.2-10.6-0.4-21.4,2.4-31.7c1.5-5.4,3.8-10.5,5.6-15.8c0.9-2.6,1.7-5.3,1.8-8c0.1-2.4-0.1-4.5-1-6.6c-0.9-1.9-2.2-3.8-3.7-5
			c-1.7-1.3-3.3-1.9-5.2-1.8c-1.8,0.1-3.7,1.4-5.1,2.9c-1.6,1.7-2.8,3.8-4.1,5.8c-4.6,7.6-9.8,16.6-9.2,25.8c0.3,1.7,0.7,3.4,1,5
			c0.2,1.2-0.3,2.4-1.6,2.8c-1.2,0.3-2.4-0.4-2.8-1.6c-0.5-1.4-0.8-2.9-1-4.4c-0.1-0.5-0.1-0.9-0.1-1.4c-2.7-13.7-5.9-27.3-9.7-40.8
			c-1.7-6.1-3.4-12.3-5.6-18.2c-1.7-4.7-4.1-9.5-7.5-13.1c-0.7-0.7-1.4-1.4-2.2-2c-0.6-0.5-1.2-0.9-1.9-1.3c-0.6-0.4-1.2-0.7-1.9-1
			c-1.2-0.5-2.3-0.7-3.5-0.3c0,0,0,0-0.1,0c0,0,0,0-0.1,0c-0.1,0.1-0.2,0.1-0.3,0.2c-0.1,0.1-0.2,0.1-0.3,0.2
			c-0.2,0.1-0.3,0.3-0.5,0.5c0,0-0.1,0.1-0.1,0.1c0,0.1-0.1,0.1-0.1,0.2c-0.5,0.8-0.7,1.2-0.9,1.9c-0.1,0.2-0.1,0.4-0.2,0.7
			c-0.1,0.3-0.1,0.6-0.2,0.9c0,0.1-0.1,0.2-0.1,0.4c0,0,0,0,0,0.1c0,0.1,0,0.1,0,0.2c0,0.5-0.1,1-0.1,1.5c-0.1,2.8,0.4,5.4,0.8,8.1
			c2,14.2,4.3,28.3,6.8,42.4c2.6,14.1,5.5,28.2,8.6,42.3c0.2,1.1-0.3,2.2-1.3,2.7c-1.1,0.5-2.1,0-2.8-0.9c-1-1.4-2-2.7-3.1-4.1
			c-8.2-10.7-16.3-21.5-24.5-32.2c-3.7-4.8-7.2-9.9-11.2-14.4c-1.7-1.9-3.6-3.7-5.8-5.1c-1-0.7-2.1-1.3-3.2-1.7
			c-0.5-0.2-1.1-0.4-1.6-0.5c-0.2,0-0.5-0.1-0.7-0.1c-0.1,0-0.2,0-0.2,0c-0.1,0-0.2,0-0.2,0c-0.5,0-1.1-0.1-1.6-0.1
			c-0.4,0-1.1,0-1.4,0.1c-0.7,0.1-2,0.4-2.9,0.7c-0.5,0.2-0.5,0.2-1.1,0.5c-0.4,0.2-0.8,0.5-1.2,0.7c0,0-0.2,0.2-0.3,0.2
			c0,0-0.1,0.1-0.1,0.1c-0.2,0.2-0.3,0.3-0.5,0.4c-0.2,0.2-0.4,0.4-0.5,0.6l-0.2,0.2c0,0,0,0,0,0c-0.7,1-0.8,1.3-1.1,2.3
			c-0.2,1-0.2,2.2,0,3.3c0.7,2.8,2.3,5.2,3.9,7.6c6.8,9.9,13.4,19.9,19.1,30.4c5.6,10.6,10.3,21.8,12.8,33.6c0.2,0.9-0.1,2.1-1,2.6
			c-6.2,3-12-3.2-16.2-7.1c-4.6-4.2-9-8.6-13.7-12.8c-7.8-7-16.7-13.4-27.2-15.7c-4.7-1-10-1.3-14.6,0.4c-1.8,0.6-3.3,1.9-3.7,3.6
			c-0.2,0.8-0.1,1.7,0.2,2.6c0.3,1,0.7,1.9,1.3,2.8c1.2,2,2.8,3.7,4.4,5.3c2.2,2.1,4.5,4.1,6.8,6.2c4.5,4.2,9.1,8.3,13.6,12.4
			c4.9,4.5,9.8,8.9,14.6,13.4h-6.7c-2.4-2.2-4.9-4.5-7.3-6.7c-1.7-1.6-3.4-3.1-5.1-4.7c-1-0.9-2-1.8-3-2.7
			c-4.6-4.2-9.3-8.5-13.9-12.7c-3.8-3.5-8-7.4-9.2-12.6c-0.5-2.5-0.3-5.1,1.2-7.2c1.6-2.3,4-3.7,6.7-4.4c5.2-1.4,10.9-1.2,16.2,0
			c11.1,2.5,20.6,9.2,28.9,16.7c4.2,3.8,8.3,7.8,12.4,11.6c2.1,2,4.2,4,6.5,5.7c1,0.8,2.6,1.9,4,2.1c-0.2-0.7-0.3-1.4-0.5-2.1
			c-3.1-12-8.4-23.2-14.5-33.8c-3.1-5.4-6.5-10.7-9.9-15.9c-1.7-2.6-3.5-5.2-5.2-7.8c-1.8-2.6-3.6-5.2-4.6-8.2
			c-0.9-2.7-1.1-5.7,0-8.3c0.9-2.3,2.5-4.1,4.6-5.5c3.9-2.6,9.2-3.3,13.6-1.8c5.5,1.8,9.8,5.9,13.4,10.3c4.2,5.2,8.2,10.6,12.2,15.9
			c6.4,8.4,12.8,16.8,19.1,25.2c-2.8-13-5.4-26.1-7.7-39.3c-1.3-7.3-2.5-14.7-3.6-22c-0.6-3.7-1.1-7.4-1.6-11
			c-0.5-3.3-1.1-6.6-1.2-10c-0.1-1.3,0-2.6,0.2-3.9c0.1-0.8,0.3-1.7,0.5-2.5c0.8-2.8,2.4-5.2,5.4-6.2c2.4-0.8,5-0.2,7.3,0.8
			c0.7,0.4,1.4,0.8,2.1,1.2c0.2,0.1,0.4,0.3,0.6,0.4c2.1,1.4,4,3.1,5.5,5.1c3.6,4.5,6,9.9,7.9,15.3c2.2,6.4,4,13,5.8,19.6
			c1.2,4.6,2.4,9.1,3.5,13.7c0.6,2.7,1.3,5.3,1.9,8c0.3,1.3,0.6,2.7,0.9,4c0.4-1.1,0.8-2.1,1.2-3.2c2.3-5.4,5.2-10.6,8.4-15.4
			c2.9-4.3,7.1-8.5,12.7-8c5.1,0.5,9.4,4.4,11.5,8.9c2.5,5.4,1.8,11.3,0.1,16.9c-1.8,5.6-4.3,10.8-5.9,16.4
			C539.7,573.2,538.9,577.4,538.4,581.7z"/>
		<path class="st4" d="M543.8,544.6c-0.2,2.8-0.9,5.5-1.8,8.1c-1.8,5.3-4.2,10.3-5.6,15.8c-2.8,10.3-3.6,21.1-2.4,31.7
			c1.1,9.3,3.6,18.5,7.6,26.9H426.9c-4.9-4.5-9.8-8.9-14.6-13.4c-4.5-4.1-9.1-8.3-13.6-12.4c-2.3-2.1-4.6-4.1-6.8-6.2
			c-1.7-1.6-3.2-3.3-4.4-5.3c-0.6-0.9-1-1.8-1.3-2.8c-0.3-1-0.3-1.8-0.2-2.6c0.4-1.8,1.9-3,3.7-3.6c4.6-1.6,9.9-1.4,14.6-0.4
			c10.5,2.3,19.3,8.6,27.2,15.7c4.7,4.2,9.1,8.6,13.7,12.8c4.2,3.8,9.9,10,16.2,7.1c0.9-0.5,1.2-1.6,1-2.6
			c-2.5-11.8-7.1-23-12.8-33.6c-5.6-10.6-12.3-20.6-19.1-30.5c-1.6-2.3-3.3-4.8-3.9-7.6c-0.3-1.1-0.3-2.3,0-3.3
			c0.3-1,0.4-1.4,1.1-2.3c0,0,0,0,0,0c0.1-0.1,0.1-0.1,0.2-0.2c0.2-0.2,0.3-0.4,0.5-0.6c0.2-0.2,0.3-0.3,0.5-0.4
			c0,0,0.1-0.1,0.1-0.1c0.1-0.1,0.3-0.2,0.3-0.2c0.4-0.3,0.8-0.5,1.2-0.7c0.6-0.3,0.7-0.4,1.1-0.5c0.9-0.3,2.2-0.6,2.9-0.7
			c0.2,0,0.9-0.1,1.3-0.1c0.6,0,1.1,0,1.6,0.1c0,0,0.2,0,0.2,0c0.1,0,0.2,0,0.2,0c0.2,0,0.5,0.1,0.7,0.1c0.6,0.1,1.1,0.3,1.6,0.5
			c1.1,0.4,2.2,1,3.3,1.7c2.2,1.4,4,3.2,5.8,5.1c4,4.5,7.5,9.6,11.2,14.4c8.1,10.7,16.3,21.5,24.5,32.2c1,1.3,2,2.7,3.1,4
			c0.7,0.9,1.7,1.4,2.8,0.9c1.1-0.5,1.6-1.5,1.3-2.7c-3.2-14-6-28.1-8.6-42.3c-2.6-14.1-4.8-28.2-6.8-42.4c-0.4-2.7-0.9-5.4-0.8-8.1
			c0-0.6,0.1-1.1,0.1-1.7c0,0,0-0.1,0-0.1c0-0.1,0-0.2,0.1-0.4c0.1-0.3,0.1-0.6,0.2-0.9c0.3-1.2,0.4-1.5,1.1-2.5
			c0-0.1,0.1-0.1,0.1-0.2c0,0,0,0,0.1-0.1c0.2-0.2,0.3-0.3,0.5-0.5c0.1-0.1,0.2-0.1,0.3-0.2c0.1-0.1,0.2-0.1,0.3-0.2
			c0,0,0.1,0,0.1,0c0,0,0,0,0.1,0c1.2-0.4,2.4-0.2,3.5,0.3c2.4,1,4.3,2.5,6,4.2c3.5,3.6,5.8,8.4,7.6,13.1c2.2,5.9,3.9,12.1,5.6,18.2
			c3.7,13.4,7,27,9.7,40.7c0,0.5,0.1,0.9,0.1,1.4c0.2,1.5,0.5,3,1,4.4c0.4,1.2,1.6,1.9,2.8,1.6c1.3-0.3,1.8-1.6,1.6-2.8
			c-0.3-1.7-0.6-3.4-1-5c-0.6-9.1,4.6-18.2,9.2-25.8c1.2-2,2.4-4.1,4.1-5.8c1.4-1.5,3.3-2.7,5.1-2.9c1.9-0.1,3.5,0.5,5.2,1.8
			c1.5,1.2,2.9,3,3.7,5C543.7,540.1,544,542.3,543.8,544.6z"/>
	</g>
</g>
</svg>
