<?xml version="1.0" encoding="utf-8"?>
<!-- Generator: Adobe Illustrator 27.9.2, SVG Export Plug-In . SVG Version: 6.00 Build 0)  -->
<svg version="1.1" id="Calque_1" xmlns="http://www.w3.org/2000/svg" xmlns:xlink="http://www.w3.org/1999/xlink" x="0px" y="0px"
	 viewBox="0 0 1920 474.4" style="enable-background:new 0 0 1920 474.4;" xml:space="preserve">
<style type="text/css">
	.st0{fill:#BABABA;}
</style>
<path d="M1900.9,4.2c-22.2,5.4-44.4,10.8-67,15.2c-96.4,18.5-195.8,24.1-294.5,30.1c-98.7,6-196.8,14.6-294.7,25.7
	c-201.8,22.8-402.6,52.6-606.3,63.2c-199.5,10.3-400.5,3.8-599.1,24.2C26.2,164,13.1,165.4,0,167v3.1
	c160.7-19.6,324.5-19.7,486.9-23.4c97.6-2.2,194.8-6.7,291.8-15.3c97.8-8.7,195.1-20.4,292.3-32.3c98.3-12,196.6-24.2,295.4-33.5
	c96-9,192.5-13.1,288.6-20.6c45.8-3.6,91.5-8.2,136.7-15.1c23.1-3.6,46-7.7,68.7-12.7c20-4.4,39.5-10,59.7-14V0
	C1913.6,1.3,1907.2,2.7,1900.9,4.2z"/>
<path class="st0" d="M1860.3,17.1c-22.7,5-45.6,9.1-68.7,12.7c-45.2,6.9-90.9,11.6-136.7,15.1c-96.2,7.5-192.7,11.6-288.6,20.6
	c-98.8,9.3-197.1,21.5-295.4,33.5c-97.2,11.9-194.5,23.7-292.3,32.3c-97,8.6-194.2,13.1-291.8,15.3c-162.4,3.8-326.2,3.8-486.9,23.4
	v304.2h1920V3.1C1899.9,7.1,1880.3,12.7,1860.3,17.1z"/>
</svg>
