<?xml version="1.0" encoding="utf-8"?>
<!-- Generator: Adobe Illustrator 27.9.2, SVG Export Plug-In . SVG Version: 6.00 Build 0)  -->
<svg version="1.1" id="Calque_1" xmlns="http://www.w3.org/2000/svg" xmlns:xlink="http://www.w3.org/1999/xlink" x="0px" y="0px"
	 viewBox="0 0 872.3 361.8" style="enable-background:new 0 0 872.3 361.8;" xml:space="preserve">
<g>
	<path d="M178,361.8c-4,0-7.3-0.8-9.9-2.3c-2.6-1.5-4.9-3.2-6.9-5.1c-2-1.9-4-3.6-5.9-5.1c-1.9-1.5-4.3-2.3-7-2.3
		c-2.6,0-5.7,0.7-9.3,2.2c-3.6,1.5-7.7,3.1-12.4,4.8c-4.7,1.8-10,3.4-15.9,4.8c-5.9,1.5-12.4,2.2-19.6,2.2c-14,0-26.6-3.2-37.9-9.7
		c-11.3-6.5-20.9-15.7-28.8-27.8c-7.9-12.1-14-26.7-18.2-43.9C2.1,262.5,0,243.3,0,222c0-25.3,2.9-48.4,8.8-69.4
		c5.9-21,14.1-39,24.8-54c10.6-15,23.4-26.7,38.2-35.1c14.8-8.3,31.1-12.5,49-12.5c11.5,0,21.8,1.8,30.9,5.4
		c9.1,3.6,16.8,8.8,23.1,15.6c6.3,6.8,11.1,15.2,14.4,25c3.3,9.9,4.9,21.1,4.9,33.7c0,14.8-2.5,25.5-7.6,32.2
		c-5.1,6.6-13.2,10-24.5,10c-5.6,0-10.2-0.7-13.6-2.1c-3.4-1.4-6.1-3.3-8.1-5.6c-2-2.3-3.4-5-4.2-8c-0.8-3-1.5-6-1.9-9.1
		c-0.5-3.1-0.9-6.1-1.4-9.1c-0.5-3-1.3-5.7-2.4-8c-1.1-2.3-2.8-4.2-5-5.6c-2.2-1.4-5.4-2.1-9.5-2.1c-6.5,0-12.4,1.9-17.8,5.6
		c-5.4,3.8-10,9-13.9,15.7c-3.9,6.7-6.9,14.7-9,24.1c-2.1,9.4-3.2,19.7-3.2,31c0,12.5,1.3,24,3.9,34.7c2.6,10.7,6.2,19.9,10.8,27.8
		c4.6,7.8,10,13.9,16.3,18.3c6.3,4.4,13.1,6.6,20.4,6.6c5.6,0,9.7-1.5,12.2-4.5c2.5-3,3.8-7.9,3.8-14.7c0-8.5-1.6-15.3-4.9-20.4
		c-3.3-5.2-7.6-7.8-13-7.8c-3.1,0-6.1,0.6-9.3,1.7c-3.1,1.1-5.8,1.7-8,1.7c-3.9,0-7.1-2.4-9.5-7.1c-2.5-4.8-3.7-10.9-3.7-18.4
		c0-6.1,0.9-11.1,2.6-15.1c1.7-3.9,4-7.1,6.8-9.4c2.8-2.3,6.1-4.1,10-5.1c3.8-1.1,7.9-1.8,12.2-2.1c4.3-0.4,8.6-0.5,13-0.4
		c4.4,0.1,8.7,0.2,13,0.2c19,0,33,2.7,41.9,8.2c8.9,5.5,13.3,14.1,13.3,26c0,3.3-0.3,6.8-0.8,10.6c-0.5,3.8-1.1,7.6-1.9,11.5
		c-0.7,3.9-1.3,8-1.9,12.2c-0.5,4.2-0.8,8.3-0.8,12.4c0,5.8,0.5,11.4,1.6,17c1.1,5.6,2.3,10.9,3.6,16c1.3,5.1,2.6,10,3.6,14.6
		c1.1,4.6,1.6,9,1.6,13c0,4.7-0.8,9.1-2.5,13.3c-1.6,4.2-3.9,7.8-6.6,11c-2.8,3.2-6,5.7-9.7,7.6C186,360.9,182.1,361.8,178,361.8z"
		/>
	<path d="M323.3,357.9c-16.5,0-31.3-3.5-44.5-10.6c-13.2-7-24.5-17.1-33.8-30.1c-9.3-13-16.5-28.7-21.6-47.2
		c-5.1-18.5-7.6-39.2-7.6-62.1c0-23.3,2.6-44.5,7.7-63.7c5.1-19.2,12.3-35.7,21.6-49.5c9.3-13.8,20.4-24.5,33.4-32.2
		c13-7.6,27.3-11.5,42.9-11.5c15.9,0,30.3,3.9,43.4,11.6s24.4,18.7,33.8,32.8c9.4,14.1,16.7,30.9,21.9,50.5
		c5.2,19.6,7.8,41.2,7.8,64.8c0,22.7-2.4,43.1-7.3,61.3c-4.9,18.2-11.9,33.6-21,46.4c-9.1,12.8-20.1,22.5-33,29.3
		C354,354.5,339.5,357.9,323.3,357.9z M321,275.3c9.3,0,16.4-5.9,21.5-17.6c5.1-11.7,7.6-28.4,7.6-49.9c0-11.4-0.7-21.9-2.1-31.5
		c-1.4-9.6-3.4-17.8-6-24.8c-2.6-6.9-5.6-12.3-9.2-16.2c-3.5-3.9-7.4-5.8-11.6-5.8c-4.1,0-7.8,1.8-11.1,5.5
		c-3.3,3.6-6.1,8.9-8.5,15.7c-2.4,6.8-4.1,15.1-5.4,24.8c-1.2,9.7-1.9,20.5-1.9,32.5C294.4,252.8,303.2,275.3,321,275.3z"/>
	<path d="M491.8,358.5c-16.5,0-28.8-5.1-37.2-15.4c-8.3-10.3-12.5-25.5-12.5-45.7c0-12,1.3-23.8,4-35.4c2.6-11.6,5.9-23,9.9-34.1
		c3.9-11.1,8.2-21.9,12.9-32.3c4.6-10.5,8.9-20.5,12.9-30.1c3.9-9.6,7.2-18.7,9.9-27.2c2.6-8.6,4-16.5,4-23.8c0-3.6-0.3-6.9-0.9-9.7
		c-0.6-2.8-1.3-5.3-2-7.6c-0.8-2.2-1.4-4.2-2-6c-0.6-1.8-0.9-3.4-0.9-4.9c0-3.5,1.6-7,4.9-10.3c3.3-3.3,7.6-6.3,13-9
		c5.4-2.6,11.5-4.8,18.4-6.4c6.9-1.6,13.8-2.5,20.9-2.5c24.4,0,43.8,10.4,58.2,31.3c14.3,20.9,23.5,52,27.5,93.5
		c2.1,22.3,5.9,43.1,11.3,62.2c5.4,19.2,12.4,36.8,21,53.1c2.2,4.1,4.1,7.6,5.6,10.6c1.5,2.9,2.2,6,2.2,9.2c0,4.3-1.5,8.9-4.4,13.7
		c-2.9,4.8-6.7,9.1-11.2,13c-4.5,3.9-9.5,7.2-15,9.7c-5.5,2.5-10.7,3.8-15.8,3.8c-5.6,0-10.6-1.3-14.8-3.9
		c-4.2-2.6-7.9-5.9-11.1-9.9c-3.2-4-5.9-8.5-8.1-13.4c-2.2-4.9-4.1-9.8-5.6-14.5c-1.5-4.8-2.6-9.2-3.5-13.2
		c-0.9-4.1-1.6-7.2-2.2-9.4c-1.2-4.8-2.9-8.3-5.3-10.6c-2.4-2.2-5-3.8-8-4.6c-3-0.8-6.2-1.2-9.5-1.1c-3.3,0.1-6.7,0.2-10,0.2
		c-0.8,0-2.1,0-3.8,0c-1.7,0-3.5,0.1-5.3,0.3c-1.8,0.2-3.6,0.5-5.3,0.9c-1.7,0.4-3,1-3.8,1.7c-0.7,0.7-1.4,2-2,3.9
		c-0.6,1.9-1.2,4-1.6,6.3c-0.4,2.4-0.8,4.7-1.1,7.1c-0.3,2.4-0.4,4.4-0.4,6.1c0,2.7,0.5,5.2,1.4,7.5c0.9,2.3,2,4.6,3.2,6.8
		c1.2,2.2,2.2,4.5,3.2,6.7c0.9,2.2,1.4,4.6,1.4,7.2c0,4.2-1.1,8-3.3,11.2c-2.2,3.2-5.2,6-9,8.3c-3.8,2.3-8.3,4-13.5,5.2
		C503.2,357.9,497.6,358.5,491.8,358.5z M535.5,209.7c0,5.6,1.7,9.3,5,11.1c3.3,1.8,8.7,2.6,16,2.6c4.2,0,7.5-0.3,10-1
		c2.4-0.6,4.2-1.7,5.5-3.3c1.2-1.5,2-3.5,2.3-6c0.3-2.5,0.4-5.5,0.4-9c0-6.9-0.5-13.8-1.4-20.5c-0.9-6.8-2.1-12.8-3.4-18.2
		c-1.4-5.4-2.8-9.8-4.4-13.1s-3-5-4.3-5c-1.1,0-2.4,1.2-4.1,3.5c-1.7,2.4-3.5,5.4-5.4,9.1c-1.9,3.7-3.8,7.9-5.7,12.5
		c-1.9,4.6-3.7,9.3-5.2,13.9c-1.5,4.6-2.8,9-3.7,13.1C535.9,203.6,535.5,207,535.5,209.7z"/>
	<path d="M738.2,358.5c-13.2,0-23.2-6.9-30.1-20.6c-6.9-13.7-10.3-33.9-10.3-60.5c0-6.3,0.2-12.8,0.6-19.4c0.4-6.6,1-13.1,1.7-19.6
		c0.7-6.5,1.6-12.7,2.6-18.9c1-6.1,2.1-11.9,3.3-17.3c1.6-6.9,2.9-13.7,3.8-20.4c0.9-6.6,1.3-12.3,1.3-17c0-9.5-1.8-17-5.5-22.6
		c-3.6-5.5-8.6-8.3-15-8.3c-3.2,0-6.1,0.6-8.9,1.9c-2.8,1.3-5.4,2.7-7.8,4.2c-2.5,1.5-4.8,2.9-7,4.2c-2.2,1.3-4.2,1.9-6.1,1.9
		c-2.5,0-4.8-1.2-7.1-3.7c-2.3-2.5-4.3-5.7-6.2-9.8c-1.8-4.1-3.3-8.7-4.3-13.9c-1.1-5.2-1.6-10.6-1.6-16.1
		c0-14.7,3.9-25.8,11.8-33.5c7.9-7.6,19.4-11.5,34.5-11.5c6.9,0,13.8,0.7,20.7,2.1c6.9,1.4,13.7,2.9,20.4,4.6
		c6.8,1.6,13.4,3.2,19.9,4.6c6.5,1.4,12.9,2.1,19.1,2.1c6.1,0,11.9-0.6,17.4-1.9c5.5-1.3,10.7-2.7,15.4-4.3c4.8-1.6,9-3,12.9-4.3
		c3.8-1.3,7-1.9,9.4-1.9c2.9,0,5.7,1,8.3,3c2.6,2,4.8,4.7,6.8,8s3.5,7.3,4.7,11.8c1.2,4.5,1.8,9.3,1.8,14.2c0,7.1-1.1,12.7-3.3,16.9
		c-2.2,4.2-5.2,7.6-8.9,10.1c-3.7,2.5-7.9,4.5-12.5,5.9c-4.6,1.4-9.4,2.8-14.4,4.1c-4.9,1.4-9.7,3-14.4,4.8c-4.6,1.9-8.8,4.6-12.5,8
		c-3.7,3.5-6.7,8-8.9,13.7c-2.2,5.6-3.3,12.9-3.3,21.9c0,10.1,1.3,19.9,3.9,29.5c2.6,9.6,5.4,18.9,8.5,28.1c3.1,9.2,6,18.2,8.5,27
		c2.6,8.8,3.9,17.5,3.9,26.1c0,8.7-1.5,17-4.4,25c-2.9,8-6.9,15.1-11.8,21.2c-4.9,6.2-10.6,11.1-17,14.7
		C751.8,356.7,745.1,358.5,738.2,358.5z"/>
</g>
<path d="M853.9,178.7c-5.6-4.7-12.5-7.6-19.9-8.1c-6.8-0.4-14.1,1.7-19,6.6c-8.4,8.5-9.1,24.7,1.3,32c5.3,3.8,12.2,3.9,18.4,3.2
	c6.5-0.8,12.4-2.4,18.9-1.9c0.4,0,0.7,0.1,1.1,0.1c-0.4-0.1,0.3,0.1,0.5,0.1c0.8,0.1,1.5,0.3,2.3,0.6c1.3,0.4,2.3,0.9,3.6,1.8
	c2,1.3,3.6,3.8,4.4,6.1c1.8,5.4,0.7,11.2-3.3,15.4c-4.4,4.6-10.9,6.5-17.1,5.9c-3-0.3-6.5-1.4-9.4-2.9c-3.1-1.7-5.9-3.8-8.4-6.3
	c-1.3-1.3-2.5-2.7-3.6-4.1c-1-1.3-3.2-1-4.2,0c-1.3,1.3-1,3,0,4.2c4.6,6,10.7,10.8,17.9,13.4c6.9,2.5,14.6,2.4,21.3-0.6
	c6.3-2.7,11.5-8.1,13.1-14.9c1.5-6.5,0.1-13.6-4.3-18.6c-4.4-5-11.3-6.5-17.7-6.1c-6.5,0.3-12.7,2-19,2.3c-3.2,0.1-5.5,0-8.4-1.1
	c-0.5-0.2-0.8-0.3-1.5-0.7c-0.3-0.2-0.7-0.4-1-0.6c-0.1-0.1-0.2-0.2-0.4-0.2c-0.8-0.5,0.2,0.2-0.2-0.1c-0.5-0.4-0.9-0.8-1.4-1.3
	c-0.2-0.2-0.4-0.5-0.7-0.8c-0.2-0.3,0,0,0,0c-0.1-0.2-0.3-0.4-0.4-0.6c-0.3-0.5-0.6-1.1-0.9-1.6c-0.1-0.2-0.2-0.3-0.2-0.5
	c0,0.1,0.2,0.4,0,0.1c-0.1-0.4-0.3-0.7-0.4-1.1c-0.2-0.6-0.3-1.2-0.5-1.8c0-0.2-0.2-0.9-0.1-0.8c0,0.3,0-0.2,0-0.2
	c0-0.2,0-0.5-0.1-0.7c0-0.6-0.1-1.3,0-1.9c0-0.3,0-0.7,0.1-1c0-0.1,0-0.3,0-0.4c0-0.5,0,0.1,0-0.2c0.2-1.3,0.5-2.6,1-3.9
	c0.8-2.1,2.2-4.4,4-6.2c0.3-0.2,0.5-0.5,0.8-0.7c0.3-0.2,0,0,0,0c0.2-0.1,0.3-0.2,0.5-0.4c0.7-0.5,1.4-0.9,2.2-1.3
	c1.4-0.7,2.7-1.2,4.3-1.6c6.1-1.5,12.9-0.1,18.4,3.1c1.4,0.8,2.7,1.7,3.9,2.7c1.2,1,3,1.2,4.2,0C855,181.9,855.1,179.7,853.9,178.7
	L853.9,178.7z"/>
<path d="M814.1,158.1c10.5,26.7,22.9,52.6,37.1,77.6c4,7,8.1,13.9,12.4,20.8c2,3.3,7.2,0.3,5.2-3c-15-24-28.4-49.1-39.8-75.1
	c-3.2-7.2-6.2-14.5-9.1-21.9c-0.6-1.5-2-2.6-3.7-2.1C814.7,154.8,813.5,156.6,814.1,158.1L814.1,158.1z"/>
<path d="M836,29.9c1.2-10.5,9.1-20.3,19.1-23.9c1.5-0.6,2.5-2,2.1-3.7c-0.4-1.5-2.2-2.6-3.7-2.1c-12.8,4.6-21.9,16.3-23.5,29.7
	c-0.2,1.6,1.5,3,3,3C834.8,32.9,835.8,31.5,836,29.9L836,29.9z"/>
<path d="M848.4,35.3c2.9-9.9,11.3-17.8,21.4-20.1c1.6-0.4,2.5-2.2,2.1-3.7c-0.4-1.6-2.1-2.4-3.7-2.1c-12.1,2.7-22.2,12.3-25.6,24.2
	C841.5,37.4,847.3,39,848.4,35.3L848.4,35.3z"/>
<path d="M69,35.1C56.8,24.8,40.7,19.5,24.7,21c-1.6,0.2-3,1.3-3,3c0,1.5,1.4,3.2,3,3c14.3-1.3,29,3.1,40,12.4c1.2,1,3,1.2,4.2,0
	C70,38.3,70.2,36.2,69,35.1L69,35.1z"/>
<path d="M24.7,41.8c8.3-0.3,16.4,3.3,21.8,9.8c1,1.2,3.2,1.1,4.2,0c1.2-1.2,1-3,0-4.2c-6.3-7.5-16.2-11.9-26.1-11.5
	c-1.6,0.1-3,1.3-3,3C21.7,40.4,23.1,41.8,24.7,41.8L24.7,41.8z"/>
</svg>
