<?xml version="1.0" encoding="utf-8"?>
<!-- Generator: Adobe Illustrator 27.9.2, SVG Export Plug-In . SVG Version: 6.00 Build 0)  -->
<svg version="1.1" id="Calque_1" xmlns="http://www.w3.org/2000/svg" xmlns:xlink="http://www.w3.org/1999/xlink" x="0px" y="0px"
	 viewBox="0 0 125.3 74.3" style="enable-background:new 0 0 125.3 74.3;" xml:space="preserve">
<style type="text/css">
	.st0{fill:#24BC7E;}
	.st1{fill:#1A8E5C;}
</style>
<path d="M124.2,2.3c-18.7-3.2-37.9-3-56.6,0.5C58.3,4.5,49.2,7,40.3,10.4c-7.9,3-15.7,6.6-22.7,11.4C11.5,26.1,5.9,31.4,2.2,38
	c-0.7-0.2-1.5,0.1-1.7,1c-1.6,7,0.7,14.3,4.8,20.1c4.3,6,10.3,10.5,16.2,14.9c1.2,0.9,2.4-0.6,2.2-1.7c-0.5-3.1,2-5.7,4.2-7.4
	c2.7-2.2,5.9-3.8,8.9-5.4c6.3-3.4,12.9-6.2,19.6-8.5c13.4-4.5,27.7-6.7,41.8-5.4c7.9,0.7,15.7,2.6,23,5.6c1,0.4,1.9-0.6,1.9-1.4
	c0.7-15.4,1.4-30.7,2.1-46.1C125.3,3.1,124.8,2.4,124.2,2.3z M120.3,47.6c-13.4-5.1-28-6.4-42.1-4.7c-15,1.9-29.6,6.8-42.9,13.9
	c-5.2,2.8-13.1,6.6-14.4,12.9c-4.6-3.5-9.3-7.2-12.7-11.9C5,53.6,2.8,48.3,3,43c6.5-14.6,21.4-23,35.6-28.7C55.7,7.4,74,3.6,92.4,3
	c10-0.3,20,0.3,29.8,1.9C121.6,19.2,120.9,33.4,120.3,47.6z"/>
<path class="st0" d="M92.4,3C74,3.6,55.7,7.4,38.6,14.3C24.4,20,9.5,28.4,3,43c-0.2,5.4,2,10.6,5.1,14.9c3.5,4.7,8.1,8.4,12.7,11.9
	c1.3-6.3,9.2-10.1,14.4-12.9C48.6,49.8,63.1,44.8,78.1,43c14.2-1.8,28.8-0.5,42.1,4.7c0.7-14.2,1.3-28.4,2-42.7
	C112.4,3.4,102.4,2.7,92.4,3z M72.6,37.2c-5.4,4.4-13.7,4.9-19.3,0.7C47.9,33.8,46,26,49,19.9c3.3-6.7,11.4-8.6,18.1-9.7
	c0.2,0,0.4,0,0.6,0c0.6,0,1.1,0,1.7,0.1c4.1,0.6,7,4.2,8.3,7.9C80,24.6,78,32.8,72.6,37.2z"/>
<path d="M77.7,18.1c-1.3-3.7-4.2-7.3-8.3-7.9c-0.5-0.1-1.1-0.1-1.7-0.1c-0.2,0-0.4,0-0.6,0c-6.7,1.2-14.8,3-18.1,9.7
	c-3,6.1-1.1,13.9,4.3,18c5.6,4.2,14,3.7,19.3-0.7C78,32.8,80,24.6,77.7,18.1z M70.9,34.7c-4.2,3.7-10.9,4.1-15.5,1
	c-4.4-2.9-6-9.2-3.9-14c1.8-4.1,5.7-6.1,9.9-7.3c-0.1,0.3-0.2,0.6-0.3,0.9c-0.4,1.9,2.5,2.7,2.9,0.8c0.6-2.3,3.2-3.4,5.4-2.9
	c2.9,0.7,4.8,3.5,5.6,6.2C76.7,24.7,75.1,31,70.9,34.7z"/>
<path class="st1" d="M70.9,34.7c-4.2,3.7-10.9,4.1-15.5,1c-4.4-2.9-6-9.2-3.9-14c1.8-4.1,5.7-6.1,9.9-7.3c-0.1,0.3-0.2,0.6-0.3,0.9
	c-0.4,1.9,2.5,2.7,2.9,0.8c0.6-2.3,3.2-3.4,5.4-2.9c2.9,0.7,4.8,3.5,5.6,6.2C76.7,24.7,75.1,31,70.9,34.7z"/>
</svg>
