<?xml version="1.0" encoding="utf-8"?>
<!-- Generator: Adobe Illustrator 27.9.2, SVG Export Plug-In . SVG Version: 6.00 Build 0)  -->
<svg version="1.1" id="Calque_1" xmlns="http://www.w3.org/2000/svg" xmlns:xlink="http://www.w3.org/1999/xlink" x="0px" y="0px"
	 viewBox="0 0 154.3 138.9" style="enable-background:new 0 0 154.3 138.9;" xml:space="preserve">
<style type="text/css">
	.st0{fill:#24BC7E;}
	.st1{fill:#1A8E5C;}
</style>
<path d="M154.1,59.7c-7.6-14.7-15.2-29.5-22.8-44.2c-2.8-5.5-5.9-11.9-11.9-14.4c-3.4-1.4-7.1-1.3-10.7-0.6
	c-3.6,0.7-7.2,1.8-10.8,2.9c-14.3,4.2-28.3,9.7-41.7,16.3c-6.7,3.3-13.2,6.8-19.6,10.7c-6,3.6-12,7.4-17.5,11.8
	C11.1,48.6,2.8,57.3,0.6,67.8c-0.3,0.2-0.4,0.6-0.4,1.1c0,0.2,0,0.3,0.1,0.5C0.1,70.7,0,72,0,73.4c0,1.6,0.2,3.1,0.5,4.7
	c0.2,0.9,0.9,1.2,1.6,1c3.9,17.3,12.2,33.5,23.9,46.9c4,4.5,8.4,8.7,13.1,12.5c0.7,0.5,1.9,0.7,2.4-0.3c7.6-16.8,19-31.7,32.9-43.8
	c13.9-12.1,30.4-21.4,48-26.9c9.9-3.1,20.2-5,30.5-5.5C154,61.9,154.6,60.7,154.1,59.7z M98.7,74c-16.7,8.8-31.6,21-43.4,35.7
	c-6.2,7.8-11.5,16.3-15.8,25.3C24.2,122.3,12.7,105,6.9,85.8C5.2,80.5,4,75.1,3.3,69.6c1.5-9.2,8.4-17.2,15.4-23.2
	c5-4.3,10.6-8,16.3-11.5c6.1-3.8,12.3-7.3,18.6-10.5c12.7-6.5,26-12,39.6-16.4c3.3-1.1,6.7-2.1,10-3c3.4-0.9,6.8-2,10.3-2
	c6.9,0,10.6,5.5,13.5,11c8,15,15.6,30.1,23.3,45.1C132.4,60.4,114.8,65.6,98.7,74z"/>
<path class="st0" d="M127.1,13.9c-2.9-5.5-6.7-11-13.5-11c-3.5,0-7,1.1-10.3,2c-3.4,0.9-6.7,1.9-10,3c-13.6,4.4-26.9,9.8-39.6,16.4
	c-6.3,3.3-12.6,6.8-18.6,10.5c-5.6,3.5-11.2,7.1-16.3,11.5c-7,6-13.9,14-15.4,23.2c0.7,5.5,1.9,11,3.5,16.2
	c5.8,19.2,17.3,36.5,32.7,49.2c4.2-9,9.6-17.5,15.8-25.3C67.1,95,82.1,82.8,98.7,74c16-8.4,33.6-13.7,51.7-15
	C142.7,44,135.1,28.9,127.1,13.9z M87.6,65.2C82,72.4,71.9,76.3,63,73.5c-9.6-3-16.1-13.4-14.9-23.4C49,42.8,54,36.5,60.5,33.3
	c3.3-3.8,8.8-4.7,13.6-3.8c5.4,1,10.1,4.5,13.3,8.9C93.2,46.3,93.8,57.3,87.6,65.2z"/>
<path d="M87.4,38.4c-3.2-4.4-7.9-7.9-13.3-8.9c-4.9-0.9-10.3,0-13.6,3.8C54,36.5,49,42.8,48.1,50.2c-1.2,10,5.2,20.4,14.9,23.4
	c8.9,2.8,19.1-1.2,24.7-8.3C93.8,57.3,93.2,46.3,87.4,38.4z M86.6,61.4c-4,6.7-12.2,10.9-20,9.9C58,70.2,51.5,62.1,51,53.6
	c-0.4-7,3.6-13.5,9.5-17c0.6,0.2,1.2,0,1.7-0.6c0.1-0.1,0.2-0.2,0.3-0.4c2.1-0.9,4.3-1.5,6.6-1.6c1.1,0,1.6-1.1,1.4-2
	c1,0,1.9,0.1,2.8,0.2c4.2,0.7,7.8,3.1,10.6,6.2C89.2,44.8,90.9,54.2,86.6,61.4z"/>
<path class="st1" d="M86.6,61.4c-4,6.7-12.2,10.9-20,9.9C58,70.2,51.5,62.1,51,53.6c-0.4-7,3.6-13.5,9.5-17c0.6,0.2,1.2,0,1.7-0.6
	c0.1-0.1,0.2-0.2,0.3-0.4c2.1-0.9,4.3-1.5,6.6-1.6c1.1,0,1.6-1.1,1.4-2c1,0,1.9,0.1,2.8,0.2c4.2,0.7,7.8,3.1,10.6,6.2
	C89.2,44.8,90.9,54.2,86.6,61.4z"/>
</svg>
