<?xml version="1.0" encoding="utf-8"?>
<!-- Generator: Adobe Illustrator 27.9.2, SVG Export Plug-In . SVG Version: 6.00 Build 0)  -->
<svg version="1.1" id="Calque_1" xmlns="http://www.w3.org/2000/svg" xmlns:xlink="http://www.w3.org/1999/xlink" x="0px" y="0px"
	 viewBox="0 0 159.1 88.8" style="enable-background:new 0 0 159.1 88.8;" xml:space="preserve">
<style type="text/css">
	.st0{fill:#24BC7E;}
	.st1{fill:#1A8E5C;}
</style>
<path d="M159.1,58.1c-3.9-15.4-9.2-30.4-15.6-44.9c-1.9-4.2-3.8-8.3-5.9-12.4c-0.4-0.8-1.7-1-2.3-0.3c-13,14.8-29.8,27-49,32
	c-17.5,4.6-36.4,2.3-51.7-7.6c-8.2-5.2-14.8-12.5-18.9-21.4c-0.5-1.1-2-0.8-2.6,0C2.2,17.5-2,36,0.9,53.3c0.8,4.9,2.3,9.7,4.2,14.3
	c0.5,1.3,2.1,0.8,2.6-0.2C24.9,79,45.1,86.1,65.8,88.2c21.3,2.1,42.9-1.5,62.4-10c11-4.8,21.2-11.1,30.4-18.8
	C159.1,59.2,159.2,58.5,159.1,58.1z M100.9,83.7c-20.7,4-42.3,2.4-62.3-4.3C27.4,75.5,16.7,70.1,7,63.3c-0.2-0.1-0.3-0.2-0.5-0.2
	C1.2,48.3,1.9,31.5,8.3,17.2c1.6-3.5,3.5-6.9,5.7-10c8,15.4,23.9,25.6,40.7,29.2c19.5,4.1,39.5-1.1,56.3-11.4
	c9.2-5.7,17.6-12.8,24.9-20.8c6.7,13.4,12.3,27.4,16.7,41.7c1.2,4,2.3,8,3.4,12.1C140.1,70.9,121,79.8,100.9,83.7z"/>
<path class="st0" d="M152.5,45.9c-4.4-14.3-10-28.3-16.7-41.7c-7.3,8-15.6,15.1-24.9,20.8C94.2,35.2,74.2,40.5,54.7,36.3
	C37.9,32.8,22,22.6,13.9,7.2c-2.2,3.2-4.1,6.5-5.7,10C1.9,31.5,1.2,48.3,6.5,63c0.2,0,0.3,0.1,0.5,0.2c9.7,6.8,20.4,12.3,31.7,16.1
	c20,6.7,41.6,8.3,62.3,4.3c20.1-3.9,39.2-12.8,55-25.8C154.9,53.9,153.7,49.8,152.5,45.9z M97.6,62.4c-3.2,9.7-15.5,13.9-24.7,13.9
	c-9.8,0.1-20-5.6-22.4-15.7c-2.1-8.7,4-18.6,13.3-19.1c7.8-3.8,17.2-5,24.8-0.4C95.4,45.4,100.2,54.4,97.6,62.4z"/>
<path d="M88.5,41.2c-7.6-4.6-17-3.4-24.8,0.4C54.4,42.1,48.3,52,50.4,60.7C52.8,70.8,63,76.4,72.9,76.4c9.3-0.1,21.6-4.2,24.7-13.9
	C100.2,54.4,95.4,45.4,88.5,41.2z M78.1,72.8c-8.7,1.7-18.5-0.8-23.2-9c-2.2-3.8-2.7-8.5-0.7-12.5c0.7-1.4,1.6-2.6,2.6-3.7
	c0.4,0.6,1.1,0.9,1.9,0.4c6.9-5.2,16.1-8.6,24.7-5.9c6.7,2.1,12,8.9,11.8,16C95.1,67,85.6,71.4,78.1,72.8z"/>
<path class="st1" d="M95.3,58.1c-0.2,8.8-9.6,13.2-17.2,14.7c-8.7,1.7-18.5-0.8-23.2-9c-2.2-3.8-2.7-8.5-0.7-12.5
	c0.7-1.4,1.6-2.6,2.6-3.7c0.4,0.6,1.1,0.9,1.9,0.4c6.9-5.2,16.1-8.6,24.7-5.9C90.2,44.2,95.4,51,95.3,58.1z"/>
</svg>
