<?xml version="1.0" encoding="utf-8"?>
<!-- Generator: Adobe Illustrator 27.9.2, SVG Export Plug-In . SVG Version: 6.00 Build 0)  -->
<svg version="1.1" id="Calque_1" xmlns="http://www.w3.org/2000/svg" xmlns:xlink="http://www.w3.org/1999/xlink" x="0px" y="0px"
	 viewBox="0 0 91 141.1" style="enable-background:new 0 0 91 141.1;" xml:space="preserve">
<style type="text/css">
	.st0{fill:#24BC7E;}
	.st1{fill:#1A8E5C;}
</style>
<path d="M90.7,46c-1-15.8-5.5-31.4-13.2-45.2c-0.3-0.5-1.1-0.9-1.7-0.7c-9,3.6-18,7.9-26.2,13.1c-3.2,2-6.5,4.8-7.5,8.6
	c-0.9,3.5,0,7.3,3.1,9.3c0.4,0.2,0.7,0.3,1,0.2c4,11.7,2.8,24.8-1.6,36.3c-5,12.9-14.3,23.6-24.8,32.3c-6,4.9-12.5,9.2-19.2,13.2
	c-0.9,0.5-1.1,2.1,0,2.6c6.6,2.9,12.9,6.4,18.8,10.5c2.8,2,5.6,4.1,8.2,6.3c2.7,2.3,5,4.9,7.8,7c6.1,4.6,12.6-1.7,17.2-5.5
	c5-4.2,9.7-8.9,13.8-13.9C83.6,99.4,92.4,72.8,90.7,46z M84.1,80.6c-3.4,12-9.1,23.3-16.5,33.3c-3.7,5-7.8,9.6-12.3,13.8
	c-2.3,2.2-4.7,4.2-7.1,6.1c-2.2,1.8-5.2,4.6-8.3,4.4c-1.9-0.1-3.3-1.7-4.6-2.9c-1.3-1.3-2.7-2.6-4.1-3.8c-2.8-2.4-5.7-4.8-8.7-6.9
	c-5.6-4-11.5-7.4-17.7-10.3c11.5-6.9,22.3-15.2,30.9-25.5c4.4-5.4,8.2-11.3,10.9-17.6c2-4.5,3.5-9.2,4.3-14.1
	c0.4-2.4,0.7-4.8,0.9-7.3c0.5-8-0.9-15.9-4.1-23.2c-0.5-1.2-1.8-0.9-2.4,0c-0.6-1.7-0.4-3.8,0.4-5.3c1.7-3.2,5.1-5.1,8.1-6.9
	c7-4.1,14.4-7.7,21.9-10.8C88.2,26.8,91.4,55,84.1,80.6z"/>
<path class="st0" d="M84.1,80.6c-3.4,12-9.1,23.3-16.5,33.3c-3.7,5-7.8,9.6-12.3,13.8c-2.3,2.2-4.7,4.2-7.1,6.1
	c-2.2,1.8-5.2,4.6-8.3,4.4c-1.9-0.1-3.3-1.7-4.6-2.9c-1.3-1.3-2.7-2.6-4.1-3.8c-2.8-2.4-5.7-4.8-8.7-6.9c-5.6-4-11.5-7.4-17.7-10.3
	c11.5-6.9,22.3-15.2,30.9-25.5c4.4-5.4,8.2-11.3,10.9-17.6c0.6,4.7,2.7,9.2,5.9,12.6c2.8,3,6.6,5.3,10.7,5.5
	c3.9,0.2,7.7-1.5,10.5-4.1c6.2-5.8,7.1-15.7,5.1-23.5c-1.1-4.2-3.4-8.4-7.4-10.5c-3.5-1.8-7.7-1.9-10.9,0.3
	c-3.7,0.7-7.1,2.8-9.6,5.7c0.4-2.4,0.7-4.8,0.9-7.3c0.5-8-0.9-15.9-4.1-23.2c-0.5-1.2-1.8-0.9-2.4,0c-0.6-1.7-0.4-3.8,0.4-5.3
	c1.7-3.2,5.1-5.1,8.1-6.9c7-4.1,14.4-7.7,21.9-10.8C88.2,26.8,91.4,55,84.1,80.6z"/>
<path d="M78.8,61.5c-1.1-4.2-3.4-8.4-7.4-10.5c-3.5-1.8-7.7-1.9-10.9,0.3c-3.7,0.7-7.1,2.8-9.6,5.7c-1.3,1.5-2.4,3.2-3.2,5.1
	c-1.2,2.9-1.5,6-1.1,9c0.6,4.7,2.7,9.2,5.9,12.6c2.8,3,6.6,5.3,10.7,5.5c3.9,0.2,7.7-1.5,10.5-4.1C79.9,79.3,80.8,69.3,78.8,61.5z
	 M73,81.4c-2,2.5-5,4.4-8.2,4.7c-3.5,0.4-6.8-1.3-9.3-3.7c-4.7-4.3-7.3-11.2-5.6-17.5c1.3-5.2,5.7-9.3,10.8-10.5
	c0.3,0,0.6,0,0.9-0.2c1.2-0.2,2.5-0.2,3.8-0.1c0.8,0.1,1.5-0.7,1.5-1.5c1.1,0.1,2.3,0.5,3.2,1c2.9,1.5,4.7,4.5,5.6,7.6
	C77.6,67.7,77.3,76,73,81.4z"/>
<path class="st1" d="M73,81.4c-2,2.5-5,4.4-8.2,4.7c-3.5,0.4-6.8-1.3-9.3-3.7c-4.7-4.3-7.3-11.2-5.6-17.5c1.3-5.2,5.7-9.3,10.8-10.5
	c0.3,0,0.6,0,0.9-0.2c1.2-0.2,2.5-0.2,3.8-0.1c0.8,0.1,1.5-0.7,1.5-1.5c1.1,0.1,2.3,0.5,3.2,1c2.9,1.5,4.7,4.5,5.6,7.6
	C77.6,67.7,77.3,76,73,81.4z"/>
</svg>
