<?xml version="1.0" encoding="utf-8"?>
<!-- Generator: Adobe Illustrator 27.9.2, SVG Export Plug-In . SVG Version: 6.00 Build 0)  -->
<svg version="1.1" id="Calque_1" xmlns="http://www.w3.org/2000/svg" xmlns:xlink="http://www.w3.org/1999/xlink" x="0px" y="0px"
	 viewBox="0 0 130.5 78.8" style="enable-background:new 0 0 130.5 78.8;" xml:space="preserve">
<style type="text/css">
	.st0{fill:#24BC7E;}
	.st1{fill:#1A8E5C;}
</style>
<path d="M128.7,28.1c-14.4,5.8-30.2,7.1-45.5,4.5C68.4,30.1,54.5,24.1,42,16c-7-4.6-13.5-9.8-19.6-15.5c-0.6-0.6-1.5-0.6-2.1,0
	C15,5.5,10.4,11.3,6.9,17.7C3.5,23.6,0.4,30.3,0,37.1c-0.2,3.7,0.7,7.3,3.1,10.2c0.6,0.8,1.5,0.6,2,0c10.6,15.5,29.2,23.3,47.1,27.1
	c11.6,2.5,23.4,3.5,35.2,4.1c6.9,0.3,13.8,0.4,20.7,0.2c4.9-0.1,10.7-0.6,13.9-4.8c2.1-2.6,2.4-6,3-9.2c0.6-3.9,1.2-7.8,1.9-11.8
	c1.2-7.7,2.4-15.4,3.7-23C130.7,28.9,129.8,27.6,128.7,28.1z M124.5,48.7c-0.5,3.3-1,6.5-1.6,9.8c-0.5,3.2-0.9,6.4-1.6,9.6
	c-0.6,2.6-1.8,4.8-4.2,6c-2.1,1.1-4.6,1.4-6.9,1.5c-6.3,0.4-12.8,0.3-19.1,0.1c-11.8-0.4-23.6-1.3-35.2-3.5
	c-9.5-1.8-18.9-4.5-27.5-8.9C19,58.4,10.8,51.6,5.5,42.3c-0.5-0.9-1.4-0.9-2.1-0.5c-1.9-6,1.5-13.6,4-18.8
	c3.5-7.3,8.2-13.8,13.9-19.6C32.1,13.5,44.3,22,57.7,28c14.3,6.3,30,9.7,45.6,8.8c8.1-0.5,16.2-2,23.9-4.9
	C126.3,37.5,125.4,43.1,124.5,48.7z"/>
<path class="st0" d="M103.3,36.7C87.6,37.6,72,34.3,57.7,28C44.3,22,32.1,13.5,21.3,3.6C15.6,9.3,10.9,15.9,7.4,23.1
	c-2.5,5.2-5.8,12.8-4,18.8c0.7-0.4,1.6-0.4,2.1,0.5c5.2,9.2,13.4,16.1,22.8,20.9c8.6,4.4,18,7.1,27.5,8.9
	c11.6,2.2,23.4,3.2,35.2,3.5c6.3,0.2,12.8,0.3,19.1-0.1c2.3-0.1,4.8-0.4,6.9-1.5c2.4-1.3,3.6-3.4,4.2-6c0.7-3.1,1.1-6.4,1.6-9.6
	c0.5-3.3,1-6.5,1.6-9.8c0.9-5.6,1.8-11.3,2.7-16.9C119.5,34.7,111.5,36.3,103.3,36.7z M73.2,60.5c-3,2.7-6.8,4.5-10.7,5.5
	c-4.3,1.1-8.8,1.5-13.2,0.4c-8.1-2-13.6-9.7-12.5-18.1c0.7-5.5,4.6-10.1,9.5-12.3c0.1-0.4,0.3-0.7,0.8-0.9c8.9-3.9,20.7-4,27.2,4.2
	c2.4,3,3.9,6.8,3.9,10.7C78,54.1,76.1,57.8,73.2,60.5z"/>
<path d="M74.2,39.3c-6.5-8.2-18.3-8.2-27.2-4.2c-0.5,0.2-0.7,0.5-0.8,0.9c-4.9,2.2-8.8,6.8-9.5,12.3c-1.1,8.4,4.4,16.1,12.5,18.1
	c4.3,1,8.9,0.7,13.2-0.4c3.9-1,7.7-2.7,10.7-5.5c3-2.7,4.8-6.4,4.9-10.4C78.1,46.2,76.6,42.4,74.2,39.3z M72.7,56.6
	c-4.2,5.5-12.6,7.7-19.2,7.4c-3.6-0.2-7.3-1.3-9.9-3.9c-2.3-2.3-3.8-5.4-4-8.6c-0.6-8,6.5-14.4,14.3-13.8c1.2,0.1,1.7-1,1.3-2
	c5.2-0.8,10.7,0,14.8,3.6C74.9,43.6,76.9,51.1,72.7,56.6z"/>
<path class="st1" d="M72.7,56.6c-4.2,5.5-12.6,7.7-19.2,7.4c-3.6-0.2-7.3-1.3-9.9-3.9c-2.3-2.3-3.8-5.4-4-8.6
	c-0.6-8,6.5-14.4,14.3-13.8c1.2,0.1,1.7-1,1.3-2c5.2-0.8,10.7,0,14.8,3.6C74.9,43.6,76.9,51.1,72.7,56.6z"/>
</svg>
